<svg xmlns="http://www.w3.org/2000/svg" xmlns:xlink="http://www.w3.org/1999/xlink" id="Capa_1" x="0" y="0" baseProfile="basic" version="1.1" viewBox="159 381 32 32" xml:space="preserve"><style type="text/css">.st0{stroke-width:1.5;stroke-linecap:round}.st0,.st1,.st2,.st3{fill:none;stroke:#67a99f;stroke-linejoin:round;stroke-miterlimit:10}.st1{stroke-width:1.5;stroke-linecap:square}.st2,.st3{stroke-linecap:round}.st3{stroke-width:2}</style><g id="XMLID_33_"><path id="XMLID_30_" d="M182.4,412.5v-0.7c0-0.9-0.9-1.6-1.9-1.6h-10.9c-1.1,0-1.9,0.7-1.9,1.6v0.7H182.4z" class="st0"/><polygon id="XMLID_27_" points="172 409.7 174 407.8 176.2 407.8 178.2 409.7" class="st0"/><rect id="XMLID_28_" width="2.3" height="21.1" x="173.9" y="385.8" class="st1"/><line id="XMLID_31_" x1="172.2" x2="178" y1="385.8" y2="385.8" class="st2"/><path id="XMLID_29_" d="M174.9,382c0,0-3.1,0-0.5,4.2h1.5C175.9,386.1,178.8,382,174.9,382z" class="st3"/><path id="XMLID_32_" d="M163.4,388.2c0,0,1.8,2,4.2,0.1h14.1c0,0,2.7,1.5,3.9-0.6" class="st3"/><path id="XMLID_34_" d="M184.2,388.2l-5.5,11.8c0,0-1.2,3.3,2.8,4h5.6c0,0,3.6-0.2,2.5-3.8L184.2,388.2z" class="st3"/><line id="XMLID_35_" x1="179" x2="188.9" y1="399.7" y2="399.7" class="st3"/><path id="XMLID_37_" d="M165.9,388.2l-5.5,11.8c0,0-1.2,3.3,2.8,4h5.6c0,0,3.6-0.2,2.5-3.8L165.9,388.2z" class="st3"/><line id="XMLID_36_" x1="160.7" x2="170.6" y1="399.7" y2="399.7" class="st3"/></g></svg>