<svg xmlns="http://www.w3.org/2000/svg" width="33" height="32" fill="none" viewBox="0 0 33 32"><path stroke="#67A99F" stroke-width="2" d="M27.5 14C28.1667 14.6667 29.6492 16.8508 28 18.5C26.5 20 24.1667 19 23 18"/><path stroke="#67A99F" stroke-width="2" d="M18.4704 4.49715C17.8358 3.79991 15.7238 2.21638 13.9989 3.78633C12.4301 5.21422 13.3194 7.59195 14.2634 8.8043"/><path fill="#67A99F" stroke="#67A99F" stroke-width="2" d="M26.3706 6C26.2758 6 26.1809 5.96913 26.1086 5.9074C25.9638 5.78385 25.9638 5.58364 26.1086 5.46014L26.7619 4.90269C27.2513 4.48515 27.8613 4.17738 28.5259 4.01267C28.7225 3.96384 28.9281 4.06045 28.9852 4.22815C29.0423 4.39593 28.9292 4.57134 28.7326 4.62004C28.1876 4.75511 27.6874 5.00743 27.2861 5.34991L26.6327 5.9074C26.5604 5.96909 26.4655 6 26.3706 6Z"/><path stroke="#67A99F" stroke-width="2" d="M25.7453 6.45857C28.5173 9.23057 28.4891 13.8061 25.6165 16.6787C22.744 19.5513 18.1684 19.5794 15.3964 16.8074C12.6244 14.0354 12.6526 9.45988 15.5251 6.58729C18.3977 3.71471 22.9733 3.68658 25.7453 6.45857Z"/><path fill="#67A99F" stroke="#67A99F" stroke-width=".75" d="M19.5134 13.995C19.1131 13.995 18.7278 13.8366 18.4431 13.5519C18.1338 13.2426 17.9736 12.8146 18.0036 12.3775C18.0189 12.1542 18.2126 11.9854 18.4355 12.001C18.6587 12.0163 18.8272 12.2097 18.812 12.4329C18.798 12.6363 18.8724 12.8353 19.016 12.9789C19.1597 13.1226 19.3586 13.1966 19.562 13.183C19.7851 13.1685 19.9787 13.3362 19.994 13.5594C20.0094 13.7827 19.8408 13.976 19.6176 13.9914C19.5828 13.9938 19.548 13.995 19.5134 13.995Z"/><path fill="#67A99F" d="M12.4226 28.3259L11.7512 27.5847L11.7147 27.6178L11.6816 27.6544L12.4226 28.3259ZM12.6739 28.0916L12.8145 27.1016L12.3327 27.0331L11.9815 27.3701L12.6739 28.0916ZM14.9445 28.3326L15.0013 27.3342H15.0013L14.9445 28.3326ZM17.719 27.2937L17.0189 26.5797L17.0189 26.5797L17.719 27.2937ZM21.3667 21.8899L22.3029 22.2413L22.3029 22.2413L21.3667 21.8899ZM20.7338 20.2351L21.1966 19.3486L21.1966 19.3486L20.7338 20.2351ZM13.9921 18.1815L13.0061 18.3483L13.1234 19.0419L13.8159 19.1658L13.9921 18.1815ZM11.8674 11.0311L12.7539 10.5683L12.7539 10.5683L11.8674 11.0311ZM10.2125 10.3982L9.86114 9.46196L9.86113 9.46197L10.2125 10.3982ZM4.80874 14.0459L5.52277 14.746L5.52279 14.746L4.80874 14.0459ZM3.76991 16.8203L4.7683 16.7636L4.7683 16.7636L3.76991 16.8203ZM4.01086 19.0911L4.70298 19.8129L5.07303 19.4581L5.00092 18.9505L4.01086 19.0911ZM2.91221 20.3021L3.58602 21.041L3.64604 20.9863L3.69644 20.9226L2.91221 20.3021ZM7.3528 30.4644L7.88081 29.6152L7.64514 29.4687L7.36766 29.4645L7.3528 30.4644ZM7.39898 30.4901L7.83782 29.5915L7.83778 29.5915L7.39898 30.4901ZM10.3007 29.8608L9.88931 28.9494L9.85122 28.9666L9.81471 28.9869L10.3007 29.8608ZM13.0939 29.067C13.1858 28.9838 13.2766 28.8992 13.3663 28.8131L11.9815 27.3701C11.9059 27.4426 11.8291 27.5142 11.7512 27.5847L13.0939 29.067ZM12.5332 29.0817C13.3968 29.2043 14.2013 29.2919 14.8878 29.3309L15.0013 27.3342C14.3887 27.2993 13.6433 27.2193 12.8145 27.1016L12.5332 29.0817ZM14.8878 29.3309C16.1953 29.4053 17.4807 28.9279 18.4191 28.0078L17.0189 26.5797C16.4858 27.1023 15.7514 27.3768 15.0013 27.3342L14.8878 29.3309ZM18.4191 28.0078C19.9629 26.4942 21.6419 24.0025 22.3029 22.2413L20.4305 21.5385C19.8865 22.9878 18.3857 25.2396 17.0189 26.5797L18.4191 28.0078ZM22.3029 22.2413C22.718 21.1353 22.2439 19.8953 21.1966 19.3486L20.271 21.1215C20.4225 21.2006 20.4906 21.3784 20.4305 21.5386L22.3029 22.2413ZM21.1966 19.3486C19.2241 18.319 16.6201 17.636 14.1683 17.1971L13.8159 19.1658C16.198 19.5923 18.567 20.232 20.271 21.1215L21.1966 19.3486ZM14.9781 18.0147C14.5424 15.4387 13.8406 12.6502 12.7539 10.5683L10.9809 11.4938C11.9217 13.2961 12.5817 15.8388 13.0061 18.3483L14.9781 18.0147ZM12.7539 10.5683C12.2071 9.52096 10.9671 9.04687 9.86114 9.46196L10.5639 11.3344C10.7241 11.2743 10.9018 11.3424 10.9809 11.4938L12.7539 10.5683ZM9.86113 9.46197C8.1 10.123 5.60827 11.802 4.09469 13.3458L5.52279 14.746C6.86291 13.3791 9.11468 11.8784 10.5639 11.3344L9.86113 9.46197ZM4.0947 13.3458C3.17456 14.2842 2.69717 15.5696 2.77152 16.8771L4.7683 16.7636C4.72565 16.0135 5.00013 15.279 5.52277 14.746L4.0947 13.3458ZM2.77152 16.8771C2.81055 17.5636 2.89812 18.3681 3.0208 19.2317L5.00092 18.9505C4.88318 18.1216 4.80313 17.3762 4.7683 16.7636L2.77152 16.8771ZM3.31875 18.3693C2.89083 18.7796 2.49011 19.224 2.12799 19.6817L3.69644 20.9226C4.00483 20.5328 4.34439 20.1567 4.70298 19.8129L3.31875 18.3693ZM2.2384 19.5632C0.869111 20.8119 0 22.5659 0 24.5227H2C2 23.1786 2.59363 21.946 3.58602 21.041L2.2384 19.5632ZM0 24.5227C0 28.3945 3.35253 31.4051 7.33794 31.4643L7.36766 29.4645C4.31657 29.4192 2 27.1495 2 24.5227H0ZM6.82478 31.3137C6.8668 31.3398 6.91193 31.3651 6.96017 31.3887L7.83778 29.5915C7.85543 29.6001 7.86977 29.6083 7.88081 29.6152L6.82478 31.3137ZM6.96013 31.3887C7.57719 31.69 8.28026 31.6459 8.87317 31.5098C9.49212 31.3678 10.1487 31.0896 10.7867 30.7348L9.81471 28.9869C9.28443 29.2818 8.80712 29.473 8.42574 29.5605C8.01831 29.654 7.85465 29.5998 7.83782 29.5915L6.96013 31.3887ZM10.7122 30.7723C11.6546 30.3468 12.49 29.7407 13.1635 28.9974L11.6816 27.6544C11.1967 28.1894 10.5873 28.6343 9.88931 28.9494L10.7122 30.7723Z"/><path stroke="#67A99F" stroke-width="2" d="M14.6104 24.4967C14.5751 21.5445 13.8721 14.8723 11.867 11.0311C11.5541 10.4317 10.8452 10.1606 10.2121 10.3982C8.60691 11.0007 6.23517 12.5906 4.80832 14.0459C4.08692 14.7816 3.71099 15.7916 3.76949 16.8203C4.0003 20.8801 6.06227 29.8375 7.39855 30.4901C8.75588 31.153 12.2484 29.0707 13.9786 26.5816C14.403 25.9709 14.6193 25.2403 14.6104 24.4967Z"/><circle cx="24" cy="13" r="1" fill="#67A99F"/><circle cx="19" cy="8" r="1" fill="#67A99F"/></svg>