<svg xmlns="http://www.w3.org/2000/svg" width="32" height="30" fill="none" viewBox="0 0 32 30"><path stroke="#67A99F" stroke-linecap="square" stroke-miterlimit="10" stroke-width="2" d="M1 24.2773H17.0344"/><path stroke="#67A99F" stroke-linecap="square" stroke-miterlimit="10" stroke-width="2" d="M3.58643 24.2773V28.8032"/><path stroke="#67A99F" stroke-linecap="square" stroke-miterlimit="10" stroke-width="2" d="M14.4484 24.2773V28.8032"/><path stroke="#67A99F" stroke-linecap="square" stroke-miterlimit="10" stroke-width="2" d="M2.51733 21.3348V14.9297H15.5173V21.3348H2.51733Z"/><path stroke="#67A99F" stroke-linecap="square" stroke-miterlimit="10" stroke-width="2" d="M28.4301 8.8261C28.7589 8.03897 28.9292 7.19113 28.9307 6.33404C28.9307 3.38858 27.0783 1 24.7935 1C22.5088 1 20.6564 3.38858 20.6564 6.33404C20.6579 7.19113 20.8282 8.03897 21.157 8.8261C20.3316 9.58251 19.6746 10.5142 19.2311 11.5572C18.7876 12.6002 18.5682 13.7298 18.5879 14.8685C18.5879 18.9928 21.366 22.3361 24.7935 22.3361C28.2211 22.3361 30.9992 18.9928 30.9992 14.8685C31.0189 13.7298 30.7995 12.6002 30.356 11.5572C29.9125 10.5142 29.2555 9.58251 28.4301 8.8261V8.8261Z"/><rect width="1.552" height="14.871" x="24.276" y="14.578" fill="#67A99F"/></svg>