<svg xmlns="http://www.w3.org/2000/svg" width="30" height="24" fill="none" viewBox="0 0 30 24"><mask id="path-1-inside-1" fill="#fff"><path fill-rule="evenodd" d="M10.0006 0H20.5798C22.7889 0 24.5798 1.79086 24.5798 4V4.30874H26C28.2091 4.30874 30 6.0996 30 8.30874V20.0007C30 22.2099 28.2091 24.0007 26 24.0007H4C1.79086 24.0007 0 22.2099 0 20.0007V8.30874C0 6.0996 1.79086 4.30874 4 4.30874H6.00059V4C6.00059 1.79086 7.79145 0 10.0006 0Z" clip-rule="evenodd"/></mask><path fill="#67A99F" d="M24.5798 4.30874H22.5798V6.30874H24.5798V4.30874ZM6.00059 4.30874V6.30874H8.00059V4.30874H6.00059ZM20.5798 -2H10.0006V2H20.5798V-2ZM26.5798 4C26.5798 0.68629 23.8935 -2 20.5798 -2V2C21.6843 2 22.5798 2.89543 22.5798 4H26.5798ZM26.5798 4.30874V4H22.5798V4.30874H26.5798ZM26 2.30874H24.5798V6.30874H26V2.30874ZM32 8.30874C32 4.99503 29.3137 2.30874 26 2.30874V6.30874C27.1046 6.30874 28 7.20417 28 8.30874H32ZM32 20.0007V8.30874H28V20.0007H32ZM26 26.0007C29.3137 26.0007 32 23.3145 32 20.0007H28C28 21.1053 27.1046 22.0007 26 22.0007V26.0007ZM4 26.0007H26V22.0007H4V26.0007ZM-2 20.0007C-2 23.3144 0.68629 26.0007 4 26.0007V22.0007C2.89543 22.0007 2 21.1053 2 20.0007H-2ZM-2 8.30874V20.0007H2V8.30874H-2ZM4 2.30874C0.686294 2.30874 -2 4.99503 -2 8.30874H2C2 7.20417 2.89543 6.30874 4 6.30874V2.30874ZM6.00059 2.30874H4V6.30874H6.00059V2.30874ZM4.00059 4V4.30874H8.00059V4H4.00059ZM10.0006 -2C6.68688 -2 4.00059 0.686297 4.00059 4H8.00059C8.00059 2.89543 8.89602 2 10.0006 2V-2Z" mask="url(#path-1-inside-1)"/><path stroke="#67A99F" stroke-linecap="square" stroke-miterlimit="10" stroke-width="2" d="M20.774 10.8894H17.1268V7.24219H12.7501V10.8894H9.10291V15.2661H12.7501V18.9133H17.1268V15.2661H20.774V10.8894Z"/></svg>