<svg xmlns="http://www.w3.org/2000/svg" width="33" height="26" fill="none" viewBox="0 0 33 26"><rect width="30.824" height="23.384" x="1" y="1" stroke="#67A99F" stroke-width="2"/><path stroke="#67A99F" stroke-linecap="square" stroke-miterlimit="10" stroke-width="2" d="M24.7117 15.0312H28.2683"/><path stroke="#67A99F" stroke-linecap="square" stroke-miterlimit="10" stroke-width="2" d="M24.7109 19.707H28.2676"/><mask id="path-4-inside-1" fill="#fff"><path fill-rule="evenodd" d="M22.3327 11.5726L12.8692 4.50781L3.40572 11.5726C3.02022 11.8603 3.22376 12.4732 3.70483 12.4732H4.5708V20.6889H20.4862V12.4732H22.0336C22.5146 12.4732 22.7182 11.8603 22.3327 11.5726Z" clip-rule="evenodd"/></mask><path fill="#67A99F" d="M12.8692 4.50781L14.0656 2.90515L12.8692 2.01197L11.6728 2.90515L12.8692 4.50781ZM22.3327 11.5726L21.1362 13.1752L21.1362 13.1752L22.3327 11.5726ZM3.40572 11.5726L4.60215 13.1752H4.60215L3.40572 11.5726ZM4.5708 12.4732H6.5708V10.4732H4.5708V12.4732ZM4.5708 20.6889H2.5708V22.6889H4.5708V20.6889ZM20.4862 20.6889V22.6889H22.4862V20.6889H20.4862ZM20.4862 12.4732V10.4732H18.4862V12.4732H20.4862ZM11.6728 6.11048L21.1362 13.1752L23.5291 9.96989L14.0656 2.90515L11.6728 6.11048ZM4.60215 13.1752L14.0656 6.11048L11.6728 2.90515L2.20928 9.96989L4.60215 13.1752ZM3.70483 10.4732C5.14804 10.4732 5.75864 12.3119 4.60215 13.1752L2.20928 9.96989C0.281796 11.4088 1.29947 14.4732 3.70483 14.4732V10.4732ZM4.5708 10.4732H3.70483V14.4732H4.5708V10.4732ZM6.5708 20.6889V12.4732H2.5708V20.6889H6.5708ZM20.4862 18.6889H4.5708V22.6889H20.4862V18.6889ZM18.4862 12.4732V20.6889H22.4862V12.4732H18.4862ZM22.0336 10.4732H20.4862V14.4732H22.0336V10.4732ZM21.1362 13.1752C19.9797 12.3119 20.5904 10.4732 22.0336 10.4732V14.4732C24.4389 14.4732 25.4566 11.4088 23.5291 9.96989L21.1362 13.1752Z" mask="url(#path-4-inside-1)"/><path stroke="#67A99F" stroke-linecap="square" stroke-miterlimit="10" stroke-width="2" d="M12.8567 16.0323C14.1662 16.0323 15.2278 14.9853 15.2278 13.6939C15.2278 12.4024 14.1662 11.3555 12.8567 11.3555C11.5472 11.3555 10.4856 12.4024 10.4856 13.6939C10.4856 14.9853 11.5472 16.0323 12.8567 16.0323Z"/><path stroke="#67A99F" stroke-linecap="square" stroke-miterlimit="10" stroke-width="2" d="M17.5983 19.7068H8.11389C8.11389 17.7697 9.81255 16.1992 11.9077 16.1992H13.8045C15.8996 16.1992 17.5983 17.7697 17.5983 19.7068Z"/></svg>