<svg xmlns="http://www.w3.org/2000/svg" xmlns:xlink="http://www.w3.org/1999/xlink" id="Layer_1" x="0" y="0" baseProfile="basic" version="1.1" viewBox="0 0 33.2 27.3" xml:space="preserve"><style type="text/css">.st0{fill:#67a99f}.st1{fill:none;stroke:#67a99f;stroke-width:2}</style><path d="M25.7,12h1v-1.6l-1.4,0.6L25.7,12z M16.7,16.1L16.3,17l0.4,0.2l0.4-0.2L16.7,16.1z M6.7,12L7,11.1l-1.4-0.6V12	H6.7z M24.7,12v10h2V12H24.7z M17.1,17l9-4.1l-0.8-1.8l-9,4.1L17.1,17z M6.3,12.9l10,4.1l0.8-1.9L7,11.1L6.3,12.9z M7.7,22V12h-2v10	H7.7z M16.2,24c-2.6,0-4.8-0.3-6.4-0.8c-0.8-0.3-1.4-0.5-1.7-0.8C7.6,22.1,7.7,22,7.7,22h-2c0,0.9,0.6,1.5,1.1,2	c0.6,0.5,1.4,0.8,2.3,1.1c1.8,0.6,4.3,0.9,7,0.9V24z M24.7,22c0,0,0,0.1-0.3,0.4c-0.4,0.3-0.9,0.5-1.7,0.8C21,23.7,18.7,24,16.2,24	v2c2.7,0,5.2-0.3,7-0.9c0.9-0.3,1.7-0.7,2.3-1.1c0.6-0.4,1.1-1.1,1.1-2H24.7z" class="st0"/><path d="M16.9,1.5l13.9,6.9l-13.9,6.9L2.4,8.4L16.9,1.5z" class="st1"/><path d="M30.9,7.8v12.2" class="st1"/></svg>