<svg xmlns="http://www.w3.org/2000/svg" width="34" height="28" fill="none" viewBox="0 0 34 28"><path stroke="#67A99F" stroke-linecap="square" stroke-miterlimit="10" stroke-width="2" d="M20.157 15.0203C20.9868 15.0203 21.6594 14.3477 21.6594 13.518C21.6594 12.6883 20.9868 12.0156 20.157 12.0156C19.3273 12.0156 18.6547 12.6883 18.6547 13.518C18.6547 14.3477 19.3273 15.0203 20.157 15.0203Z"/><path stroke="#67A99F" stroke-linecap="square" stroke-miterlimit="10" stroke-width="2" d="M19.9282 19.6729C21.5552 19.6729 22.874 18.354 22.874 16.7271C22.874 15.1001 21.5552 13.7812 19.9282 13.7812C18.3013 13.7812 16.9824 15.1001 16.9824 16.7271C16.9824 18.354 18.3013 19.6729 19.9282 19.6729Z"/><path stroke="#67A99F" stroke-linecap="square" stroke-miterlimit="10" stroke-width="2" d="M25.8192 26.5476H14.527C14.527 24.1074 16.5494 22.1289 19.0439 22.1289H21.3023C23.7968 22.1289 25.8192 24.1074 25.8192 26.5476Z"/><path stroke="#67A99F" stroke-linecap="square" stroke-miterlimit="10" stroke-width="2" d="M14.037 19.6729C15.6639 19.6729 16.9828 18.354 16.9828 16.7271C16.9828 15.1001 15.6639 13.7812 14.037 13.7812C12.4101 13.7812 11.0912 15.1001 11.0912 16.7271C11.0912 18.354 12.4101 19.6729 14.037 19.6729Z"/><path stroke="#67A99F" stroke-linecap="square" stroke-miterlimit="10" stroke-width="2" d="M19.9281 26.5476H8.63586C8.63586 24.1074 10.6583 22.1289 13.1528 22.1289H15.4112C17.9057 22.1289 19.9281 24.1074 19.9281 26.5476Z"/><path fill="#67A99F" d="M17.0646 2L17.7554 1.27698L17.0646 0.616914L16.3737 1.27698L17.0646 2ZM31.9736 16.2451L31.2827 16.9681L31.2827 16.9681L31.9736 16.2451ZM2.15559 16.2451L1.46477 15.5221H1.46477L2.15559 16.2451ZM6.5254 17.1066H7.5254V16.1066H6.5254V17.1066ZM6.5254 26.5484H5.5254V27.5484H6.5254V26.5484ZM27.6063 26.5484V27.5484H28.6063V26.5484H27.6063ZM27.6063 17.1066V16.1066H26.6063V17.1066H27.6063ZM16.3737 2.72302L31.2827 16.9681L32.6644 15.5221L17.7554 1.27698L16.3737 2.72302ZM2.84642 16.9681L17.7554 2.72302L16.3737 1.27698L1.46477 15.5221L2.84642 16.9681ZM2.50101 16.1066C2.95197 16.1066 3.17247 16.6566 2.84642 16.9681L1.46477 15.5221C0.486601 16.4567 1.14812 18.1066 2.50101 18.1066V16.1066ZM6.5254 16.1066H2.50101V18.1066H6.5254V16.1066ZM7.5254 26.5484V17.1066H5.5254V26.5484H7.5254ZM27.6063 25.5484H6.5254V27.5484H27.6063V25.5484ZM26.6063 17.1066V26.5484H28.6063V17.1066H26.6063ZM31.6281 16.1066H27.6063V18.1066H31.6281V16.1066ZM31.2827 16.9681C30.9567 16.6566 31.1772 16.1066 31.6281 16.1066V18.1066C32.981 18.1066 33.6426 16.4567 32.6644 15.5221L31.2827 16.9681Z"/></svg>