<svg xmlns="http://www.w3.org/2000/svg" width="45" height="32" fill="none" viewBox="0 0 45 32"><path stroke="#67A99F" stroke-width="2" d="M35.5 20.5L41 23L23.5 30L5 23L10 21"/><mask id="path-2-outside-1" width="26" height="21" x="9.738" y="0" fill="#000" maskUnits="userSpaceOnUse"><rect width="26" height="21" x="9.738" fill="#fff"/><path fill-rule="evenodd" d="M22.7927 3L32.6699 11.3953C33.0244 11.6966 32.8113 12.2763 32.3461 12.2763H30.0695V18.074H26.2973V13.6076H19.291V18.074H15.5179V12.2763H13.2393C12.774 12.2763 12.561 11.6966 12.9155 11.3953L22.7927 3Z" clip-rule="evenodd"/></mask><path fill="#67A99F" d="M32.6699 11.3953L31.3746 12.9192L31.3746 12.9192L32.6699 11.3953ZM22.7927 3L24.0879 1.4761L22.7927 0.37516L21.4974 1.4761L22.7927 3ZM30.0695 12.2763V10.2763H28.0695V12.2763H30.0695ZM30.0695 18.074V20.074H32.0695V18.074H30.0695ZM26.2973 18.074H24.2973V20.074H26.2973V18.074ZM26.2973 13.6076H28.2973V11.6076H26.2973V13.6076ZM19.291 13.6076V11.6076H17.291V13.6076H19.291ZM19.291 18.074V20.074H21.291V18.074H19.291ZM15.5179 18.074H13.5179V20.074H15.5179V18.074ZM15.5179 12.2763H17.5179V10.2763H15.5179V12.2763ZM12.9155 11.3953L14.2107 12.9192L14.2107 12.9192L12.9155 11.3953ZM33.9651 9.87141L24.0879 1.4761L21.4974 4.5239L31.3746 12.9192L33.9651 9.87141ZM32.3461 14.2763C34.6722 14.2763 35.7376 11.3779 33.9651 9.87141L31.3746 12.9192C30.3112 12.0153 30.9504 10.2763 32.3461 10.2763V14.2763ZM30.0695 14.2763H32.3461V10.2763H30.0695V14.2763ZM32.0695 18.074V12.2763H28.0695V18.074H32.0695ZM26.2973 20.074H30.0695V16.074H26.2973V20.074ZM24.2973 13.6076V18.074H28.2973V13.6076H24.2973ZM19.291 15.6076H26.2973V11.6076H19.291V15.6076ZM21.291 18.074V13.6076H17.291V18.074H21.291ZM15.5179 20.074H19.291V16.074H15.5179V20.074ZM13.5179 12.2763V18.074H17.5179V12.2763H13.5179ZM13.2393 14.2763H15.5179V10.2763H13.2393V14.2763ZM11.6202 9.87141C9.84778 11.3779 10.9131 14.2763 13.2393 14.2763V10.2763C14.635 10.2763 15.2742 12.0153 14.2107 12.9192L11.6202 9.87141ZM21.4974 1.4761L11.6202 9.87141L14.2107 12.9192L24.0879 4.5239L21.4974 1.4761Z" mask="url(#path-2-outside-1)"/><path stroke="#67A99F" stroke-width="2" d="M14 13.5L3 18L23 25.5L42 18L31.5 13.5"/></svg>