<svg xmlns="http://www.w3.org/2000/svg" width="32" height="20" fill="none" viewBox="0 0 32 20"><path stroke="#67A99F" stroke-miterlimit="10" stroke-width="2" d="M4 16H1V8L6 1H20L24 8H31V16H28"/><path stroke="#67A99F" stroke-linecap="square" stroke-miterlimit="10" stroke-width="2" d="M6.99939 19C8.65624 19 9.99939 17.6569 9.99939 16C9.99939 14.3431 8.65624 13 6.99939 13C5.34254 13 3.99939 14.3431 3.99939 16C3.99939 17.6569 5.34254 19 6.99939 19Z"/><path stroke="#67A99F" stroke-linecap="square" stroke-miterlimit="10" stroke-width="2" d="M25 19C26.6569 19 28 17.6569 28 16C28 14.3431 26.6569 13 25 13C23.3431 13 22 14.3431 22 16C22 17.6569 23.3431 19 25 19Z"/><path stroke="#67A99F" stroke-miterlimit="10" stroke-width="2" d="M1 7.82031H23.68"/><path stroke="#67A99F" stroke-miterlimit="10" stroke-width="2" d="M10.0914 16H21.9096"/><path stroke="#67A99F" stroke-miterlimit="10" stroke-width="2" d="M13.0001 1V8"/></svg>