<svg xmlns="http://www.w3.org/2000/svg" width="30" height="27" fill="none" viewBox="0 0 30 27"><rect width="18.27" height="14.892" x="6.054" y="4.703" stroke="#903938" stroke-width="2" rx="1"/><rect width="1.938" height="3.229" x="8.75" y="1" fill="#903938"/><rect width="1.938" height="3.229" x="21.022" y="1" fill="#903938"/><path stroke="#903938" stroke-linecap="round" stroke-linejoin="round" stroke-width="2" d="M1 26V4C1 2.34315 2.34315 1 4 1H28.027"/><path fill="#903938" stroke="#913938" stroke-width=".5" d="M12.695 15.5585L16.5413 9L17.3143 9.44152L13.468 16L12.695 15.5585ZM12.6577 13.1301C12.1362 13.1301 11.7295 12.9615 11.4377 12.6242C11.1459 12.2869 11 11.7933 11 11.1432C11 10.4993 11.1459 10.0088 11.4377 9.67149C11.7295 9.33421 12.1362 9.16557 12.6577 9.16557C13.1793 9.16557 13.586 9.33421 13.8778 9.67149C14.1758 10.0088 14.3248 10.4993 14.3248 11.1432C14.3248 11.7933 14.1758 12.2869 13.8778 12.6242C13.586 12.9615 13.1793 13.1301 12.6577 13.1301ZM12.6577 12.385C12.8937 12.385 13.0644 12.29 13.17 12.0999C13.2817 11.9036 13.3376 11.5848 13.3376 11.1432C13.3376 10.714 13.2817 10.4012 13.17 10.205C13.0582 10.0088 12.8875 9.91064 12.6577 9.91064C12.428 9.91064 12.2573 10.0088 12.1455 10.205C12.04 10.3951 11.9872 10.7078 11.9872 11.1432C11.9872 11.5848 12.04 11.9036 12.1455 12.0999C12.2573 12.29 12.428 12.385 12.6577 12.385ZM17.3423 15.8068C16.8207 15.8068 16.414 15.6382 16.1222 15.3009C15.8304 14.9636 15.6845 14.4669 15.6845 13.8108C15.6845 13.1669 15.8304 12.6794 16.1222 12.3482C16.4203 12.011 16.8269 11.8423 17.3423 11.8423C17.8638 11.8423 18.2705 12.011 18.5623 12.3482C18.8541 12.6855 19 13.1761 19 13.82C19 14.47 18.8541 14.9636 18.5623 15.3009C18.2705 15.6382 17.8638 15.8068 17.3423 15.8068ZM17.3423 15.0618C17.572 15.0618 17.7427 14.9667 17.8545 14.7766C17.9662 14.5804 18.0221 14.2615 18.0221 13.82C18.0221 13.3907 17.9662 13.078 17.8545 12.8817C17.7427 12.6855 17.572 12.5874 17.3423 12.5874C17.1125 12.5874 16.9418 12.6855 16.83 12.8817C16.7183 13.078 16.6624 13.3907 16.6624 13.82C16.6624 14.2615 16.7183 14.5804 16.83 14.7766C16.9418 14.9667 17.1125 15.0618 17.3423 15.0618Z"/></svg>