<svg xmlns="http://www.w3.org/2000/svg" width="36" height="36" fill="none" viewBox="0 0 36 36"><path fill="#67A99F" d="M33.8799 7.9039C31.8434 7.47168 29.9119 6.90321 28.1391 6.21429C27.7773 6.07366 27.3698 6.25303 27.2291 6.615C27.0885 6.97697 27.2679 7.38443 27.6298 7.52505C29.3101 8.17797 31.1244 8.7262 33.0308 9.15736V17.7458C33.0308 19.4344 32.1479 21.6818 30.6005 24.0884V22.7545C30.6005 20.1043 29.1646 18.7951 27.7884 18.0479C28.203 17.3679 28.4421 16.5698 28.4421 15.7169C28.4421 13.2401 26.4261 11.225 23.9482 11.225C21.4713 11.225 19.4563 13.2401 19.4563 15.7169C19.4563 16.5689 19.6947 17.3661 20.1082 18.0455C19.3268 18.4657 18.5428 19.0545 18.0004 19.9663C17.4585 19.0552 16.6747 18.4664 15.8931 18.0461C16.307 17.3666 16.5457 16.5691 16.5457 15.7169C16.5457 13.2401 14.5297 11.225 12.0519 11.225C9.57496 11.225 7.55994 13.2401 7.55994 15.7169C7.55994 16.5696 7.79879 17.3674 8.21293 18.0472C6.83727 18.7941 5.40149 20.1032 5.40149 22.7545V24.0914C3.85286 21.6837 2.96917 19.4351 2.96917 17.7458V9.15707C11.0209 7.33275 15.0849 3.98186 17.2909 2.16288C17.5487 1.95033 17.7855 1.75507 18.0009 1.58484C18.2164 1.75528 18.4535 1.95089 18.7114 2.16379C19.5342 2.84287 25.6583 6.29202 27.0255 7.19779C27.3493 7.41224 27.7855 7.32365 28 7C28.2145 6.67628 28.1259 6.23999 27.8022 6.02554C26.4965 5.16048 20.404 1.73742 19.6065 1.07929C19.1533 0.705232 18.7617 0.382146 18.4092 0.130778C18.165 -0.0435262 17.837 -0.0434559 17.5928 0.130778C17.2404 0.382075 16.8493 0.704599 16.3964 1.07803C14.0809 2.98722 10.2055 6.18258 2.11972 7.90411C1.79509 7.97322 1.56299 8.25996 1.56299 8.59183V17.746C1.56299 19.3636 2.18167 21.2937 3.40166 23.4827C4.47765 25.413 5.97271 27.4434 7.72518 29.3541C10.672 32.5668 14.9191 36 18.0011 36C21.0821 36 25.3285 32.5668 28.2751 29.3539C29.051 28.5078 29.7763 27.6382 30.4372 26.7642C30.4533 26.7449 32.0098 24.5383 32.5983 23.4825C33.8184 21.2935 34.437 19.3634 34.437 17.7458V8.59169C34.437 8.25961 34.2047 7.97287 33.8799 7.9039ZM23.9482 12.6312C25.6507 12.6312 27.0358 14.0155 27.0358 15.7169C27.0358 17.4184 25.6507 18.8027 23.9482 18.8027C22.2468 18.8027 20.8626 17.4184 20.8626 15.7169C20.8626 14.0155 22.2467 12.6312 23.9482 12.6312ZM18.0011 22.0644C19.1739 22.0644 20.128 23.0186 20.128 24.1914C20.128 25.3654 19.1739 26.3204 18.0011 26.3204C16.8282 26.3204 15.874 25.3654 15.874 24.1914C15.874 23.0186 16.8282 22.0644 18.0011 22.0644ZM12.0519 12.6312C13.7543 12.6312 15.1394 14.0155 15.1394 15.7169C15.1394 17.4184 13.7543 18.8027 12.0519 18.8027C10.3504 18.8027 8.96619 17.4184 8.96619 15.7169C8.96619 14.0155 10.3504 12.6312 12.0519 12.6312ZM12.8555 29.4472V32.1722C11.5207 31.1627 10.1161 29.8801 8.76158 28.4034C8.0548 27.6328 7.40195 26.8549 6.80781 26.0819V22.7545C6.80781 20.6786 7.88823 19.7555 9.15217 19.1436C9.93531 19.8074 10.9473 20.2089 12.0519 20.2089C13.1566 20.2089 14.1688 19.8076 14.9522 19.1442C15.7018 19.508 16.4363 20.0088 16.8759 20.8429C15.4778 21.314 14.4678 22.6365 14.4678 24.1915C14.4678 24.7964 14.6207 25.3662 14.8894 25.8646C13.8689 26.4578 12.8555 27.4753 12.8555 29.4472ZM21.7403 33.1498C20.2838 34.0708 18.9762 34.5937 18.0011 34.5937C17.0258 34.5937 15.7182 34.071 14.2617 33.1504V29.4472C14.2617 28.0498 14.9646 27.3947 15.8108 26.9625C16.4133 27.4404 17.1742 27.7267 18.0011 27.7267C18.8278 27.7267 19.5885 27.4404 20.1911 26.9627C21.0374 27.3956 21.7404 28.051 21.7404 29.4472L21.7403 33.1498ZM29.1942 26.0795C28.5996 26.8533 27.9461 27.632 27.2387 28.4034C25.8848 29.8797 24.4808 31.1619 23.1466 32.1713V29.4472C23.1466 27.4766 22.133 26.4588 21.1125 25.865C21.3813 25.3665 21.5343 24.7966 21.5343 24.1915C21.5343 22.6361 20.5237 21.3133 19.125 20.8425C19.5655 20.0079 20.2997 19.5073 21.0487 19.1438C21.8318 19.8074 22.8438 20.2089 23.9482 20.2089C25.053 20.2089 26.0653 19.8075 26.8487 19.1441C28.1133 19.7563 29.1942 20.6796 29.1942 22.7545V26.0795Z"/></svg>