<svg xmlns="http://www.w3.org/2000/svg" width="36" height="36" fill="none" viewBox="0 0 36 36"><path fill="#67A99F" d="M16.7586 11.1724C15.3874 11.1724 14.2758 12.284 14.2758 13.6551C14.2758 15.0263 15.3874 16.1379 16.7586 16.1379C18.1298 16.1379 19.2413 15.0263 19.2413 13.6551C19.2413 12.284 18.1298 11.1724 16.7586 11.1724ZM16.7586 14.8965C16.0729 14.8965 15.5172 14.3408 15.5172 13.6551C15.5172 12.9695 16.0729 12.4138 16.7586 12.4138C17.4442 12.4138 17.9999 12.9695 17.9999 13.6551C17.9999 14.3408 17.4442 14.8965 16.7586 14.8965Z"/><path fill="#67A99F" d="M24.2068 18.6206C22.8356 18.6206 21.7241 19.7322 21.7241 21.1034C21.7241 22.4746 22.8356 23.5862 24.2068 23.5862C25.578 23.5862 26.6896 22.4746 26.6896 21.1034C26.6896 19.7322 25.578 18.6206 24.2068 18.6206ZM24.2068 22.3448C23.5212 22.3448 22.9654 21.789 22.9654 21.1034C22.9654 20.4178 23.5212 19.862 24.2068 19.862C24.8924 19.862 25.4482 20.4178 25.4482 21.1034C25.4482 21.789 24.8924 22.3448 24.2068 22.3448Z"/><path fill="#67A99F" d="M25.0088 11.9749L15.0781 21.9057L15.9558 22.7835L25.8866 12.8527L25.0088 11.9749Z"/><path fill="#67A99F" d="M35.1483 10.2724L30.9103 7.44827H31.0344V3.10345C31.0344 2.76068 30.7565 2.48276 30.4137 2.48276H27.3103C26.9675 2.48276 26.6896 2.76068 26.6896 3.10345V4.63345L20.8272 0.723113C20.6186 0.583924 20.3468 0.583924 20.1382 0.723113L5.81709 10.2724C4.93851 10.8581 4.70102 12.0451 5.28671 12.9237C5.87241 13.8023 7.0594 14.0397 7.93798 13.4541L9.93101 12.1258V24.2069H8.68964C8.68964 23.8641 8.41172 23.5862 8.06895 23.5862H3.10344C2.76067 23.5862 2.48275 23.8641 2.48275 24.2069H0V25.4482H2.48275V31.6551H0V32.8965H2.48275C2.48275 33.2393 2.76067 33.5172 3.10344 33.5172H8.06895C8.41172 33.5172 8.68964 33.2393 8.68964 32.8965V32.66L13.3237 34.5841C15.8499 35.6159 18.6741 35.6472 21.2226 34.6717L30.811 31.0152C31.379 30.7993 31.8361 30.3637 32.079 29.8067C32.3299 29.2419 32.3428 28.5999 32.115 28.0253C31.9121 27.5116 31.5275 27.0904 31.0344 26.8417V12.1258L33.0274 13.4541C33.906 14.0397 35.093 13.8023 35.6787 12.9237C36.2644 12.0451 36.0269 10.858 35.1483 10.2724ZM7.44826 32.2758H3.72413V24.8275H7.44826V32.2758ZM27.931 3.72414H29.793V6.70345L27.931 5.46207V3.72414ZM30.9407 29.3064C30.8311 29.5598 30.6238 29.7584 30.3659 29.857L20.7775 33.5128C18.5245 34.3759 16.0275 34.3491 13.7936 33.4377L8.68964 31.3156V25.4482H10.2631C12.3211 25.4506 14.3506 25.9297 16.1925 26.8479C16.8007 27.1515 17.4711 27.3098 18.1508 27.3103H22.9655C23.4796 27.3136 23.8938 27.7331 23.8904 28.2473C23.8877 28.678 23.5898 29.0506 23.1703 29.1482C23.089 29.1556 23.0095 29.1724 22.927 29.1724H15.5172V30.4137H22.927C22.94 30.4137 22.9524 30.4137 22.9655 30.4137C22.9779 30.4137 22.9897 30.41 23.0027 30.41C23.4953 30.4021 23.9818 30.299 24.4353 30.1065L29.6248 27.9037C29.872 27.7982 30.1516 27.7982 30.3988 27.9037C30.6559 28.0122 30.8577 28.2209 30.9574 28.4815C31.0629 28.7476 31.0568 29.0449 30.9407 29.3064ZM22.9655 26.0689H18.1508C17.6637 26.0682 17.1834 25.9547 16.7474 25.7375C15.0077 24.8708 13.1121 24.3609 11.1724 24.2379V11.2965L20.4827 5.08966L29.793 11.2965V26.6027C29.5685 26.6216 29.3481 26.6746 29.1395 26.7598L25.1149 28.4685C25.1266 28.3932 25.1343 28.3174 25.1379 28.2413C25.1379 27.0415 24.1653 26.0689 22.9655 26.0689ZM34.0877 12.5349C33.9553 12.5349 33.826 12.4958 33.7158 12.4225L20.8272 3.82842C20.6186 3.68923 20.3468 3.68923 20.1382 3.82842L7.24964 12.4212C6.94116 12.6266 6.52467 12.543 6.3193 12.2345C6.24599 12.1243 6.20688 11.995 6.20688 11.8626C6.20649 11.6382 6.31861 11.4284 6.50543 11.304L20.4827 1.98621L34.46 11.3052C34.6468 11.4297 34.7589 11.6394 34.7585 11.8638C34.7586 12.2344 34.4582 12.5348 34.0877 12.5349Z"/><path fill="#67A99F" d="M6.20689 29.793H4.96552V31.0344H6.20689V29.793Z"/></svg>