<svg xmlns="http://www.w3.org/2000/svg" width="36" height="36" fill="none" viewBox="0 0 36 36"><path fill="#67A99F" d="M2.75414 34.2422H27.1371C27.3701 34.2422 27.5625 34.0829 27.5625 33.8499V29.25H31.6547C31.7665 29.2462 31.8723 29.1981 31.9488 29.1164C32.0252 29.0347 32.0661 28.9259 32.0625 28.8141V27.1406H33.2459C33.3011 27.1426 33.3561 27.1336 33.4078 27.1142C33.4595 27.0948 33.5069 27.0653 33.5472 27.0276C33.5875 26.9898 33.62 26.9445 33.6427 26.8941C33.6655 26.8438 33.678 26.7894 33.6797 26.7342V24.0349C33.6797 23.0971 32.9048 22.3594 31.9669 22.3594H29.3998L30.5433 15.2639C30.5447 15.2551 30.5459 15.2399 30.5467 15.231C30.5833 14.8499 30.5395 14.4654 30.4181 14.1023C30.2968 13.7392 30.1005 13.4057 29.8421 13.1232C29.5837 12.8407 29.2688 12.6157 28.9179 12.4626C28.567 12.3095 28.1879 12.2317 27.8051 12.2344H27.5625V2.15015C27.5625 1.91714 27.3701 1.75781 27.1371 1.75781H7.87359C7.76673 1.75244 7.66203 1.78917 7.58194 1.86011L2.45651 6.75211C2.41468 6.78974 2.38101 6.83555 2.35758 6.8867C2.33416 6.93786 2.32147 6.99328 2.32031 7.04953V33.8499C2.32031 34.0829 2.52112 34.2422 2.75414 34.2422ZM32.8359 26.2969H25.4767C25.3648 26.2969 25.2575 26.3413 25.1784 26.4204C25.0993 26.4996 25.0548 26.6069 25.0548 26.7188C25.0548 26.8306 25.0993 26.938 25.1784 27.0171C25.2575 27.0962 25.3648 27.1406 25.4767 27.1406H31.2188V28.4063H22.5V27.1406H23.4853C23.5972 27.1406 23.7045 27.0962 23.7836 27.0171C23.8627 26.938 23.9072 26.8306 23.9072 26.7188C23.9072 26.6069 23.8627 26.4996 23.7836 26.4204C23.7045 26.3413 23.5972 26.2969 23.4853 26.2969H20.8828V25.5234H32.8359V26.2969ZM31.9669 23.2031C32.4395 23.2031 32.8359 23.5623 32.8359 24.0349V24.6797H20.8828V24.0349C20.8842 23.9442 20.9015 23.8543 20.9341 23.7696C20.9938 23.6021 21.1045 23.4574 21.2505 23.3559C21.3965 23.2543 21.5705 23.2009 21.7484 23.2031H31.9669ZM27.8051 13.0781C28.0708 13.074 28.3343 13.1264 28.5782 13.2319C28.822 13.3373 29.0407 13.4935 29.2197 13.6898C29.3982 13.8801 29.5341 14.1062 29.6183 14.353C29.7025 14.5999 29.7331 14.8619 29.7081 15.1215L28.5469 22.2891H25.1683L24.0072 15.1214C23.9823 14.8616 24.013 14.5995 24.0973 14.3526C24.1816 14.1056 24.3176 13.8795 24.4962 13.6892C24.6753 13.493 24.894 13.337 25.1379 13.2316C25.3818 13.1263 25.6452 13.074 25.9109 13.0781H27.8051ZM7.45312 3.13783V6.60938H3.79554L7.45312 3.13783ZM3.16406 7.45312H7.87359C8.10654 7.45312 8.29688 7.29141 8.29688 7.05867V2.60156H26.7188V12.2344H25.9109C25.5277 12.231 25.1482 12.3083 24.7968 12.4613C24.4455 12.6142 24.1303 12.8393 23.8717 13.122C23.6131 13.4048 23.4168 13.7387 23.2957 14.1022C23.1746 14.4657 23.1313 14.8507 23.1687 15.232C23.1695 15.241 23.1706 15.2588 23.1721 15.2677L23.2951 16.0313H6.79641C6.68452 16.0313 6.57721 16.0757 6.4981 16.1548C6.41898 16.2339 6.37453 16.3412 6.37453 16.4531C6.37453 16.565 6.41898 16.6723 6.4981 16.7514C6.57721 16.8306 6.68452 16.875 6.79641 16.875H23.4311L23.6805 18.4219H6.79641C6.68452 18.4219 6.57721 18.4663 6.4981 18.5454C6.41898 18.6246 6.37453 18.7319 6.37453 18.8438C6.37453 18.9556 6.41898 19.0629 6.4981 19.1421C6.57721 19.2212 6.68452 19.2656 6.79641 19.2656H23.8166L24.066 20.8125H6.79641C6.68452 20.8125 6.57721 20.857 6.4981 20.9361C6.41898 21.0152 6.37453 21.1225 6.37453 21.2344C6.37453 21.3463 6.41898 21.4536 6.4981 21.5327C6.57721 21.6118 6.68452 21.6563 6.79641 21.6563H24.2021L24.3154 22.3594H21.7484C21.4498 22.3583 21.1562 22.4357 20.8969 22.5837C20.6377 22.7318 20.4218 22.9454 20.2711 23.2031H6.79641C6.68452 23.2031 6.57721 23.2476 6.4981 23.3267C6.41898 23.4058 6.37453 23.5131 6.37453 23.625C6.37453 23.7369 6.41898 23.8442 6.4981 23.9233C6.57721 24.0024 6.68452 24.0469 6.79641 24.0469H20.0391V25.5938H6.79641C6.68452 25.5938 6.57721 25.6382 6.4981 25.7173C6.41898 25.7964 6.37453 25.9037 6.37453 26.0156C6.37453 26.1275 6.41898 26.2348 6.4981 26.3139C6.57721 26.3931 6.68452 26.4375 6.79641 26.4375H20.0391V26.7342C20.0403 26.7893 20.0525 26.8435 20.0749 26.8938C20.0973 26.9441 20.1294 26.9894 20.1694 27.0272C20.2094 27.065 20.2565 27.0945 20.308 27.114C20.3595 27.1334 20.4144 27.1425 20.4694 27.1406H21.6562V28.8141C21.6541 28.8693 21.6628 28.9244 21.682 28.9762C21.7011 29.028 21.7303 29.0755 21.7679 29.116C21.8054 29.1565 21.8506 29.1892 21.9008 29.2122C21.9511 29.2352 22.0053 29.248 22.0605 29.25H26.7188V33.3984H3.16406V7.45312Z"/><path fill="#67A99F" d="M16.8187 27.9844H6.79639C6.6845 27.9844 6.57719 28.0288 6.49808 28.1079C6.41896 28.1871 6.37451 28.2944 6.37451 28.4062C6.37451 28.5181 6.41896 28.6254 6.49808 28.7046C6.57719 28.7837 6.6845 28.8281 6.79639 28.8281H16.8187C16.9306 28.8281 17.0379 28.7837 17.117 28.7046C17.1962 28.6254 17.2406 28.5181 17.2406 28.4062C17.2406 28.2944 17.1962 28.1871 17.117 28.1079C17.0379 28.0288 16.9306 27.9844 16.8187 27.9844Z"/><path fill="#67A99F" d="M10.3092 15.274C11.0503 15.2773 11.7756 15.0605 12.3933 14.6512C13.0111 14.2419 13.4934 13.6584 13.7793 12.9747C14.0651 12.291 14.1416 11.5378 13.999 10.8106C13.8564 10.0834 13.5012 9.41492 12.9783 8.88979C12.4555 8.36465 11.7885 8.00653 11.0619 7.8608C10.3353 7.71507 9.58186 7.78828 8.89692 8.07116C8.21199 8.35404 7.62644 8.83386 7.21444 9.44983C6.80245 10.0658 6.58257 10.7902 6.58264 11.5312C6.58171 12.5214 6.97351 13.4714 7.67212 14.1731C8.37072 14.8747 9.31909 15.2706 10.3092 15.274ZM10.3092 8.63156C10.8833 8.62827 11.4455 8.79552 11.9245 9.11209C12.4035 9.42867 12.7777 9.88032 12.9997 10.4098C13.2217 10.9393 13.2815 11.5228 13.1715 12.0863C13.0616 12.6498 12.7868 13.168 12.382 13.5751C11.9772 13.9823 11.4606 14.2601 10.8978 14.3734C10.3349 14.4866 9.75108 14.4302 9.22031 14.2113C8.68954 13.9924 8.23571 13.6208 7.91635 13.1437C7.59698 12.6666 7.42646 12.1054 7.42639 11.5312C7.42512 10.7647 7.7279 10.029 8.26832 9.48541C8.80875 8.94183 9.5427 8.63476 10.3092 8.63156Z"/><path fill="#67A99F" d="M10.3092 13.8452C10.7667 13.8439 11.2135 13.707 11.5932 13.4519C11.9729 13.1968 12.2685 12.8349 12.4427 12.4118C12.6168 11.9888 12.6617 11.5237 12.5716 11.0752C12.4815 10.6267 12.2605 10.2149 11.9366 9.89194C11.6126 9.56896 11.2002 9.34923 10.7514 9.26051C10.3026 9.17179 9.83762 9.21806 9.41512 9.39348C8.99263 9.56889 8.63159 9.86558 8.37763 10.2461C8.12366 10.6266 7.98815 11.0738 7.98822 11.5312C7.9899 12.1457 8.23519 12.7343 8.67031 13.1681C9.10542 13.6019 9.69483 13.8454 10.3092 13.8452ZM10.3092 10.0603C10.5998 10.0616 10.8834 10.149 11.1244 10.3114C11.3653 10.4737 11.5528 10.7038 11.6631 10.9727C11.7734 11.2415 11.8016 11.5369 11.7441 11.8217C11.6866 12.1065 11.5461 12.368 11.3402 12.573C11.1343 12.778 10.8723 12.9174 10.5872 12.9736C10.3022 13.0299 10.0068 13.0004 9.7385 12.889C9.47017 12.7775 9.24086 12.5891 9.07952 12.3475C8.91819 12.1058 8.83204 11.8218 8.83197 11.5312C8.83335 11.1405 8.98963 10.7662 9.26656 10.4904C9.54348 10.2147 9.91845 10.06 10.3092 10.0603Z"/><path fill="#67A99F" d="M25.7931 19.1382C25.6827 19.1562 25.5839 19.2173 25.5185 19.3081C25.4532 19.3988 25.4265 19.5119 25.4445 19.6223L25.5162 20.0632C25.5341 20.1736 25.5952 20.2724 25.686 20.3378C25.7768 20.4032 25.8899 20.4299 26.0003 20.4119C26.1108 20.3939 26.2096 20.3329 26.275 20.2421C26.3404 20.1513 26.367 20.0382 26.349 19.9278L26.2773 19.4868C26.2593 19.3764 26.1982 19.2776 26.1074 19.2122C26.0166 19.1469 25.9036 19.1202 25.7931 19.1382Z"/><path fill="#67A99F" d="M25.0165 14.1472C24.9091 14.2648 24.8262 14.4025 24.7725 14.5524C24.7189 14.7024 24.6957 14.8614 24.7042 15.0204C24.7049 15.0356 24.7065 15.0506 24.709 15.0656L25.2153 18.2015C25.2236 18.2567 25.2427 18.3097 25.2716 18.3574C25.3005 18.4051 25.3386 18.4466 25.3836 18.4795C25.4287 18.5124 25.4798 18.536 25.5341 18.549C25.5883 18.562 25.6446 18.5641 25.6997 18.5553C25.7547 18.5464 25.8075 18.5266 25.8549 18.4972C25.9023 18.4678 25.9434 18.4293 25.9758 18.3839C26.0082 18.3385 26.0313 18.2871 26.0437 18.2327C26.0561 18.1784 26.0577 18.1221 26.0482 18.0671L25.5462 14.9577C25.5469 14.8613 25.5855 14.7691 25.6538 14.7011C25.7221 14.6332 25.8145 14.5949 25.9109 14.5948C26.0227 14.5948 26.1301 14.5503 26.2092 14.4712C26.2883 14.3921 26.3327 14.2848 26.3327 14.1729C26.3327 14.061 26.2883 13.9537 26.2092 13.8746C26.1301 13.7955 26.0227 13.751 25.9109 13.751C25.7423 13.7503 25.5754 13.7852 25.4213 13.8534C25.2671 13.9217 25.1292 14.0219 25.0165 14.1472Z"/></svg>