<svg xmlns="http://www.w3.org/2000/svg" width="36" height="36" fill="none" viewBox="0 0 36 36"><g clip-path="url(#clip0)"><path fill="#67A99F" d="M22.4608 9.96834C22.5589 9.82918 22.6368 9.67683 22.6919 9.5157C22.9389 9.5573 23.1744 9.65134 23.3819 9.79168C23.7994 10.0738 24.2889 10.2303 24.7925 10.2431C24.9516 10.2426 25.1101 10.2279 25.2666 10.1998C25.9254 10.0873 26.5128 9.71755 26.899 9.17204C27.1058 8.84597 27.4404 8.62214 27.8204 8.55505C28.2007 8.48825 28.5915 8.58405 28.897 8.81989C29.447 9.20046 30.1252 9.34695 30.7829 9.22712L30.574 8.04528C30.194 8.11237 29.8032 8.01627 29.4976 7.78072C28.3515 6.99644 26.7888 7.27213 25.9799 8.40094C25.7731 8.72702 25.4385 8.95085 25.0582 9.01794C24.8851 9.0528 24.7061 9.04841 24.5344 9.00534C24.8895 8.91159 25.2179 8.73727 25.4945 8.49586C26.0089 8.06901 26.3327 7.45494 26.3945 6.78931C26.4106 6.40347 26.5884 6.04253 26.8846 5.79467C27.1791 5.54389 27.5664 5.43139 27.949 5.485C28.6161 5.54565 29.2791 5.33236 29.7856 4.89467L29.0125 3.97591C28.7134 4.21761 28.3299 4.32894 27.9478 4.28499C26.5632 4.17923 25.3474 5.19906 25.2112 6.5813C25.1954 6.96656 25.0178 7.3275 24.7225 7.57564C24.4269 7.8235 24.0408 7.936 23.6584 7.88502C23.284 7.85602 22.9075 7.90611 22.5539 8.03268C22.3887 7.74615 22.1476 7.5106 21.8572 7.35211L24.54 1.99308C24.6331 1.80646 24.6229 1.58497 24.5127 1.40773C24.4026 1.23077 24.2083 1.12354 24 1.12472C23.5773 1.12852 23.1715 0.95948 22.8768 0.656841C21.8174 -0.319045 20.187 -0.319045 19.1279 0.656841C18.8303 0.956844 18.4251 1.1253 18.0026 1.1253C17.5799 1.1253 17.175 0.956844 16.8773 0.656841C15.8171 -0.318459 14.1864 -0.318459 13.1261 0.656841C12.8302 0.959773 12.4233 1.12882 11.9999 1.12472C11.7919 1.12472 11.5986 1.23224 11.4893 1.40919C11.3797 1.58585 11.3698 1.80705 11.4629 1.99308L14.1424 7.35211C13.6883 7.59439 13.3611 8.02125 13.2454 8.52282C13.1296 9.02438 13.2366 9.55144 13.5389 9.96834C8.03752 11.4461 4.20985 16.4283 4.19989 22.1249V32.925C4.20165 34.5811 5.54375 35.9229 7.19991 35.925H28.8001C30.4559 35.9229 31.798 34.5811 31.8001 32.925V22.1249C31.7898 16.4283 27.9622 11.4461 22.4608 9.96834ZM13.8755 1.59347C14.1735 1.29347 14.5787 1.12472 15.0017 1.12472C15.4245 1.12472 15.83 1.29347 16.1279 1.59347C17.1876 2.56848 18.818 2.56848 19.8779 1.59347C20.1753 1.29347 20.5799 1.12472 21.0024 1.12472C21.4245 1.12472 21.8294 1.29347 22.1268 1.59347C22.4133 1.8463 22.7432 2.04582 23.1006 2.18205L20.6291 7.12476H15.3706L12.9 2.18263C13.2577 2.04611 13.5881 1.8466 13.8755 1.59347ZM15 9.52478C14.6683 9.52478 14.4 9.25612 14.4 8.92477C14.4 8.59342 14.6683 8.32477 15 8.32477H21C21.3314 8.32477 21.6 8.59342 21.6 8.92477C21.6 9.25612 21.3314 9.52478 21 9.52478H15ZM30.6001 32.925C30.6001 33.919 29.7941 34.725 28.8001 34.725H7.19991C6.20557 34.725 5.3999 33.919 5.3999 32.925V22.1249C5.40664 15.8316 10.5067 10.7318 16.8 10.7248H19.2C25.493 10.7318 30.5931 15.8316 30.6001 22.1249V32.925Z"/><path fill="#67A99F" d="M13.9755 26.5004L21.1758 19.3003L22.0243 20.1488L14.8242 27.3491L13.9755 26.5004Z"/><path fill="#67A99F" d="M20.4 23.9248C19.4057 23.9248 18.6 24.7308 18.6 25.7248C18.6 26.7189 19.4057 27.5248 20.4 27.5248C21.3941 27.5248 22.2 26.7189 22.2 25.7248C22.2 24.7308 21.3941 23.9248 20.4 23.9248ZM20.4 26.3248C20.0684 26.3248 19.8 26.0562 19.8 25.7248C19.8 25.3935 20.0684 25.1248 20.4 25.1248C20.7314 25.1248 21 25.3935 21 25.7248C21 26.0562 20.7314 26.3248 20.4 26.3248Z"/><path fill="#67A99F" d="M15.6 22.7248C16.5941 22.7248 17.4 21.9189 17.4 20.9248C17.4 19.9308 16.5941 19.1248 15.6 19.1248C14.6057 19.1248 13.8 19.9308 13.8 20.9248C13.8 21.9189 14.6057 22.7248 15.6 22.7248ZM15.6 20.3248C15.9314 20.3248 16.2 20.5935 16.2 20.9248C16.2 21.2562 15.9314 21.5248 15.6 21.5248C15.2684 21.5248 15 21.2562 15 20.9248C15 20.5935 15.2684 20.3248 15.6 20.3248Z"/><path fill="#67A99F" d="M18 14.9248C13.3606 14.9248 9.59998 18.6857 9.59998 23.3249C9.59998 27.9641 13.3606 31.7249 18 31.7249C22.6392 31.7249 26.4001 27.9641 26.4001 23.3249C26.3951 18.6877 22.6372 14.9298 18 14.9248ZM18 30.5249C14.0235 30.5249 10.8 27.3014 10.8 23.3249C10.8 19.3484 14.0235 16.1248 18 16.1248C21.9762 16.1248 25.2001 19.3484 25.2001 23.3249C25.1957 27.2996 21.9745 30.5205 18 30.5249Z"/></g><defs><clipPath id="clip0"><rect width="36" height="36" fill="#fff"/></clipPath></defs></svg>