<svg xmlns="http://www.w3.org/2000/svg" width="36" height="36" fill="none" viewBox="0 0 36 36"><g clip-path="url(#clip0)"><path fill="#CE7A58" d="M35.9399 21.9517L35.9453 21.9499L30.0347 9.05361L31.4681 8.34022L30.9317 7.26623L29.5343 7.96222L29.3453 7.55002C29.2072 7.24883 28.8511 7.1166 28.5499 7.25468C28.4192 7.3146 28.3145 7.41938 28.2545 7.55002L28.0859 7.91842C27.0689 7.44608 25.9613 7.20098 24.84 7.20023H19.8V6.00024H21V4.80025H19.9686L20.4 3.07406C20.7312 1.7486 19.9253 0.405585 18.5998 0.0743126C17.2743 -0.256885 15.9313 0.549059 15.6 1.87452C15.5016 2.26827 15.5016 2.68024 15.6 3.07399L16.0314 4.80017H15V6.00016H16.2V7.20015H11.1631C10.0406 7.20105 8.93184 7.44675 7.9141 7.92015L7.7455 7.55175C7.60743 7.25055 7.25126 7.11833 6.95006 7.2564C6.81941 7.31633 6.71464 7.4211 6.65471 7.55175L6.46571 7.96395L5.06833 7.26495L4.53193 8.34014L5.96532 9.05654L0.0547677 21.9499C0.018318 22.0283 -0.000281805 22.1137 0.000168192 22.2001C0.00279317 24.5186 1.88168 26.3974 4.20013 26.4001H10.2001C12.5185 26.3974 14.3974 24.5186 14.4 22.2001C14.3985 22.1139 14.3781 22.0291 14.34 21.9517L8.4133 9.00681C9.27482 8.60692 10.2133 8.39992 11.1631 8.40022H16.2V30.3516L14.1517 32.4H12.0001C10.3441 32.402 9.00204 33.744 9.00009 35.4C9.00009 35.7313 9.26874 36 9.60009 36H26.4C26.7313 36 26.9999 35.7313 26.9999 35.4C26.998 33.744 25.656 32.402 24 32.4H21.8484L19.8 30.3516V8.40022H24.84C25.7898 8.39992 26.7282 8.60692 27.5897 9.00681L21.6546 21.9499C21.6181 22.0283 21.5995 22.1137 21.6 22.2001C21.6026 24.5186 23.4815 26.3974 25.8 26.4001H31.7999C34.1184 26.3974 35.9972 24.5186 35.9999 22.2001C35.9984 22.1139 35.978 22.0291 35.9399 21.9517ZM10.2001 25.2001H4.20013C2.775 25.1985 1.54703 24.1961 1.26016 22.8001H13.1401C12.8533 24.1961 11.6252 25.1985 10.2001 25.2001ZM12.8653 21.6001H1.53496L7.04651 9.57561C7.14716 9.60261 7.25306 9.60261 7.35371 9.57561L12.8653 21.6001ZM16.9962 1.68987C17.4635 1.13548 18.2917 1.0649 18.8461 1.53215C18.903 1.58015 18.9558 1.63295 19.0038 1.68987C19.2465 1.99857 19.3322 2.40237 19.236 2.78307L18.7314 4.80025H17.2686L16.764 2.78307C16.6678 2.40237 16.7536 1.99857 16.9962 1.68987ZM17.4 7.20023V6.00024H18.6V7.20023H17.4ZM18.6 8.40022V30H17.4V8.40022H18.6ZM24 33.6C24.7626 33.6009 25.4421 34.0814 25.6974 34.8H10.3027C10.5579 34.0814 11.2375 33.6009 12.0001 33.6H24ZM20.1516 32.4H15.8484L17.0484 31.2H18.9516L20.1516 32.4ZM28.6451 9.57741C28.7442 9.61228 28.8529 9.60778 28.9487 9.56481L34.4651 21.6001H23.1348L28.6451 9.57741ZM31.7999 25.2001H25.8C24.3748 25.1985 23.1469 24.1961 22.86 22.8001H34.7399C34.4531 24.1961 33.225 25.1985 31.7999 25.2001Z"/></g><defs><clipPath id="clip0"><rect width="36" height="36" fill="#fff"/></clipPath></defs></svg>