<svg xmlns="http://www.w3.org/2000/svg" width="36" height="36" fill="none" viewBox="0 0 36 36"><path fill="#CE7A58" d="M29.3482 0H6.65179C5.49164 0 4.54769 0.943875 4.54769 2.1041V16.3259C4.54769 16.6171 4.7838 16.8532 5.07504 16.8532C5.36627 16.8532 5.60238 16.6171 5.60238 16.3259V2.1041C5.60238 1.52543 6.07312 1.05469 6.65179 1.05469H29.3482C29.9268 1.05469 30.3977 1.52543 30.3977 2.1041V27.524C30.3977 27.5818 30.3948 27.6391 30.3901 27.6961H24.9359C23.7329 27.6961 22.7541 28.6748 22.7541 29.8778V34.9378C22.6972 34.9424 22.6399 34.9454 22.5821 34.9454H6.65179C6.07319 34.9454 5.60238 34.4746 5.60238 33.896V18.4352C5.60238 18.144 5.36627 17.9079 5.07504 17.9079C4.7838 17.9079 4.54769 18.144 4.54769 18.4352V33.8959C4.54769 35.0561 5.49157 36 6.65179 36H22.5821C23.4116 36 24.1917 35.6782 24.7796 35.0937L30.5258 29.7412C30.5304 29.737 30.5349 29.7326 30.5393 29.7282C31.1281 29.1394 31.4523 28.3565 31.4523 27.5238V2.1041C31.4523 0.943875 30.5085 0 29.3482 0V0ZM24.0541 34.3282C24.0496 34.3324 24.0451 34.3368 24.0407 34.3412C23.9677 34.4142 23.8902 34.481 23.8089 34.5414V29.8778C23.8089 29.2563 24.3144 28.7508 24.9359 28.7508H29.9935C29.9348 28.8298 29.8702 28.9052 29.7997 28.9763L24.0541 34.3282Z"/><path fill="#CE7A58" d="M26.2885 20.1519C26.7757 19.308 26.7757 18.3004 26.2885 17.4566L20.3343 7.14361C19.8471 6.29979 18.9744 5.79593 18 5.79593C17.0256 5.79593 16.153 6.29979 15.6658 7.14361L9.71159 17.4566C9.22439 18.3004 9.22439 19.308 9.71159 20.1519C10.1988 20.9957 11.0714 21.4996 12.0458 21.4996H14.4047C14.6959 21.4996 14.932 21.2635 14.932 20.9722C14.932 20.681 14.6959 20.4449 14.4047 20.4449H12.0458C11.4527 20.4449 10.9215 20.1383 10.6249 19.6246C10.3284 19.1109 10.3284 18.4976 10.6249 17.9839L16.5792 7.67095C16.8757 7.15732 17.4069 6.85062 18 6.85062C18.5932 6.85062 19.1243 7.15732 19.4209 7.67095L25.3751 17.9839C25.6717 18.4976 25.6717 19.1109 25.3751 19.6246C25.0785 20.1382 24.5474 20.4449 23.9542 20.4449H16.8347C16.5434 20.4449 16.3073 20.681 16.3073 20.9722C16.3073 21.2635 16.5434 21.4996 16.8347 21.4996H23.9542C24.9286 21.4996 25.8012 20.9958 26.2885 20.1519Z"/><path fill="#CE7A58" d="M18.1113 19.4065C19.106 19.4065 19.9153 18.5972 19.9153 17.6025C19.9153 16.6078 19.106 15.7985 18.1113 15.7985C17.1165 15.7985 16.3073 16.6078 16.3073 17.6025C16.3073 18.5972 17.1165 19.4065 18.1113 19.4065ZM18.1113 16.8532C18.5244 16.8532 18.8606 17.1894 18.8606 17.6025C18.8606 18.0157 18.5244 18.3518 18.1113 18.3518C17.6981 18.3518 17.3619 18.0157 17.3619 17.6025C17.3619 17.1894 17.6981 16.8532 18.1113 16.8532Z"/><path fill="#CE7A58" d="M17.8688 15.0784H18.3539C19.0449 15.0784 19.6071 14.5162 19.6071 13.8251V11.1388C19.6071 10.4478 19.0449 9.88559 18.3539 9.88559H17.8688C17.1777 9.88559 16.6155 10.4478 16.6155 11.1388V13.8251C16.6155 14.5162 17.1777 15.0784 17.8688 15.0784ZM17.6701 11.1388C17.6701 11.0294 17.7592 10.9403 17.8687 10.9403H18.3538C18.4633 10.9403 18.5523 11.0294 18.5523 11.1388V13.8251C18.5523 13.9346 18.4633 14.0237 18.3538 14.0237H17.8687C17.7592 14.0237 17.6701 13.9346 17.6701 13.8251V11.1388Z"/><path fill="#CE7A58" d="M25.0385 24.2812C25.0385 23.99 24.8024 23.7539 24.5111 23.7539H11.489C11.1977 23.7539 10.9616 23.99 10.9616 24.2812C10.9616 24.5725 11.1977 24.8086 11.489 24.8086H24.5111C24.8024 24.8086 25.0385 24.5725 25.0385 24.2812Z"/><path fill="#CE7A58" d="M11.489 26.0039C11.1977 26.0039 10.9616 26.24 10.9616 26.5312C10.9616 26.8225 11.1977 27.0586 11.489 27.0586H17.1428C17.434 27.0586 17.6701 26.8225 17.6701 26.5312C17.6701 26.24 17.434 26.0039 17.1428 26.0039H11.489Z"/></svg>