<svg xmlns="http://www.w3.org/2000/svg" width="32" height="32" fill="none" viewBox="0 0 32 32"><path fill="#CE7A58" d="M26.3084 9.43523C26.1923 9.31898 26.0311 9.25217 25.8668 9.25217C25.7024 9.25217 25.5413 9.31898 25.425 9.43523C25.3088 9.55148 25.242 9.71267 25.242 9.87698C25.242 10.0413 25.3088 10.2025 25.425 10.3187C25.5412 10.4349 25.7024 10.5018 25.8668 10.5018C26.0311 10.5018 26.1923 10.4349 26.3084 10.3187C26.4246 10.2025 26.4916 10.0413 26.4916 9.87698C26.4916 9.71267 26.4247 9.55142 26.3084 9.43523Z"/><path fill="#CE7A58" d="M25.8668 8.03444C26.2118 8.03444 26.4916 7.75463 26.4916 7.40963V1.88014C26.4916 0.846579 25.6507 0.00576783 24.6171 0.00576783H1.87443C0.840873 0.00570533 0 0.846579 0 1.88014V30.1211C0 31.1547 0.840873 31.9956 1.87443 31.9956H24.6172C25.6508 31.9956 26.4916 31.1547 26.4916 30.1211V27.3149C26.4916 26.9699 26.2118 26.6901 25.8668 26.6901C25.5218 26.6901 25.242 26.9699 25.242 27.3149V30.1211C25.242 30.4656 24.9617 30.746 24.6172 30.746H1.87443C1.52993 30.746 1.24962 30.4656 1.24962 30.1211V1.88014C1.24962 1.53564 1.52993 1.25533 1.87443 1.25533H24.6172C24.9617 1.25533 25.242 1.53564 25.242 1.88014V7.40963C25.242 7.75463 25.5218 8.03444 25.8668 8.03444Z"/><path fill="#CE7A58" d="M31.4509 25.1347L28.2279 21.9116C28.7828 20.9209 29.0999 19.7797 29.0999 18.5657C29.0999 14.7782 26.0186 11.6968 22.2311 11.6968C22.1933 11.6968 22.1556 11.6976 22.118 11.6982V8.26036C22.118 7.91536 21.8382 7.63555 21.4932 7.63555H17.8416V4.26168C17.8416 3.91668 17.5618 3.63687 17.2168 3.63687H12.9404C12.5954 3.63687 12.3156 3.91668 12.3156 4.26168V8.01049H8.66399C8.31899 8.01049 8.03917 8.2903 8.03917 8.6353V12.0092H4.99843C4.65343 12.0092 4.37362 12.289 4.37362 12.634V16.008C4.37362 16.353 4.65343 16.6328 4.99843 16.6328H15.6395C15.4593 17.2462 15.3622 17.8948 15.3622 18.5657C15.3622 22.3532 18.4435 25.4346 22.231 25.4346C23.4451 25.4346 24.5863 25.1176 25.577 24.5625L28.7789 27.7644C29.1561 28.1416 29.6464 28.3318 30.1347 28.3317C30.5903 28.3317 31.0441 28.1661 31.4022 27.8326C31.7784 27.4823 31.9905 27.0067 31.9997 26.4936C32.0088 25.9802 31.8139 25.4977 31.4509 25.1347ZM8.03911 15.3832H5.62324V13.2589H8.03917V15.3832H8.03911ZM12.3155 15.3832H9.28873V12.634V9.26011H12.3155V15.3832ZM13.5651 15.3832V8.6353V4.88649H16.5919V8.26043V10.5226V11.3765C16.5919 11.7215 16.8717 12.0014 17.2167 12.0014C17.5617 12.0014 17.8415 11.7215 17.8415 11.3765V10.5226V8.88524H20.8684V11.8328C18.8156 12.2476 17.092 13.5807 16.1455 15.3832H13.5651ZM22.231 24.185C19.1326 24.185 16.6117 21.6641 16.6117 18.5657C16.6117 15.4672 19.1325 12.9464 22.231 12.9464C25.3295 12.9464 27.8503 15.4672 27.8503 18.5657C27.8503 21.6641 25.3295 24.185 22.231 24.185ZM30.5505 26.9181C30.3076 27.1444 29.9094 27.1276 29.6626 26.8807L26.6238 23.8419C26.9442 23.5746 27.2401 23.2788 27.5074 22.9583L30.5674 26.0182C30.6884 26.1392 30.7534 26.3001 30.7503 26.4712C30.7471 26.6424 30.6763 26.801 30.5505 26.9181Z"/><path fill="#CE7A58" d="M23.8577 15.3709C23.5572 15.2013 23.176 15.3072 23.0064 15.6078L19.6469 21.5587C19.4773 21.8592 19.5833 22.2403 19.8838 22.41C19.9809 22.4648 20.0863 22.4908 20.1904 22.4908C20.4084 22.4908 20.6202 22.3765 20.735 22.1731L24.0945 16.2222C24.2642 15.9216 24.1582 15.5405 23.8577 15.3709Z"/><path fill="#CE7A58" d="M24.4141 19.0991C23.3806 19.0991 22.5397 19.94 22.5397 20.9735C22.5397 22.0071 23.3806 22.8479 24.4141 22.8479C25.4477 22.8479 26.2885 22.007 26.2885 20.9735C26.2886 19.9399 25.4477 19.0991 24.4141 19.0991ZM24.4141 21.5983C24.0696 21.5983 23.7893 21.318 23.7893 20.9735C23.7893 20.629 24.0696 20.3487 24.4141 20.3487C24.7586 20.3487 25.0389 20.629 25.0389 20.9735C25.0389 21.318 24.7587 21.5983 24.4141 21.5983Z"/><path fill="#CE7A58" d="M20.0479 14.2834C19.0143 14.2834 18.1735 15.1243 18.1735 16.1579C18.1735 17.1914 19.0143 18.0323 20.0479 18.0323C21.0815 18.0323 21.9223 17.1914 21.9223 16.1579C21.9223 15.1243 21.0814 14.2834 20.0479 14.2834ZM20.0479 16.7826C19.7034 16.7826 19.4231 16.5023 19.4231 16.1578C19.4231 15.8133 19.7034 15.533 20.0479 15.533C20.3924 15.533 20.6727 15.8133 20.6727 16.1578C20.6727 16.5023 20.3924 16.7826 20.0479 16.7826Z"/><path fill="#CE7A58" d="M21.2975 27.3714H3.99874C3.65374 27.3714 3.37393 27.6512 3.37393 27.9962C3.37393 28.3412 3.65374 28.621 3.99874 28.621H21.2975C21.6425 28.621 21.9223 28.3412 21.9223 27.9962C21.9223 27.6512 21.6425 27.3714 21.2975 27.3714Z"/><path fill="#CE7A58" d="M13.2458 23.8725H9.37173C9.02673 23.8725 8.74692 24.1523 8.74692 24.4973C8.74692 24.8423 9.02673 25.1221 9.37173 25.1221H13.2458C13.5908 25.1221 13.8706 24.8423 13.8706 24.4973C13.8706 24.1523 13.5908 23.8725 13.2458 23.8725Z"/><path fill="#CE7A58" d="M15.9787 24.0556C15.8625 23.9394 15.7012 23.8725 15.5369 23.8725C15.3726 23.8725 15.2114 23.9393 15.0952 24.0556C14.9783 24.1718 14.9121 24.333 14.9121 24.4973C14.9121 24.6616 14.9783 24.8228 15.0952 24.939C15.2113 25.0552 15.372 25.1221 15.5369 25.1221C15.7012 25.1221 15.8624 25.0553 15.9787 24.939C16.0948 24.8229 16.1617 24.6616 16.1617 24.4973C16.1617 24.333 16.0949 24.1718 15.9787 24.0556Z"/><path fill="#CE7A58" d="M13.2458 20.3736H9.37173C9.02673 20.3736 8.74692 20.6534 8.74692 20.9984C8.74692 21.3434 9.02673 21.6232 9.37173 21.6232H13.2458C13.5908 21.6232 13.8706 21.3434 13.8706 20.9984C13.8706 20.6534 13.5908 20.3736 13.2458 20.3736Z"/><path fill="#CE7A58" d="M5.3733 21.9662C4.95987 21.9662 4.62355 21.6868 4.62355 21.3435C4.62355 21.0001 4.95987 20.7208 5.3733 20.7208C5.78674 20.7208 6.12305 21.0001 6.12305 21.3435C6.12305 21.6885 6.40286 21.9683 6.74786 21.9683C7.09286 21.9683 7.37267 21.6885 7.37267 21.3435C7.37267 20.5151 6.79511 19.8113 5.99749 19.5651C5.99105 19.2257 5.7143 18.9523 5.3733 18.9523C5.0323 18.9523 4.75549 19.2257 4.74912 19.5651C3.95149 19.8113 3.37393 20.5151 3.37393 21.3435C3.37393 22.3758 4.27081 23.2158 5.3733 23.2158C5.78674 23.2158 6.12305 23.4952 6.12305 23.8385C6.12305 24.1818 5.78674 24.4612 5.3733 24.4612C4.95987 24.4612 4.62355 24.1818 4.62355 23.8385C4.62355 23.4935 4.34374 23.2137 3.99874 23.2137C3.65374 23.2137 3.37393 23.4935 3.37393 23.8385C3.37393 24.6666 3.95118 25.3703 4.74849 25.6166V25.6527C4.74849 25.9977 5.0283 26.2775 5.3733 26.2775C5.7183 26.2775 5.99811 25.9977 5.99811 25.6527V25.6166C6.79543 25.3703 7.37267 24.6666 7.37267 23.8385C7.37267 22.8061 6.47574 21.9662 5.3733 21.9662Z"/></svg>