<svg xmlns="http://www.w3.org/2000/svg" width="36" height="36" fill="none" viewBox="0 0 36 36"><path fill="#CE7A58" d="M32.705 11.6682L22.896 8.86574V3.96831H29.1196V5.09585H28.1919C27.9001 5.09585 27.6637 5.33224 27.6637 5.62404V7.80809C27.6637 8.09989 27.9001 8.33628 28.1919 8.33628H31.1039C31.3956 8.33628 31.632 8.09989 31.632 7.80809V5.62411C31.632 5.33231 31.3956 5.09592 31.1039 5.09592H30.1759V3.96831H32.5599C32.8233 3.96831 33.0465 3.77425 33.083 3.51339C33.1196 3.25253 32.9583 3.00468 32.705 2.93225L22.5253 0.0239767C22.5248 0.0237657 22.5241 0.0236251 22.5236 0.0234845L22.5129 0.020461C22.5087 0.0192657 22.5047 0.0186329 22.5005 0.0175782C22.4892 0.0146251 22.4778 0.0118125 22.4662 0.00963285C22.4578 0.00801566 22.4494 0.00696097 22.441 0.00576565C22.4326 0.00457033 22.4243 0.0033047 22.4158 0.00253126C22.4041 0.00147657 22.3925 0.00105469 22.3808 0.000773441C22.3764 0.000562502 22.3722 0 22.3678 0H22.3565C22.356 0 22.3555 0 22.355 0H13.6452C13.6443 0 13.6433 0 13.6424 0H13.632C13.628 0 13.6241 0.000492189 13.6201 0.000632815C13.608 0.000914066 13.5959 0.00133594 13.5838 0.00246095C13.5757 0.00316407 13.5678 0.0044297 13.5597 0.00555471C13.551 0.00682034 13.5422 0.00787503 13.5334 0.00956254C13.522 0.0117422 13.5108 0.0144844 13.4998 0.0173673C13.4955 0.0184923 13.4912 0.0191251 13.4869 0.0203204L13.4759 0.0234845C13.4755 0.0236251 13.4751 0.0236954 13.4747 0.023836L3.29493 2.93225C3.04166 3.00468 2.88044 3.25253 2.917 3.51339C2.95356 3.77425 3.17673 3.96831 3.44013 3.96831H5.82394V5.09585H4.89602C4.60429 5.09585 4.36783 5.33224 4.36783 5.62404V7.80809C4.36783 8.09989 4.60429 8.33628 4.89602 8.33628H7.80803C8.09975 8.33628 8.33622 8.09989 8.33622 7.80809V5.62411C8.33622 5.33231 8.09975 5.09592 7.80803 5.09592H6.88018V3.96831H13.1038V8.86567L3.29493 11.6682C3.04166 11.7406 2.88044 11.9885 2.917 12.2493C2.95356 12.5102 3.17673 12.7043 3.44013 12.7043H5.82394V13.8318H4.89602C4.60429 13.8318 4.36783 14.0682 4.36783 14.36V16.544C4.36783 16.8358 4.60429 17.0722 4.89602 17.0722H7.80803C8.09975 17.0722 8.33622 16.8358 8.33622 16.544V14.36C8.33622 14.0682 8.09975 13.8318 7.80803 13.8318H6.88018V12.7043H13.1038V17.926L10.9436 25.4865C10.9436 25.4868 10.9435 25.4871 10.9433 25.4874L10.9391 25.5021C10.9391 25.5023 10.939 25.5026 10.9389 25.5028L10.9379 25.5062C10.9378 25.5069 10.9376 25.5075 10.9374 25.5081L8.86546 32.7594H7.80789C7.51616 32.7594 7.2797 32.9958 7.2797 33.2876V34.9436H6.2004C5.90867 34.9436 5.67221 35.1799 5.67221 35.4717C5.67221 35.7635 5.90867 35.9999 6.2004 35.9999H7.80803H28.192H29.7995C30.0912 35.9999 30.3277 35.7635 30.3277 35.4717C30.3277 35.1799 30.0912 34.9436 29.7995 34.9436H28.7202V33.2876C28.7202 32.9958 28.4837 32.7594 28.192 32.7594H27.1343L25.0626 25.5086C25.0623 25.5075 25.0619 25.5064 25.0617 25.5053L25.0569 25.4885C25.0566 25.4877 25.0564 25.4868 25.0562 25.486L22.8961 17.926V12.7042H29.1196V13.8317H28.1919C27.9002 13.8317 27.6637 14.0681 27.6637 14.3599V16.544C27.6637 16.8358 27.9002 17.0722 28.1919 17.0722H31.1039C31.3957 17.0722 31.6321 16.8358 31.6321 16.544V14.36C31.6321 14.0682 31.3957 13.8318 31.1039 13.8318H30.176V12.7043H32.56C32.8234 12.7043 33.0465 12.5102 33.0831 12.2493C33.1194 11.9885 32.9581 11.7406 32.705 11.6682ZM30.5757 6.1523V7.27997H28.72V6.1523H30.5757ZM22.896 1.2285L28.7885 2.912H22.896V1.2285ZM7.27984 6.1523V7.27997H5.42421V6.1523H7.27984ZM7.27984 14.8881V16.0158H5.42421V14.8881H7.27984ZM14.1602 1.05638H21.8397V2.912H14.1602V1.05638ZM21.8397 3.96831V8.27715L15.3764 3.96831H21.8397ZM14.1602 4.4271L20.6234 8.73587H14.1602V4.4271ZM14.1602 9.79225H21.8397V11.6479H14.1602V9.79225ZM13.1237 25.1157L18 21.7022L22.8763 25.1157H13.1237ZM22.3145 26.172L17.9999 28.3294L13.6854 26.172H22.3145ZM15.3077 18.5282H20.6922L17.9999 20.4127L15.3077 18.5282ZM21.8397 12.7043V17.013L15.3764 12.7043H21.8397ZM14.1602 13.163L20.6236 17.4719H14.1602V13.163ZM7.21128 2.91193L13.1038 1.22843V2.91193H7.21128ZM7.21128 11.6479L13.1038 9.96423V11.6479H7.21128ZM13.9363 18.8577L17.0789 21.0576L12.365 24.3572L13.9363 18.8577ZM11.7811 26.4008L16.8189 28.9198L10.1017 32.2784L11.7811 26.4008ZM26.7355 33.8162H26.7357C26.7363 33.8162 26.737 33.816 26.7376 33.816H27.6639V34.9438H27.6638H8.33629V33.816H9.26245C9.26315 33.816 9.26378 33.8162 9.26442 33.8162C9.26519 33.8162 9.26603 33.816 9.26681 33.816H9.2744C9.27531 33.816 9.2763 33.816 9.27721 33.816H14.2519C14.5436 33.816 14.7801 33.5796 14.7801 33.2878C14.7801 32.996 14.5436 32.7596 14.2519 32.7596H11.5013L17.9999 29.5103L24.4985 32.7596H16.6068C16.315 32.7596 16.0786 32.996 16.0786 33.2878C16.0786 33.5796 16.315 33.816 16.6068 33.816H26.7331C26.7339 33.816 26.7348 33.8162 26.7355 33.8162ZM25.8982 32.2784L19.181 28.9198L24.2188 26.4008L25.8982 32.2784ZM23.6349 24.3573L18.921 21.0576L22.0636 18.8577L23.6349 24.3573ZM22.896 11.6479V9.9643L28.7886 11.6479H22.896ZM30.5757 14.8881V16.0158H28.72V14.8881H30.5757Z"/></svg>