<svg xmlns="http://www.w3.org/2000/svg" width="375" height="67" fill="none" viewBox="0 0 375 67"><path fill="#903938" d="M2.73467 58.4488L7.89498 63.6237H6.44894L1.54809 58.8074L1.17493 63.6237H0L0.787169 53.5188H1.96209L1.60349 58.1339L6.84835 53.5188H8.41102L2.73467 58.4488Z"/><path fill="#903938" d="M9.77264 60.3121V60.3704C9.77264 61.1342 9.95922 61.7261 10.3324 62.1488C10.7143 62.5686 11.2653 62.7785 11.9796 62.7785C12.8309 62.7785 13.5889 62.5074 14.2595 61.9622L14.5889 62.8223C14.3032 63.0992 13.9096 63.3179 13.414 63.4812C12.9271 63.6444 12.4286 63.7261 11.9242 63.7261C10.9126 63.7261 10.105 63.4199 9.50151 62.8077C8.90967 62.1955 8.6123 61.3733 8.6123 60.3412C8.6123 59.5861 8.75515 58.9185 9.04086 58.3354C9.32658 57.7436 9.72891 57.2859 10.2449 56.9593C10.761 56.6357 11.3615 56.4725 12.0496 56.4725C12.9388 56.4725 13.6414 56.7407 14.1574 57.2742C14.6735 57.799 14.93 58.5774 14.93 59.6095C14.93 59.8281 14.9154 60.0643 14.8863 60.3121H9.77264ZM12.0933 57.3733C11.4519 57.3733 10.9417 57.5658 10.5598 57.9477C10.1779 58.3208 9.93299 58.8602 9.82803 59.5657H13.898C13.9271 58.8398 13.7784 58.2946 13.4548 57.9331C13.1283 57.5599 12.6764 57.3733 12.0933 57.3733ZM13.5831 54.2509L15.0175 52.2159H16.2944L14.2886 54.2509H13.5831ZM10.1575 55.7261L12.035 53.6183H12.8076L14.3411 55.7261H13.3236L12.3907 54.3063L11.2158 55.7261H10.1575Z"/><path fill="#903938" d="M18.0164 61.0992C18.0077 61.1662 18.0018 61.2566 18.0018 61.3703C18.0018 62.3149 18.4712 62.7901 19.4071 62.7901C19.6374 62.7901 19.8473 62.7697 20.0368 62.7318L19.9085 63.6502C19.7074 63.6968 19.4829 63.723 19.2351 63.723C18.4625 63.723 17.8677 63.5277 17.4566 63.1341C17.0456 62.7435 16.8415 62.1895 16.8415 61.4723C16.8415 61.3382 16.8473 61.2333 16.8561 61.1575L17.1418 57.5598H15.7803L15.8386 56.6415H17.2001L17.3721 54.519H18.5324L18.3604 56.6415H20.3517L20.2788 57.5598H18.2876L18.0164 61.0992Z"/><path fill="#903938" d="M28.8048 56.4727C29.589 56.4727 30.1838 56.6767 30.5949 57.0878C31.0059 57.4989 31.21 58.0965 31.21 58.8779C31.21 59.0499 31.2042 59.1782 31.1954 59.2656L30.8514 63.6213H29.6911L30.0351 59.3356C30.0438 59.2686 30.0497 59.1694 30.0497 59.0353C30.0497 57.9741 29.5395 57.4435 28.5162 57.4435C27.866 57.4435 27.35 57.6388 26.9681 58.0324C26.5861 58.4143 26.3675 58.9449 26.3092 59.6242L25.9943 63.6213H24.834L25.3937 56.6418H26.5249L26.4404 57.7175C26.6794 57.3269 27.0031 57.0208 27.4141 56.7992C27.8252 56.5776 28.2888 56.4727 28.8048 56.4727Z"/><path fill="#903938" d="M36.0755 63.7231C35.4253 63.7231 34.851 63.5832 34.3554 63.3062C33.8685 63.0293 33.4895 62.6386 33.2242 62.1313C32.9676 61.6153 32.8364 61.0176 32.8364 60.3412C32.8364 59.5687 32.9734 58.8894 33.2533 58.3063C33.539 57.7232 33.9355 57.2742 34.4428 56.9593C34.9589 56.6357 35.5565 56.4725 36.2329 56.4725C36.8918 56.4725 37.4661 56.6124 37.953 56.8894C38.4399 57.1663 38.816 57.5628 39.0842 58.0789C39.3524 58.5949 39.4865 59.1926 39.4865 59.8689C39.4865 60.6415 39.3437 61.3208 39.058 61.9039C38.781 62.487 38.3845 62.936 37.8685 63.2508C37.3524 63.5657 36.7548 63.7231 36.0755 63.7231ZM36.0901 62.764C36.7868 62.764 37.3262 62.5016 37.7081 61.9768C38.0988 61.452 38.297 60.7348 38.297 59.8281C38.297 59.0643 38.1163 58.4754 37.7518 58.0643C37.3991 57.6445 36.8918 57.4346 36.2329 57.4346C35.5361 57.4346 34.9909 57.7028 34.6003 58.2363C34.2067 58.7727 34.0114 59.487 34.0114 60.385C34.0114 61.1576 34.1892 61.7523 34.542 62.1634C34.8947 62.5628 35.4108 62.764 36.0901 62.764ZM37.8247 54.2509L39.2591 52.2159H40.5361L38.5303 54.2509H37.8247ZM34.3991 55.7261L36.2766 53.6183H37.0492L38.5827 55.7261H37.5653L36.6323 54.3063L35.4574 55.7261H34.3991Z"/><path fill="#903938" d="M41.4904 56.6446H42.6508L42.091 63.6241H40.9307L41.4904 56.6446ZM43.0094 53.6184L42.9103 54.9216H41.4904L41.6041 53.6184H43.0094Z"/><path fill="#903938" d="M45.664 62.1606L45.5911 63.2073C45.5532 63.6184 45.4541 63.9799 45.2908 64.2976C45.1392 64.6213 44.8943 64.942 44.5591 65.2568L44.0576 64.8399C44.4599 64.4201 44.699 64.0149 44.7748 63.6213H44.0868L44.2005 62.1606H45.664Z"/><path fill="#903938" d="M54.3264 63.7231C53.6763 63.7231 53.102 63.5831 52.6063 63.3062C52.1195 63.0292 51.7404 62.6385 51.4751 62.1312C51.2186 61.6152 51.0874 61.0234 51.0874 60.3528C51.0874 59.5686 51.2302 58.8864 51.516 58.3033C51.8017 57.7202 52.2128 57.2712 52.7492 56.9564C53.2827 56.6327 53.9154 56.4695 54.6413 56.4695C55.1486 56.4695 55.6151 56.5511 56.0465 56.7144C56.4868 56.8776 56.8629 57.1021 57.1777 57.3878L56.7346 58.2479C56.3818 57.9709 56.0378 57.7698 55.7025 57.6473C55.3672 57.5132 55.0145 57.4461 54.6413 57.4461C53.895 57.4461 53.3177 57.7027 52.9066 58.2187C52.4956 58.7348 52.2915 59.452 52.2915 60.3674C52.2915 61.1225 52.4781 61.7085 52.8512 62.1312C53.2244 62.5511 53.7492 62.761 54.4285 62.761C54.79 62.761 55.1311 62.6998 55.446 62.5744C55.7608 62.4403 56.0903 62.2362 56.4343 61.9592L56.7637 62.8193C56.4576 63.105 56.0903 63.3295 55.6588 63.4927C55.239 63.6473 54.7929 63.7231 54.3264 63.7231Z"/><path fill="#903938" d="M64.5099 56.6444L63.9647 63.6239H62.8335L62.9181 62.4928C62.679 62.8834 62.3583 63.1895 61.9589 63.4111C61.5566 63.621 61.1076 63.726 60.612 63.726C59.8394 63.726 59.2505 63.5248 58.8481 63.1254C58.4458 62.7143 58.2476 62.1167 58.2476 61.3353C58.2476 61.1633 58.2534 61.035 58.2621 60.9476L58.6062 56.6473H59.7665L59.4225 60.8747C59.4137 60.9418 59.4079 61.0409 59.4079 61.175C59.4079 62.2245 59.9094 62.7522 60.9123 62.7522C61.5332 62.7522 62.0289 62.5598 62.402 62.1779C62.7752 61.796 62.9851 61.2654 63.0318 60.5861L63.3466 56.6444H64.5099Z"/><path fill="#903938" d="M70.0929 56.4727C70.8771 56.4727 71.4719 56.6767 71.8829 57.0878C72.294 57.4989 72.4981 58.0965 72.4981 58.8779C72.4981 59.0499 72.4923 59.1782 72.4835 59.2656L72.1395 63.6213H70.9792L71.3232 59.3356C71.3319 59.2686 71.3378 59.1694 71.3378 59.0353C71.3378 57.9741 70.8276 57.4435 69.8043 57.4435C69.1541 57.4435 68.6381 57.6388 68.2562 58.0324C67.8742 58.4143 67.6556 58.9449 67.5973 59.6242L67.2824 63.6213H66.1221L66.6818 56.6418H67.813L67.7285 57.7175C67.9675 57.3269 68.2911 57.0208 68.7022 56.7992C69.1133 56.5805 69.5768 56.4727 70.0929 56.4727Z"/><path fill="#903938" d="M81.0608 56.6446L80.5448 63.1226C80.3728 65.2451 79.2649 66.3034 77.2212 66.3034C76.0375 66.3034 75.0055 65.9885 74.125 65.3588L74.5682 64.4987C75.0463 64.8136 75.4865 65.0352 75.8859 65.1576C76.2883 65.2917 76.7372 65.3588 77.2329 65.3588C78.571 65.3588 79.2911 64.6416 79.3961 63.2101L79.4807 62.1926C79.2503 62.5745 78.9325 62.8748 78.5215 63.0964C78.1104 63.3063 77.6585 63.4113 77.16 63.4113C76.2416 63.4113 75.5069 63.1197 74.953 62.5366C74.4078 61.9536 74.1367 61.1751 74.1367 60.2014C74.1367 59.4754 74.2708 58.8311 74.539 58.2655C74.816 57.7029 75.2037 57.2626 75.6993 56.9478C76.1979 56.6329 76.7751 56.4755 77.434 56.4755C77.988 56.4755 78.4719 56.595 78.8801 56.8341C79.2911 57.0731 79.6031 57.4084 79.813 57.837L79.8976 56.6475H81.0608V56.6446ZM77.4194 62.4463C78.1162 62.4463 78.6614 62.2014 79.0521 61.7145C79.4544 61.2276 79.6527 60.5571 79.6527 59.7087C79.6527 58.9827 79.4661 58.423 79.0929 58.0323C78.7314 57.63 78.2154 57.4317 77.5448 57.4317C76.848 57.4317 76.297 57.6795 75.8976 58.1781C75.5069 58.6649 75.3087 59.3384 75.3087 60.1985C75.3087 60.9244 75.4894 61.4842 75.8539 61.8748C76.2212 62.2568 76.7431 62.4463 77.4194 62.4463Z"/><path fill="#903938" d="M89.4539 63.7231C88.8037 63.7231 88.2323 63.5831 87.7338 63.3062C87.2469 63.0292 86.8708 62.6385 86.6026 62.1312C86.346 61.6152 86.2148 61.0234 86.2148 60.3528C86.2148 59.5686 86.3577 58.8864 86.6434 58.3033C86.9291 57.7202 87.3402 57.2712 87.8766 56.9564C88.4131 56.6327 89.0428 56.4695 89.7687 56.4695C90.276 56.4695 90.7425 56.5511 91.174 56.7144C91.6142 56.8776 91.9903 57.1021 92.3052 57.3878L91.862 58.2479C91.5093 57.9709 91.1652 57.7698 90.83 57.6473C90.4947 57.5132 90.1419 57.4461 89.7687 57.4461C89.0224 57.4461 88.4451 57.7027 88.0341 58.2187C87.623 58.7348 87.4189 59.452 87.4189 60.3674C87.4189 61.1225 87.6055 61.7085 87.9787 62.1312C88.3518 62.5511 88.8766 62.761 89.5559 62.761C89.9204 62.761 90.2585 62.6998 90.5734 62.5744C90.8883 62.4403 91.2177 62.2362 91.5617 61.9592L91.8912 62.8193C91.5851 63.105 91.2177 63.3295 90.7862 63.4927C90.3664 63.6473 89.9233 63.7231 89.4539 63.7231Z"/><path fill="#903938" d="M96.5706 56.4725C98.2237 56.4725 99.0487 57.2655 99.0487 58.8515C99.0487 59.0235 99.0429 59.1576 99.0342 59.2538L98.6901 63.624H97.559L97.6435 62.5074C97.4336 62.9097 97.1421 63.2159 96.7689 63.4258C96.4045 63.6269 95.9905 63.7261 95.5211 63.7261C94.8243 63.7261 94.25 63.5395 93.801 63.1663C93.3607 62.7844 93.1421 62.3004 93.1421 61.7202C93.1421 61.1955 93.2791 60.7786 93.559 60.4724C93.836 60.1576 94.2791 59.9273 94.8913 59.7844C95.5036 59.6415 96.3287 59.5686 97.3695 59.5686H97.8855L97.9146 59.1517L97.9292 58.8806C97.9292 58.385 97.8097 58.0206 97.5706 57.7902C97.3316 57.5512 96.9555 57.4316 96.4394 57.4316C95.6552 57.4316 94.868 57.6795 94.075 58.178L93.7602 57.3179C94.1129 57.0701 94.5473 56.869 95.0633 56.7174C95.5823 56.5512 96.0838 56.4725 96.5706 56.4725ZM95.7689 62.8048C96.3141 62.8048 96.7776 62.6124 97.1595 62.2304C97.5415 61.8485 97.7514 61.3558 97.7893 60.7552L97.8184 60.3121H97.4161C96.5765 60.3121 95.9292 60.3587 95.4803 60.4549C95.04 60.5395 94.7339 60.6736 94.5619 60.8573C94.3986 61.038 94.317 61.2917 94.317 61.6182C94.317 61.9826 94.4453 62.2713 94.7048 62.4928C94.9671 62.6998 95.3199 62.8048 95.7689 62.8048ZM98.0196 54.2509L99.454 52.2159H100.731L98.7251 54.2509H98.0196ZM94.594 55.7261L96.4715 53.6183H97.2441L98.7776 55.7261H97.7601L96.8272 54.3063L95.6523 55.7261H94.594Z"/><path fill="#903938" d="M104.742 56.4727C105.326 56.4727 105.842 56.6126 106.291 56.8896C106.74 57.1665 107.089 57.563 107.337 58.0791C107.585 58.5863 107.71 59.1782 107.71 59.8575C107.71 60.6213 107.57 61.3006 107.293 61.8924C107.025 62.4755 106.643 62.9303 106.148 63.2539C105.649 63.5688 105.078 63.7262 104.428 63.7262C103.882 63.7262 103.404 63.6125 102.993 63.3822C102.591 63.1432 102.288 62.8137 102.075 62.3939L101.775 66.2073H100.614L101.361 56.6476H102.521L102.436 57.7088C102.667 57.3269 102.984 57.0266 103.396 56.805C103.807 56.5834 104.256 56.4727 104.742 56.4727ZM104.329 62.7642C105.008 62.7642 105.541 62.5076 105.935 61.9916C106.326 61.4755 106.524 60.7642 106.524 59.8575C106.524 59.0936 106.343 58.5018 105.979 58.0791C105.617 57.6505 105.104 57.4348 104.445 57.4348C103.757 57.4348 103.218 57.6971 102.827 58.2219C102.436 58.7379 102.238 59.4493 102.238 60.356C102.238 61.1403 102.416 61.7379 102.769 62.1461C103.127 62.5572 103.649 62.7642 104.329 62.7642Z"/><path fill="#903938" d="M114.603 61.0992C114.594 61.1662 114.588 61.2566 114.588 61.3703C114.588 62.3149 115.055 62.7901 115.994 62.7901C116.224 62.7901 116.434 62.7697 116.623 62.7318L116.495 63.6502C116.294 63.6968 116.069 63.723 115.822 63.723C115.049 63.723 114.454 63.5277 114.043 63.1341C113.632 62.7435 113.428 62.1895 113.428 61.4723C113.428 61.3382 113.434 61.2333 113.443 61.1575L113.728 57.5598H112.367L112.425 56.6415H113.787L113.959 54.519H115.119L114.947 56.6415H116.938L116.865 57.5598H114.874L114.603 61.0992Z"/><path fill="#903938" d="M121.693 56.4724C122.477 56.4724 123.072 56.6764 123.483 57.0875C123.894 57.4986 124.098 58.0962 124.098 58.8776C124.098 59.0496 124.092 59.1779 124.084 59.2653L123.74 63.621H122.579L122.923 59.3353C122.932 59.2682 122.938 59.1691 122.938 59.035C122.938 57.9738 122.428 57.4432 121.404 57.4432C120.754 57.4432 120.238 57.6385 119.856 58.0321C119.474 58.414 119.256 58.9446 119.197 59.6239L118.883 63.621H117.722L118.524 53.5161H119.684L119.34 57.6852C119.588 57.2945 119.915 56.9913 120.314 56.7814C120.728 56.5773 121.189 56.4724 121.693 56.4724Z"/><path fill="#903938" d="M128.964 63.7231C128.314 63.7231 127.74 63.5831 127.244 63.3062C126.757 63.0292 126.378 62.6385 126.113 62.1313C125.856 61.6152 125.725 61.0176 125.725 60.3412C125.725 59.5686 125.862 58.8893 126.142 58.3062C126.428 57.7231 126.824 57.2742 127.332 56.9593C127.848 56.6357 128.445 56.4724 129.122 56.4724C129.78 56.4724 130.355 56.6124 130.842 56.8893C131.329 57.1663 131.705 57.5628 131.973 58.0788C132.241 58.5949 132.375 59.1925 132.375 59.8689C132.375 60.6415 132.232 61.3208 131.947 61.9039C131.67 62.4869 131.273 62.9359 130.757 63.2508C130.241 63.5657 129.643 63.7231 128.964 63.7231ZM128.979 62.7639C129.676 62.7639 130.215 62.5015 130.597 61.9767C130.987 61.452 131.186 60.7348 131.186 59.8281C131.186 59.0642 131.005 58.4753 130.641 58.0642C130.288 57.6444 129.78 57.4345 129.122 57.4345C128.425 57.4345 127.88 57.7027 127.489 58.2363C127.095 58.7727 126.9 59.487 126.9 60.3849C126.9 61.1575 127.078 61.7523 127.431 62.1633C127.783 62.5628 128.299 62.7639 128.979 62.7639ZM127.288 55.7261L129.209 52.8311H130.025L131.471 55.7261H130.439L129.55 53.6765L128.375 55.7261H127.288Z"/><path fill="#903938" d="M137.789 56.4727C138.573 56.4727 139.168 56.6767 139.579 57.0878C139.99 57.4989 140.194 58.0965 140.194 58.8779C140.194 59.0499 140.189 59.1782 140.18 59.2656L139.836 63.6213H138.675L139.019 59.3356C139.028 59.2686 139.034 59.1694 139.034 59.0353C139.034 57.9741 138.524 57.4435 137.501 57.4435C136.85 57.4435 136.334 57.6388 135.952 58.0324C135.571 58.4143 135.352 58.9449 135.294 59.6242L134.979 63.6213H133.818L134.378 56.6418H135.509L135.425 57.7175C135.664 57.3269 135.987 57.0208 136.399 56.7992C136.81 56.5805 137.273 56.4727 137.789 56.4727Z"/><path fill="#903938" d="M148.757 56.6446L148.241 63.1226C148.069 65.2451 146.961 66.3034 144.917 66.3034C143.734 66.3034 142.702 65.9885 141.821 65.3588L142.264 64.4987C142.743 64.8136 143.183 65.0352 143.582 65.1576C143.985 65.2917 144.434 65.3588 144.929 65.3588C146.267 65.3588 146.987 64.6416 147.092 63.2101L147.177 62.1926C146.947 62.5745 146.626 62.8748 146.218 63.0964C145.807 63.3063 145.352 63.4113 144.856 63.4113C143.938 63.4113 143.203 63.1197 142.649 62.5366C142.104 61.9536 141.833 61.1751 141.833 60.2014C141.833 59.4754 141.967 58.8311 142.235 58.2655C142.512 57.7029 142.9 57.2626 143.396 56.9478C143.891 56.6329 144.471 56.4755 145.13 56.4755C145.684 56.4755 146.165 56.595 146.576 56.8341C146.987 57.0731 147.296 57.4084 147.509 57.837L147.594 56.6475H148.757V56.6446ZM145.119 62.4463C145.815 62.4463 146.361 62.2014 146.751 61.7145C147.154 61.2276 147.352 60.5571 147.352 59.7087C147.352 58.9827 147.165 58.423 146.792 58.0323C146.428 57.63 145.912 57.4317 145.244 57.4317C144.547 57.4317 143.996 57.6795 143.597 58.1781C143.203 58.6649 143.008 59.3384 143.008 60.1985C143.008 60.9244 143.189 61.4842 143.553 61.8748C143.917 62.2568 144.439 62.4463 145.119 62.4463Z"/><path fill="#903938" d="M155.806 61.0992C155.798 61.1662 155.792 61.2566 155.792 61.3703C155.792 62.3149 156.258 62.7901 157.197 62.7901C157.427 62.7901 157.637 62.7697 157.827 62.7318L157.699 63.6502C157.497 63.6968 157.273 63.723 157.025 63.723C156.252 63.723 155.658 63.5277 155.247 63.1341C154.836 62.7435 154.632 62.1895 154.632 61.4723C154.632 61.3382 154.637 61.2333 154.646 61.1575L154.932 57.5598H153.57L153.629 56.6415H154.99L155.162 54.519H156.322L156.15 56.6415H158.142L158.069 57.5598H156.078L155.806 61.0992Z"/><path fill="#903938" d="M159.486 56.6446H160.646L160.086 63.6241H158.926L159.486 56.6446ZM161.004 53.6184L160.905 54.9216H159.486L159.599 53.6184H161.004Z"/><path fill="#903938" d="M166.229 56.4727C167.013 56.4727 167.608 56.6767 168.019 57.0878C168.43 57.4989 168.634 58.0965 168.634 58.8779C168.634 59.0499 168.629 59.1782 168.62 59.2656L168.276 63.6213H167.115L167.459 59.3356C167.468 59.2686 167.474 59.1694 167.474 59.0353C167.474 57.9741 166.964 57.4435 165.94 57.4435C165.29 57.4435 164.774 57.6388 164.392 58.0324C164.01 58.4143 163.792 58.9449 163.734 59.6242L163.419 63.6213H162.258L162.818 56.6418H163.949L163.865 57.7175C164.104 57.3269 164.427 57.0208 164.838 56.7992C165.25 56.5805 165.713 56.4727 166.229 56.4727Z"/><path fill="#903938" d="M180.807 56.6588L177.253 63.6238H176.162L173.71 56.6588H174.9L176.807 62.3497L179.614 56.6588H180.807Z"/><path fill="#903938" d="M184.689 56.4724C186.342 56.4724 187.167 57.2654 187.167 58.8514C187.167 59.0234 187.162 59.1575 187.153 59.2537L186.809 63.624H185.678L185.762 62.5074C185.552 62.9097 185.261 63.2158 184.888 63.4257C184.523 63.6269 184.109 63.726 183.64 63.726C182.943 63.726 182.369 63.5394 181.92 63.1662C181.479 62.7843 181.261 62.3004 181.261 61.7202C181.261 61.1954 181.398 60.7785 181.678 60.4724C181.955 60.1575 182.398 59.9272 183.01 59.7843C183.622 59.6415 184.447 59.5686 185.488 59.5686H186.004L186.033 59.1517L186.048 58.8806C186.048 58.3849 185.928 58.0205 185.689 57.7902C185.45 57.5511 185.074 57.4316 184.558 57.4316C183.774 57.4316 182.987 57.6794 182.194 58.1779L181.879 57.3179C182.232 57.0701 182.666 56.8689 183.182 56.7173C183.698 56.5511 184.199 56.4724 184.689 56.4724ZM183.885 62.8047C184.43 62.8047 184.893 62.6123 185.275 62.2304C185.657 61.8485 185.867 61.3558 185.905 60.7552L185.934 60.312H185.532C184.692 60.312 184.045 60.3587 183.596 60.4549C183.156 60.5394 182.85 60.6736 182.678 60.8572C182.514 61.038 182.433 61.2916 182.433 61.6181C182.433 61.9826 182.561 62.2712 182.82 62.4928C183.083 62.6998 183.436 62.8047 183.885 62.8047ZM182.724 52.8311H183.972L185.205 55.7261H184.404L182.724 52.8311Z"/><path fill="#903938" d="M199.608 53.519L198.806 63.6239H197.661L197.745 62.5335C197.506 62.9067 197.183 63.1982 196.772 63.4082C196.369 63.6181 195.932 63.723 195.454 63.723C194.871 63.723 194.355 63.5889 193.906 63.3207C193.457 63.0437 193.107 62.6531 192.859 62.1458C192.611 61.6385 192.486 61.0467 192.486 60.3674C192.486 59.5948 192.62 58.9155 192.888 58.3324C193.165 57.7406 193.553 57.2828 194.049 56.9563C194.547 56.6327 195.118 56.4694 195.769 56.4694C196.314 56.4694 196.786 56.589 197.188 56.828C197.6 57.0671 197.906 57.3965 198.107 57.8164L198.451 53.5161H199.608V53.519ZM195.754 62.7638C196.442 62.7638 196.981 62.5073 197.372 61.9913C197.763 61.4665 197.961 60.7551 197.961 59.8572C197.961 59.0729 197.78 58.4753 197.416 58.0671C197.063 57.6473 196.547 57.4374 195.868 57.4374C195.188 57.4374 194.649 57.6939 194.25 58.21C193.859 58.726 193.661 59.4315 193.661 60.3324C193.661 61.105 193.842 61.7085 194.206 62.137C194.579 62.5539 195.095 62.7638 195.754 62.7638Z"/><path fill="#903938" d="M201.53 56.6446H202.69L202.13 63.6241H200.97L201.53 56.6446ZM203.048 53.6184L202.949 54.9216H201.53L201.643 53.6184H203.048ZM202.104 64.9711L201.99 66.2335H200.672L200.786 64.9711H202.104Z"/><path fill="#903938" d="M207.398 63.7231C206.748 63.7231 206.176 63.5831 205.678 63.3062C205.191 63.0292 204.815 62.6385 204.546 62.1312C204.29 61.6152 204.159 61.0234 204.159 60.3528C204.159 59.5686 204.302 58.8864 204.587 58.3033C204.873 57.7202 205.284 57.2712 205.82 56.9564C206.357 56.6327 206.987 56.4695 207.713 56.4695C208.22 56.4695 208.686 56.5511 209.118 56.7144C209.558 56.8776 209.934 57.1021 210.249 57.3878L209.806 58.2479C209.453 57.9709 209.109 57.7698 208.774 57.6473C208.439 57.5132 208.086 57.4461 207.713 57.4461C206.966 57.4461 206.389 57.7027 205.978 58.2187C205.567 58.7348 205.363 59.452 205.363 60.3674C205.363 61.1225 205.549 61.7085 205.923 62.1312C206.296 62.5511 206.82 62.761 207.5 62.761C207.864 62.761 208.202 62.6998 208.517 62.5744C208.832 62.4403 209.162 62.2362 209.506 61.9592L209.835 62.8193C209.529 63.105 209.162 63.3295 208.73 63.4927C208.31 63.6473 207.864 63.7231 207.398 63.7231Z"/><path fill="#903938" d="M215.13 56.4724C215.914 56.4724 216.509 56.6764 216.92 57.0875C217.331 57.4986 217.535 58.0962 217.535 58.8776C217.535 59.0496 217.529 59.1779 217.52 59.2653L217.176 63.621H216.016L216.36 59.3353C216.369 59.2682 216.374 59.1691 216.374 59.035C216.374 57.9738 215.864 57.4432 214.841 57.4432C214.191 57.4432 213.675 57.6385 213.293 58.0321C212.911 58.414 212.692 58.9446 212.634 59.6239L212.319 63.621H211.159L211.96 53.5161H213.121L212.777 57.6852C213.025 57.2945 213.351 56.9913 213.751 56.7814C214.165 56.5773 214.622 56.4724 215.13 56.4724Z"/><path fill="#903938" d="M229.707 56.6588L226.153 63.6238H225.062L222.61 56.6588H223.8L225.707 62.3497L228.517 56.6588H229.707Z"/><path fill="#903938" d="M236.782 56.6444L236.237 63.6239H235.106L235.193 62.4928C234.954 62.8834 234.634 63.1895 234.234 63.4111C233.832 63.621 233.383 63.726 232.887 63.726C232.115 63.726 231.526 63.5248 231.124 63.1254C230.721 62.7143 230.523 62.1167 230.523 61.3353C230.523 61.1633 230.529 61.035 230.538 60.9476L230.882 56.6473H232.042L231.698 60.8747C231.689 60.9418 231.683 61.0409 231.683 61.175C231.683 62.2245 232.185 62.7522 233.188 62.7522C233.809 62.7522 234.304 62.5598 234.677 62.1779C235.051 61.796 235.261 61.2654 235.307 60.5861L235.622 56.6444H236.782ZM233.858 64.9709L233.745 66.2333H232.427L232.54 64.9709H233.858Z"/><path fill="#903938" d="M245.184 63.7231C244.534 63.7231 243.96 63.5831 243.464 63.3062C242.977 63.0292 242.598 62.6385 242.333 62.1312C242.076 61.6152 241.945 61.0234 241.945 60.3528C241.945 59.5686 242.088 58.8864 242.374 58.3033C242.66 57.7202 243.071 57.2712 243.607 56.9564C244.141 56.6327 244.773 56.4695 245.499 56.4695C246.006 56.4695 246.473 56.5511 246.904 56.7144C247.345 56.8776 247.721 57.1021 248.036 57.3878L247.592 58.2479C247.24 57.9709 246.896 57.7698 246.56 57.6473C246.225 57.5132 245.872 57.4461 245.499 57.4461C244.753 57.4461 244.176 57.7027 243.765 58.2187C243.353 58.7348 243.149 59.452 243.149 60.3674C243.149 61.1225 243.336 61.7085 243.709 62.1312C244.082 62.5511 244.607 62.761 245.286 62.761C245.648 62.761 245.989 62.6998 246.304 62.5744C246.619 62.4403 246.948 62.2362 247.292 61.9592L247.622 62.8193C247.316 63.105 246.948 63.3295 246.517 63.4927C246.097 63.6473 245.654 63.7231 245.184 63.7231Z"/><path fill="#903938" d="M252.042 63.7231C251.392 63.7231 250.82 63.5831 250.322 63.3062C249.835 63.0292 249.459 62.6385 249.19 62.1313C248.934 61.6152 248.803 61.0176 248.803 60.3412C248.803 59.5686 248.943 58.8893 249.22 58.3062C249.505 57.7231 249.902 57.2742 250.409 56.9593C250.925 56.6357 251.523 56.4724 252.199 56.4724C252.858 56.4724 253.432 56.6124 253.919 56.8893C254.406 57.1663 254.782 57.5628 255.05 58.0788C255.319 58.5949 255.453 59.1925 255.453 59.8689C255.453 60.6415 255.31 61.3208 255.024 61.9039C254.747 62.4869 254.351 62.9359 253.835 63.2508C253.319 63.5657 252.721 63.7231 252.042 63.7231ZM252.056 62.7639C252.753 62.7639 253.292 62.5015 253.674 61.9767C254.065 61.452 254.263 60.7348 254.263 59.8281C254.263 59.0642 254.083 58.4753 253.718 58.0642C253.365 57.6444 252.858 57.4345 252.199 57.4345C251.502 57.4345 250.957 57.7027 250.567 58.2363C250.176 58.7727 249.978 59.487 249.978 60.3849C249.978 61.1575 250.155 61.7523 250.508 62.1633C250.864 62.5628 251.38 62.7639 252.056 62.7639ZM250.365 55.7261L252.287 52.8311H253.103L254.549 55.7261H253.517L252.628 53.6765L251.453 55.7261H250.365Z"/><path fill="#903938" d="M260.867 56.4727C261.651 56.4727 262.246 56.6767 262.657 57.0878C263.068 57.4989 263.272 58.0965 263.272 58.8779C263.272 59.0499 263.266 59.1782 263.257 59.2656L262.913 63.6213H261.753L262.097 59.3356C262.106 59.2686 262.112 59.1694 262.112 59.0353C262.112 57.9741 261.601 57.4435 260.578 57.4435C259.928 57.4435 259.412 57.6388 259.03 58.0324C258.648 58.4143 258.43 58.9449 258.371 59.6242L258.056 63.6213H256.896L257.456 56.6418H258.587L258.499 57.7175C258.739 57.3269 259.062 57.0208 259.473 56.7992C259.887 56.5805 260.351 56.4727 260.867 56.4727Z"/><path fill="#903938" d="M271.835 56.6446L271.319 63.1226C271.147 65.2451 270.039 66.3034 267.995 66.3034C266.811 66.3034 265.779 65.9885 264.899 65.3588L265.342 64.4987C265.82 64.8136 266.26 65.0352 266.66 65.1576C267.062 65.2917 267.511 65.3588 268.007 65.3588C269.345 65.3588 270.065 64.6416 270.17 63.2101L270.257 62.1926C270.027 62.5745 269.706 62.8748 269.298 63.0964C268.887 63.3063 268.432 63.4113 267.937 63.4113C267.018 63.4113 266.284 63.1197 265.73 62.5366C265.185 61.9536 264.913 61.1751 264.913 60.2014C264.913 59.4754 265.048 58.8311 265.316 58.2655C265.593 57.7029 265.981 57.2626 266.476 56.9478C266.972 56.6329 267.552 56.4755 268.211 56.4755C268.765 56.4755 269.246 56.595 269.657 56.8341C270.068 57.0731 270.377 57.4084 270.59 57.837L270.674 56.6475H271.835V56.6446ZM268.196 62.4463C268.893 62.4463 269.438 62.2014 269.829 61.7145C270.231 61.2276 270.429 60.5571 270.429 59.7087C270.429 58.9827 270.243 58.423 269.87 58.0323C269.505 57.63 268.989 57.4317 268.322 57.4317C267.625 57.4317 267.074 57.6795 266.674 58.1781C266.281 58.6649 266.085 59.3384 266.085 60.1985C266.085 60.9244 266.266 61.4842 266.631 61.8748C266.995 62.2568 267.517 62.4463 268.196 62.4463Z"/><path fill="#903938" d="M285.376 56.4727C286.102 56.4727 286.653 56.6767 287.023 57.0878C287.396 57.4901 287.583 58.0761 287.583 58.8516C287.583 59.0324 287.577 59.1723 287.568 59.2686L287.224 63.6242H286.064L286.408 59.3239C286.417 59.2481 286.422 59.1315 286.422 58.9799C286.422 58.4551 286.309 58.0674 286.078 57.8196C285.857 57.5718 285.519 57.4464 285.061 57.4464C284.478 57.4464 284.014 57.6388 283.67 58.0207C283.326 58.4027 283.131 58.9479 283.081 59.6534L282.766 63.6242H281.606L281.95 59.3239C281.959 59.2481 281.965 59.1315 281.965 58.9799C281.965 58.4551 281.851 58.0674 281.621 57.8196C281.399 57.5718 281.061 57.4464 280.603 57.4464C280.02 57.4464 279.557 57.6388 279.213 58.0207C278.868 58.4027 278.667 58.9479 278.612 59.6534L278.297 63.6242H277.137L277.696 56.6592H278.828L278.743 57.6767C279.221 56.875 279.95 56.4727 280.936 56.4727C281.469 56.4727 281.909 56.5864 282.253 56.8167C282.606 57.0353 282.854 57.3619 283 57.7904C283.239 57.3706 283.562 57.0441 283.973 56.8167C284.382 56.5864 284.848 56.4727 285.376 56.4727Z"/><path fill="#903938" d="M292.434 63.7233C291.784 63.7233 291.21 63.5834 290.714 63.3064C290.227 63.0295 289.848 62.6388 289.583 62.1315C289.326 61.6155 289.195 61.0178 289.195 60.3414C289.195 59.5688 289.332 58.8895 289.612 58.3065C289.898 57.7234 290.294 57.2744 290.802 56.9595C291.318 56.6359 291.915 56.4727 292.592 56.4727C293.251 56.4727 293.825 56.6126 294.312 56.8896C294.799 57.1665 295.175 57.563 295.443 58.0791C295.711 58.5951 295.845 59.1927 295.845 59.8691C295.845 60.6417 295.703 61.321 295.417 61.9041C295.14 62.4872 294.743 62.9362 294.227 63.251C293.708 63.5659 293.114 63.7233 292.434 63.7233ZM292.449 62.7642C293.146 62.7642 293.685 62.5018 294.067 61.977C294.458 61.4522 294.656 60.735 294.656 59.8283C294.656 59.0645 294.475 58.4756 294.111 58.0645C293.758 57.6447 293.251 57.4348 292.592 57.4348C291.895 57.4348 291.35 57.703 290.959 58.2365C290.566 58.7729 290.37 59.4872 290.37 60.3852C290.37 61.1578 290.548 61.7525 290.901 62.1636C291.254 62.563 291.77 62.7642 292.449 62.7642ZM292.793 64.9711L292.679 66.2335H291.361L291.475 64.9711H292.793Z"/><path fill="#903938" d="M297.849 56.6446H299.009L298.449 63.6241H297.289L297.849 56.6446ZM299.368 53.6184L299.269 54.9216H297.849L297.963 53.6184H299.368Z"/><path fill="#903938" d="M305.118 53.5188H306.278L305.473 63.6237H304.313L305.118 53.5188Z"/><path fill="#903938" d="M314.065 56.6444L313.519 63.624H312.388L312.473 62.4928C312.234 62.8834 311.913 63.1896 311.514 63.4111C311.111 63.6211 310.662 63.726 310.167 63.726C309.394 63.726 308.805 63.5248 308.403 63.1254C308 62.7144 307.802 62.1167 307.802 61.3354C307.802 61.1633 307.808 61.0351 307.817 60.9476L308.161 56.6473H309.321L308.977 60.8747C308.968 60.9418 308.963 61.0409 308.963 61.175C308.963 62.2246 309.464 62.7523 310.467 62.7523C311.088 62.7523 311.584 62.5598 311.957 62.1779C312.33 61.796 312.54 61.2654 312.586 60.5861L312.901 56.6444H314.065ZM310.799 55.7261L312.417 52.8311H313.808L311.601 55.7261H310.799Z"/><path fill="#903938" d="M318.776 63.7231C318.126 63.7231 317.555 63.5831 317.056 63.3062C316.569 63.0292 316.193 62.6385 315.925 62.1312C315.668 61.6152 315.537 61.0234 315.537 60.3528C315.537 59.5686 315.68 58.8864 315.966 58.3033C316.251 57.7202 316.662 57.2712 317.199 56.9564C317.732 56.6327 318.365 56.4695 319.091 56.4695C319.598 56.4695 320.065 56.5511 320.496 56.7144C320.936 56.8776 321.313 57.1021 321.627 57.3878L321.184 58.2479C320.832 57.9709 320.488 57.7698 320.152 57.6473C319.817 57.5132 319.464 57.4461 319.091 57.4461C318.345 57.4461 317.767 57.7027 317.356 58.2187C316.945 58.7348 316.741 59.452 316.741 60.3674C316.741 61.1225 316.928 61.7085 317.301 62.1312C317.674 62.5511 318.199 62.761 318.878 62.761C319.24 62.761 319.581 62.6998 319.896 62.5744C320.211 62.4403 320.54 62.2362 320.884 61.9592L321.213 62.8193C320.907 63.105 320.54 63.3295 320.109 63.4927C319.689 63.6473 319.243 63.7231 318.776 63.7231Z"/><path fill="#903938" d="M324.082 62.1606L324.013 63.2073C323.975 63.6184 323.873 63.9799 323.712 64.2976C323.558 64.6213 323.316 64.942 322.98 65.2568L322.479 64.8399C322.881 64.4201 323.12 64.0149 323.196 63.6213H322.508L322.622 62.1606H324.082Z"/><path fill="#903938" d="M337.886 56.4727C338.612 56.4727 339.163 56.6767 339.534 57.0878C339.907 57.4901 340.093 58.0761 340.093 58.8516C340.093 59.0324 340.088 59.1723 340.079 59.2686L339.735 63.6242H338.574L338.919 59.3239C338.927 59.2481 338.933 59.1315 338.933 58.9799C338.933 58.4551 338.819 58.0674 338.589 57.8196C338.368 57.5718 338.029 57.4464 337.572 57.4464C336.989 57.4464 336.525 57.6388 336.181 58.0207C335.837 58.4027 335.642 58.9479 335.592 59.6534L335.277 63.6242H334.117L334.461 59.3239C334.47 59.2481 334.475 59.1315 334.475 58.9799C334.475 58.4551 334.362 58.0674 334.131 57.8196C333.91 57.5718 333.572 57.4464 333.114 57.4464C332.531 57.4464 332.067 57.6388 331.723 58.0207C331.379 58.4027 331.178 58.9479 331.123 59.6534L330.808 63.6242H329.647L330.207 56.6592H331.338L331.254 57.6767C331.732 56.875 332.461 56.4727 333.446 56.4727C333.98 56.4727 334.42 56.5864 334.764 56.8167C335.117 57.0353 335.365 57.3619 335.51 57.7904C335.749 57.3706 336.073 57.0441 336.484 56.8167C336.892 56.5864 337.362 56.4727 337.886 56.4727Z"/><path fill="#903938" d="M344.948 63.7233C344.297 63.7233 343.723 63.5834 343.227 63.3064C342.741 63.0295 342.362 62.6388 342.096 62.1315C341.84 61.6155 341.708 61.0178 341.708 60.3414C341.708 59.5688 341.846 58.8895 342.125 58.3065C342.411 57.7234 342.808 57.2744 343.315 56.9595C343.831 56.6359 344.429 56.4727 345.105 56.4727C345.764 56.4727 346.338 56.6126 346.825 56.8896C347.312 57.1665 347.688 57.563 347.956 58.0791C348.224 58.5951 348.359 59.1927 348.359 59.8691C348.359 60.6417 348.216 61.321 347.93 61.9041C347.653 62.4872 347.257 62.9362 346.741 63.251C346.222 63.5659 345.624 63.7233 344.948 63.7233ZM344.962 62.7642C345.659 62.7642 346.198 62.5018 346.58 61.977C346.971 61.4522 347.169 60.735 347.169 59.8283C347.169 59.0645 346.988 58.4756 346.624 58.0645C346.271 57.6447 345.764 57.4348 345.105 57.4348C344.408 57.4348 343.863 57.703 343.472 58.2365C343.079 58.7729 342.883 59.4872 342.883 60.3852C342.883 61.1578 343.061 61.7525 343.414 62.1636C343.767 62.563 344.283 62.7642 344.962 62.7642ZM345.306 64.9711L345.192 66.2335H343.875L343.988 64.9711H345.306Z"/><path fill="#903938" d="M350.359 56.6446H351.519L350.959 63.6241H349.799L350.359 56.6446ZM351.878 53.6184L351.778 54.9216H350.359L350.472 53.6184H351.878Z"/><path fill="#903938" d="M360.796 56.4727C361.58 56.4727 362.175 56.6767 362.586 57.0878C362.997 57.4989 363.201 58.0965 363.201 58.8779C363.201 59.0499 363.195 59.1782 363.186 59.2656L362.842 63.6213H361.682L362.026 59.3356C362.035 59.2686 362.04 59.1694 362.04 59.0353C362.04 57.9741 361.53 57.4435 360.507 57.4435C359.857 57.4435 359.341 57.6388 358.959 58.0324C358.577 58.4143 358.358 58.9449 358.3 59.6242L357.985 63.6213H356.825L357.384 56.6418H358.516L358.428 57.7175C358.667 57.3269 358.994 57.0208 359.405 56.7992C359.816 56.5805 360.279 56.4727 360.796 56.4727Z"/><path fill="#903938" d="M371.906 55.1663C371.86 55.7027 371.705 56.1458 371.449 56.4986C371.201 56.8426 370.848 57.0759 370.387 57.2012C370.74 57.5073 371.008 57.8951 371.189 58.3616C371.382 58.831 371.475 59.3324 371.475 59.8659C371.475 60.6385 371.332 61.3178 371.046 61.9009C370.769 62.484 370.373 62.933 369.857 63.2478C369.341 63.5627 368.743 63.7201 368.067 63.7201C367.417 63.7201 366.845 63.5802 366.347 63.3032C365.86 63.0263 365.484 62.6356 365.215 62.1283C364.959 61.6123 364.828 61.0146 364.828 60.3382C364.828 59.5656 364.968 58.8863 365.245 58.3033C365.53 57.7202 365.933 57.2712 366.449 56.9563C366.965 56.6327 367.562 56.4695 368.239 56.4695C368.486 56.4695 368.763 56.4899 369.07 56.5278C369.233 56.5569 369.361 56.5715 369.457 56.5715C369.898 56.5715 370.23 56.452 370.46 56.2129C370.699 55.9738 370.839 55.5715 370.877 55.0088L370.892 54.7931H371.924L371.906 55.1663ZM368.081 62.7639C368.778 62.7639 369.32 62.5015 369.699 61.9767C370.093 61.4519 370.288 60.7347 370.288 59.828C370.288 59.0642 370.107 58.4753 369.743 58.0642C369.39 57.6444 368.883 57.4345 368.224 57.4345C367.527 57.4345 366.982 57.7027 366.591 58.2362C366.201 58.7726 366.003 59.4869 366.003 60.3849C366.003 61.1575 366.18 61.7522 366.533 62.1633C366.886 62.5627 367.402 62.7639 368.081 62.7639Z"/><path fill="#903938" d="M373.481 56.6446H374.641L374.082 63.6241H372.921L373.481 56.6446ZM375 53.6184L374.901 54.9216H373.481L373.595 53.6184H375Z"/><path fill="#903938" d="M65.5666 24.7764C65.0389 23.6103 64.1759 22.6249 63.0885 21.9485C62.001 21.2721 60.7386 20.9339 59.4559 20.9776C58.1264 20.9456 56.8203 21.3246 55.7124 22.0622C54.7037 22.7327 53.8932 23.6598 53.3655 24.7502C52.8466 25.8143 52.5784 26.9805 52.5784 28.1642C52.5696 29.3624 52.8087 30.549 53.2868 31.6481C53.762 32.7414 54.5434 33.6743 55.5346 34.3361C56.7008 35.0679 58.0623 35.4294 59.4413 35.374C60.7765 35.4148 62.0914 35.0358 63.2022 34.2895C64.2197 33.6131 65.036 32.6743 65.5666 31.5752C66.0797 30.5198 66.3508 29.3624 66.3538 28.1904C66.3421 27.0067 66.0739 25.8435 65.5666 24.7764ZM62.8815 31.1087C62.6716 31.8784 62.2721 32.581 61.7182 33.1525C61.4442 33.4236 61.1176 33.6364 60.759 33.7764C60.4004 33.9163 60.0156 33.9804 59.6308 33.9659C59.208 33.9834 58.7853 33.9105 58.3917 33.756C57.9981 33.6014 57.6395 33.3682 57.3393 33.0679C56.7328 32.4061 56.2955 31.6131 56.0594 30.7472C55.8028 29.8493 55.6687 28.9222 55.6658 27.9892C55.6658 27.1029 55.7853 26.2196 56.0244 25.3654C56.2256 24.5782 56.6337 23.8552 57.2081 23.2779C57.4821 23.0009 57.8086 22.7852 58.1701 22.6394C58.5317 22.4937 58.9165 22.4208 59.3042 22.4266C59.8961 22.4062 60.4792 22.5491 60.9952 22.8435C61.5083 23.1351 61.931 23.5665 62.2168 24.0855C62.9427 25.4616 63.2838 27.0097 63.2022 28.5636C63.2022 29.4236 63.0972 30.2779 62.8815 31.1087Z"/><path fill="#903938" d="M59.4155 18.6657L56.4593 20.0447L56.019 19.3187L59.3339 16.8727H59.6662L62.847 19.3187L62.328 20.0709L59.4155 18.6657Z"/><path fill="#903938" d="M61.8759 17.3682C61.8701 17.2195 61.9167 17.0738 62.01 16.9571C62.1295 16.8143 62.2608 16.6831 62.4036 16.5636C62.5552 16.4411 62.6922 16.3012 62.8147 16.1525C62.9138 16.0155 62.9634 15.8464 62.9575 15.6773C62.9634 15.5665 62.9488 15.4557 62.9109 15.3507C62.873 15.2458 62.8147 15.1496 62.7418 15.0679C62.5377 14.9397 62.3016 14.8668 62.0596 14.8551C61.8176 14.8435 61.5785 14.8959 61.3628 15.0067C61.2316 15.0942 61.1383 15.2283 61.1033 15.3828C61.1325 15.3974 61.1616 15.4207 61.182 15.4499C61.2025 15.479 61.2141 15.5111 61.2199 15.5461C61.2404 15.6277 61.2404 15.7152 61.2199 15.7968C61.2141 15.8609 61.1937 15.9222 61.1587 15.9776C61.1237 16.033 61.0771 16.0767 61.0217 16.1117C60.8439 16.2225 60.6369 16.272 60.4299 16.2545C60.3249 16.2633 60.22 16.2516 60.1237 16.2166C60.0246 16.1816 59.9342 16.1292 59.8584 16.0592C59.7389 15.8784 59.6835 15.6656 59.6981 15.4499C59.701 15.2195 59.7506 14.9921 59.8439 14.7822C59.9371 14.5723 60.0684 14.3799 60.2374 14.2225C60.4707 14.0242 60.7447 13.8726 61.0392 13.7793C61.3336 13.686 61.6427 13.651 61.9488 13.6773C62.5873 13.6394 63.217 13.8201 63.7389 14.1875C63.9517 14.3449 64.1237 14.5548 64.2403 14.7939C64.354 15.0359 64.4065 15.3012 64.3949 15.5665C64.4065 15.7881 64.3365 16.0038 64.1966 16.1758C64.0421 16.3711 63.8613 16.5432 63.6602 16.686C63.5144 16.8026 63.3774 16.928 63.2491 17.0621C63.2083 17.1029 63.1791 17.1525 63.1587 17.2079C63.1383 17.2603 63.1296 17.3187 63.1325 17.377H61.8759V17.3682Z"/><path fill="#903938" d="M72.1495 27.2194C71.8259 26.7996 71.4585 26.3243 71.0649 25.7413V31.8491C71.0708 32.4467 71.0445 33.0444 70.9833 33.6392C71.406 33.6042 71.8988 33.5867 72.4614 33.5867V35.0998H67.9833V33.782C68.2545 33.7791 68.5256 33.7383 68.7909 33.6654C68.9921 33.5663 69.1466 33.3972 69.2311 33.1902C69.3507 32.8257 69.4002 32.4438 69.3827 32.0619V24.5197C69.3653 23.922 69.3944 23.3215 69.4644 22.7296L67.9688 22.7821V21.2865H71.0591L77.0882 28.8899C77.6421 29.6159 78.0999 30.2427 78.4672 30.7616V24.4905C78.4672 23.5955 78.4672 23.0387 78.5314 22.7005L77.0532 22.7529V21.2836H81.5313V22.5809C81.2514 22.5839 80.9774 22.6305 80.715 22.7238C80.6159 22.7646 80.5284 22.8258 80.4526 22.9046C80.3797 22.9804 80.3214 23.0736 80.2835 23.1728C80.1553 23.5343 80.0998 23.9191 80.1232 24.301V35.2747H78.4468L72.1495 27.2194Z"/><path fill="#903938" d="M89.4462 35.3971C88.1925 35.435 86.9505 35.126 85.8631 34.5021C84.8718 33.8986 84.073 33.0298 83.5511 31.9948C83.0176 30.8782 82.7465 29.6508 82.764 28.4118C82.7581 27.1756 83.0205 25.9541 83.5337 24.8287C84.0409 23.7063 84.8456 22.7471 85.8631 22.0532C86.9709 21.3185 88.28 20.9454 89.6065 20.9862C90.2508 20.9949 90.8893 21.0795 91.5132 21.2369C92.1604 21.3768 92.7785 21.6188 93.3499 21.9541L93.2683 21.1203H94.7814V25.715H93.5015C93.3965 24.7762 92.9592 23.9104 92.2654 23.269C91.589 22.6888 90.7289 22.371 89.8368 22.3739C89.0292 22.3535 88.245 22.6363 87.6327 23.1611C87.003 23.7092 86.5307 24.4176 86.2712 25.2135C85.9593 26.0998 85.8077 27.0328 85.8135 27.9715C85.7465 29.4613 86.1255 30.9336 86.8981 32.2077C87.2188 32.7179 87.6707 33.1348 88.2013 33.4176C88.7348 33.7004 89.3295 33.8403 89.933 33.8199C90.417 33.8141 90.898 33.7703 91.3762 33.6858C91.8368 33.6216 92.2858 33.4875 92.7114 33.2922V31.5021C92.7027 30.9045 92.7289 30.3068 92.7931 29.712C92.452 29.712 92.1313 29.7558 91.8251 29.7558H91.3149V28.2514H96.554V29.5954C96.2945 29.5925 96.035 29.6362 95.793 29.7295C95.6939 29.7791 95.6035 29.8462 95.5306 29.9336C95.4578 30.0211 95.4024 30.1173 95.3703 30.2222C95.2653 30.5721 95.2187 30.9394 95.2362 31.3068V34.4584H94.761C94.4578 34.4613 94.1604 34.4934 93.8659 34.5575C93.5802 34.6304 93.2041 34.7266 92.7464 34.8724C92.0555 35.0706 91.4928 35.2222 91.0263 35.3126C90.5074 35.3884 89.9768 35.4205 89.4462 35.3971Z"/><path fill="#903938" d="M115.496 24.7763C114.91 23.7093 114.026 22.8347 112.951 22.2603C111.68 21.5635 110.242 21.2224 108.793 21.2749H103.062V22.788L104.54 22.7355C104.478 23.3303 104.452 23.928 104.458 24.5256V32.0678C104.478 32.4497 104.423 32.8346 104.298 33.1961C104.219 33.4031 104.064 33.5722 103.869 33.6713C103.607 33.7442 103.336 33.7821 103.062 33.7879V35.0853H108.697C110.21 35.1582 111.715 34.8054 113.041 34.0736C114.117 33.441 114.98 32.5051 115.531 31.3856C116.059 30.3477 116.335 29.199 116.338 28.0358C116.335 26.8959 116.044 25.7734 115.496 24.7763ZM112.808 31.0445C112.54 31.7909 112.067 32.4439 111.446 32.9337C110.787 33.4352 109.971 33.6917 109.143 33.6596C108.884 33.6596 108.659 33.6596 108.49 33.6596H107.648C107.522 33.6509 107.397 33.6509 107.271 33.6596C107.333 33.0649 107.359 32.4672 107.353 31.8696V24.2661C107.301 23.8026 107.4 23.3361 107.63 22.9309C107.755 22.8084 107.907 22.7151 108.07 22.6539C108.236 22.5956 108.411 22.5723 108.586 22.5898C109.233 22.5548 109.878 22.6656 110.475 22.9134C111.073 23.1641 111.607 23.546 112.035 24.03C112.962 25.3303 113.397 26.9163 113.263 28.5081C113.254 29.3711 113.085 30.2224 112.77 31.0241L112.808 31.0445Z"/><path fill="#903938" d="M118.012 33.7851C118.283 33.7822 118.554 33.7413 118.82 33.6685C119.021 33.5722 119.175 33.4031 119.248 33.1932C119.377 32.8317 119.429 32.4469 119.409 32.065V24.5228C119.4 23.9251 119.426 23.3274 119.49 22.7327L118.012 22.7852V21.2896H123.665V22.5869C123.391 22.5898 123.117 22.6365 122.858 22.7298C122.759 22.7706 122.668 22.8318 122.595 22.9076C122.522 22.9834 122.464 23.0767 122.429 23.1787C122.301 23.5403 122.245 23.9251 122.269 24.307V31.8492C122.275 32.4469 122.248 33.0446 122.187 33.6393C122.61 33.6043 123.103 33.5868 123.665 33.5868V35.0999H118.012V33.7851Z"/><path fill="#903938" d="M120.879 38.8461C120.713 38.852 120.544 38.8228 120.389 38.7558C120.235 38.6916 120.098 38.5925 119.984 38.47C119.87 38.3505 119.783 38.2106 119.727 38.0561C119.672 37.9015 119.646 37.7383 119.652 37.575C119.649 37.2427 119.774 36.922 120.002 36.68C120.109 36.5604 120.241 36.4671 120.386 36.4001C120.532 36.3359 120.692 36.301 120.853 36.3039C121.01 36.301 121.165 36.3359 121.308 36.4001C121.45 36.4642 121.576 36.5604 121.678 36.68C121.899 36.9249 122.022 37.2456 122.019 37.575C122.034 37.9045 121.917 38.2251 121.695 38.47C121.599 38.5925 121.474 38.6887 121.331 38.7528C121.188 38.8199 121.034 38.852 120.879 38.8461Z"/><path fill="#903938" d="M132.093 35.3971C130.857 35.4291 129.635 35.1201 128.563 34.502C127.551 33.8956 126.726 33.021 126.181 31.9773C125.609 30.8694 125.321 29.6391 125.338 28.3942C125.329 27.1551 125.601 25.9307 126.125 24.8111C126.644 23.6858 127.463 22.7266 128.49 22.0356C129.598 21.301 130.907 20.9278 132.233 20.9686C132.805 20.9744 133.376 21.059 133.927 21.2193C134.522 21.3797 135.09 21.6217 135.621 21.9365L135.539 21.1027H137.061V25.6974H135.781C135.423 23.5109 134.318 22.4059 132.466 22.3826C131.647 22.3651 130.848 22.645 130.219 23.1697C129.592 23.7178 129.125 24.4292 128.866 25.2222C128.554 26.1085 128.402 27.0414 128.408 27.9802C128.391 29.0064 128.557 30.0297 128.901 30.9977C129.181 31.7994 129.67 32.5137 130.315 33.0676C130.953 33.5574 131.74 33.814 132.545 33.7936C133.408 33.7907 134.256 33.5632 135.009 33.1405C135.819 32.709 136.522 32.0968 137.061 31.3504L137.956 32.2455C137.242 33.3125 136.256 34.1697 135.099 34.7265C134.154 35.1522 133.131 35.3796 132.093 35.3971Z"/><path fill="#903938" d="M139.196 33.7851C139.467 33.7822 139.738 33.7413 140.003 33.6685C140.205 33.5693 140.359 33.4002 140.444 33.1932C140.566 32.8317 140.618 32.4469 140.595 32.065V24.5228C140.586 23.9251 140.613 23.3274 140.677 22.7327L139.199 22.7852V21.2896H144.86V22.5869C144.581 22.5898 144.307 22.6365 144.044 22.7298C143.945 22.7706 143.858 22.8318 143.782 22.9105C143.709 22.9863 143.651 23.0796 143.613 23.1787C143.499 23.5432 143.461 23.928 143.496 24.307V27.3799H148.869V24.5228C148.852 23.9251 148.881 23.3245 148.951 22.7327L147.473 22.7852V21.2896H153.134V22.5869C152.855 22.5898 152.581 22.6365 152.318 22.7298C152.219 22.7706 152.132 22.8318 152.056 22.9105C151.983 22.9863 151.925 23.0796 151.887 23.1787C151.758 23.5403 151.703 23.9251 151.726 24.307V31.8492C151.735 32.4469 151.712 33.0446 151.653 33.6393C152.07 33.6043 152.563 33.5868 153.132 33.5868V35.0999H147.47V33.7822C147.741 33.7792 148.012 33.7384 148.277 33.6655C148.479 33.5664 148.633 33.3973 148.718 33.1903C148.84 32.8288 148.892 32.444 148.869 32.0621V28.8726L143.449 28.9367V31.8492C143.458 32.4469 143.435 33.0446 143.377 33.6393C143.793 33.6043 144.286 33.5868 144.855 33.5868V35.0999H139.193V33.7851H139.196Z"/><path fill="#903938" d="M161.061 24.6219C160.769 24.033 160.583 23.4003 160.507 22.7502L159.44 22.8027V21.2896H165.253V22.5869C164.358 22.5869 163.956 22.8376 163.956 23.4207C163.962 23.6598 164.017 23.893 164.116 24.1117L165.906 28.5898C166.067 28.9571 166.265 29.4411 166.498 30.0504C166.58 30.2574 166.758 30.7122 167.035 31.4032L167.976 28.7151L169.481 24.5956C169.641 23.9543 169.915 23.3478 170.288 22.8056L169.259 22.8581H168.766V21.2896H173.201V22.5869C172.752 22.6132 172.332 22.8027 172.017 23.1234C171.612 23.5782 171.306 24.1175 171.122 24.7006L167.177 35.202H165.565L161.061 24.6219Z"/><path fill="#903938" d="M180.819 35.3972C178.758 35.3972 177.294 34.8549 176.431 33.7675C175.519 32.4584 175.067 30.8841 175.151 29.2894V24.5256C175.143 23.9279 175.169 23.3302 175.233 22.7355L173.755 22.788V21.2924H179.408V22.5897C179.134 22.5926 178.86 22.6422 178.6 22.7326C178.501 22.7734 178.408 22.8317 178.332 22.9104C178.256 22.9862 178.198 23.0795 178.16 23.1816C178.041 23.546 177.988 23.9279 178.009 24.3098V29.683C178.009 32.4643 179.111 33.8579 181.315 33.8579C181.772 33.8812 182.227 33.7995 182.647 33.613C183.064 33.4264 183.434 33.1465 183.726 32.7908C184.376 31.8724 184.694 30.7617 184.621 29.6392V24.5256C184.606 23.9279 184.632 23.3302 184.694 22.7355L183.198 22.788V21.2924H187.775V22.5897C187.498 22.5926 187.221 22.6393 186.959 22.7326C186.86 22.7734 186.772 22.8346 186.696 22.9133C186.624 22.9891 186.565 23.0824 186.527 23.1816C186.399 23.5431 186.344 23.9279 186.367 24.3098V29.2369C186.367 31.3856 185.874 32.9541 184.871 33.9395C184.329 34.4439 183.694 34.8345 182.997 35.0852C182.297 35.336 181.557 35.4409 180.819 35.3972Z"/><path fill="#903938" d="M180.784 38.8461C180.615 38.852 180.449 38.8228 180.294 38.7558C180.14 38.6916 180.003 38.5925 179.889 38.4701C179.775 38.3505 179.688 38.2106 179.632 38.0561C179.577 37.9016 179.551 37.7383 179.556 37.575C179.554 37.2427 179.679 36.922 179.906 36.68C180.014 36.5605 180.145 36.4672 180.291 36.4001C180.437 36.336 180.597 36.301 180.758 36.3039C180.915 36.301 181.07 36.333 181.212 36.4001C181.355 36.4642 181.481 36.5605 181.583 36.68C181.804 36.9249 181.927 37.2456 181.924 37.575C181.938 37.9045 181.822 38.2252 181.6 38.4701C181.501 38.5925 181.379 38.6887 181.236 38.7529C181.093 38.8199 180.938 38.852 180.784 38.8461Z"/><path fill="#903938" d="M200.822 35.3971C199.589 35.4291 198.37 35.1201 197.303 34.502C196.289 33.8956 195.461 33.021 194.913 31.9773C194.341 30.8694 194.053 29.6391 194.07 28.3942C194.061 27.1551 194.332 25.9307 194.857 24.8111C195.376 23.6858 196.195 22.7266 197.222 22.0356C198.33 21.301 199.639 20.9278 200.965 20.9686C201.539 20.9744 202.108 21.059 202.659 21.2193C203.254 21.3797 203.822 21.6217 204.353 21.9365L204.28 21.1027H205.793V25.6974H204.513C204.155 23.5109 203.05 22.4059 201.198 22.3826C200.379 22.3651 199.586 22.645 198.959 23.1697C198.33 23.7178 197.857 24.4263 197.598 25.2222C197.286 26.1085 197.134 27.0414 197.14 27.9802C197.125 29.0064 197.295 30.0297 197.633 30.9977C197.913 31.8023 198.405 32.5166 199.058 33.0676C199.694 33.5574 200.478 33.814 201.28 33.7936C202.143 33.7907 202.991 33.5632 203.743 33.1405C204.554 32.709 205.257 32.0968 205.796 31.3504L206.746 32.2455C206.032 33.3125 205.047 34.1697 203.889 34.7265C202.921 35.158 201.878 35.3854 200.822 35.3971Z"/><path fill="#903938" d="M220.67 24.7762C220.163 23.6829 219.364 22.7529 218.358 22.0881C217.238 21.336 215.909 20.957 214.559 21.0036C213.215 20.9657 211.892 21.3447 210.769 22.0881C209.76 22.7558 208.953 23.6858 208.431 24.7762C207.912 25.8403 207.644 27.0065 207.644 28.1901C207.635 29.3884 207.874 30.5749 208.352 31.6741C208.825 32.7673 209.606 33.7032 210.6 34.3621C211.763 35.0939 213.122 35.4554 214.495 35.4C215.83 35.4408 217.145 35.0618 218.256 34.3154C219.279 33.6361 220.098 32.6886 220.62 31.5749C221.133 30.5196 221.405 29.3621 221.408 28.1901C221.41 27.0094 221.157 25.8461 220.67 24.7762ZM217.982 31.1085C217.778 31.8781 217.376 32.5808 216.819 33.1493C216.545 33.4204 216.218 33.6332 215.859 33.7732C215.501 33.9131 215.116 33.9772 214.731 33.9627C214.308 33.9802 213.889 33.9073 213.495 33.7557C213.101 33.6041 212.746 33.3679 212.448 33.0676C211.839 32.4087 211.402 31.6128 211.169 30.747C210.909 29.849 210.778 28.9219 210.775 27.989C210.769 27.1027 210.892 26.2193 211.134 25.3651C211.335 24.5779 211.743 23.8549 212.317 23.2776C212.594 23.0007 212.927 22.782 213.291 22.6392C213.655 22.4963 214.049 22.4292 214.44 22.4438C215.031 22.4234 215.618 22.5663 216.134 22.8578C216.65 23.1494 217.072 23.5808 217.358 24.0998C218.081 25.4788 218.422 27.024 218.343 28.5779C218.329 29.435 218.198 30.2834 217.95 31.1026H217.982V31.1085Z"/><path fill="#903938" d="M214.516 18.12L210.933 19.7964L210.396 18.9101L214.417 15.9539H214.81L218.653 18.9101L218.044 19.8314L214.516 18.12Z"/><path fill="#903938" d="M227.032 27.2194C226.699 26.7996 226.341 26.3243 225.947 25.7413V31.8491C225.953 32.4467 225.927 33.0444 225.866 33.6392C226.283 33.6042 226.775 33.5867 227.344 33.5867V35.0998H222.866V33.782C223.137 33.7762 223.408 33.7383 223.673 33.6654C223.877 33.5634 224.035 33.3855 224.113 33.1727C224.242 32.8112 224.294 32.4263 224.274 32.0444V24.5022C224.256 23.9045 224.28 23.3069 224.347 22.7121L222.851 22.7646V21.2865H225.906L231.936 28.8899C232.481 29.6159 232.947 30.2427 233.315 30.7616V24.4905C233.3 23.8929 233.32 23.2952 233.379 22.7005L231.901 22.7529V21.2836H236.379V22.5809C236.105 22.5809 235.831 22.6305 235.571 22.7238C235.472 22.7617 235.382 22.8229 235.306 22.8987C235.23 22.9774 235.175 23.0678 235.14 23.1699C235.011 23.5314 234.956 23.9162 234.979 24.2981V35.2718H233.341L227.032 27.2194Z"/><path fill="#903938" d="M244.325 35.3971C243.072 35.435 241.83 35.126 240.742 34.5021C239.757 33.8957 238.958 33.0269 238.439 31.9948C237.9 30.8782 237.628 29.6508 237.652 28.4118C237.643 27.1756 237.905 25.9511 238.421 24.8287C238.923 23.7063 239.728 22.7471 240.742 22.0532C241.85 21.3185 243.159 20.9454 244.486 20.9862C245.133 20.9949 245.774 21.0795 246.401 21.2369C247.031 21.3827 247.634 21.6247 248.191 21.9541L248.118 21.1203H249.631V25.715H248.378C248.273 24.7762 247.832 23.9045 247.133 23.269C246.462 22.6888 245.602 22.371 244.713 22.3739C243.902 22.3564 243.115 22.6363 242.5 23.1611C241.859 23.7121 241.384 24.4264 241.121 25.231C240.809 26.1173 240.658 27.0503 240.663 27.989C240.593 29.4788 240.97 30.954 241.748 32.2251C242.069 32.7353 242.521 33.1523 243.051 33.4351C243.582 33.7178 244.179 33.8578 244.783 33.8374C245.264 33.8316 245.742 33.7878 246.217 33.7033C246.681 33.6391 247.136 33.5079 247.561 33.3097V31.5196C247.553 30.922 247.579 30.3243 247.643 29.7295C247.302 29.7295 246.981 29.7733 246.675 29.7733H246.165V28.2514H251.404V29.5954C251.141 29.5925 250.879 29.6392 250.634 29.7295C250.535 29.7791 250.448 29.8491 250.378 29.9336C250.308 30.0182 250.255 30.1173 250.223 30.2222C250.118 30.5721 250.072 30.9394 250.089 31.3068V34.4584H249.614C249.311 34.4613 249.013 34.4934 248.719 34.5575C248.424 34.6304 248.057 34.7266 247.59 34.8724C246.911 35.0706 246.337 35.2222 245.879 35.3126C245.369 35.3884 244.847 35.4175 244.325 35.3971Z"/><path fill="#903938" d="M271.789 37.8606C271.402 37.5953 271.037 37.2979 270.705 36.9655L269.81 36.0705C269.428 35.6886 268.979 35.3854 268.483 35.1755C267.994 35.0297 267.48 34.9627 266.97 34.9772C267.894 34.6361 268.725 34.0793 269.399 33.3563C270.046 32.6449 270.553 31.8198 270.894 30.919C271.221 30.0618 271.396 29.1493 271.405 28.2309C271.402 27.0531 271.145 25.8869 270.652 24.817C270.215 23.9598 269.606 23.2047 268.859 22.5954C268.113 21.989 267.25 21.5429 266.32 21.2922C265.393 21.0386 264.422 20.9832 263.472 21.126C262.521 21.2689 261.612 21.6129 260.801 22.1289C259.792 22.7995 258.982 23.7266 258.454 24.817C257.941 25.8811 257.67 27.0473 257.667 28.2309C257.661 29.4204 257.897 30.5983 258.358 31.6974C258.822 32.7819 259.583 33.7119 260.553 34.3854C261.676 35.1143 262.996 35.4758 264.335 35.4233C264.819 35.4116 265.294 35.5486 265.696 35.8169C266.212 36.2075 266.69 36.6419 267.131 37.1142C267.65 37.6594 268.026 38.0647 268.375 38.3416C268.676 38.6128 269.008 38.8489 269.361 39.0501C269.641 39.1929 269.944 39.2862 270.256 39.327C270.752 39.3912 271.253 39.4174 271.752 39.4087H272.603V38.0559C272.314 38.0734 272.034 38.0034 271.789 37.8606ZM264.696 33.9656C264.276 33.9831 263.857 33.9131 263.469 33.7586C263.078 33.6041 262.725 33.3708 262.431 33.0705C261.822 32.4117 261.384 31.6157 261.151 30.7499C260.644 28.9977 260.626 27.1376 261.107 25.3767C261.314 24.5954 261.714 23.8753 262.271 23.2893C262.55 23.0065 262.886 22.7849 263.256 22.6362C263.626 22.4875 264.023 22.4176 264.419 22.4292C265.011 22.4088 265.597 22.5517 266.113 22.8432C266.629 23.1348 267.052 23.5662 267.338 24.0852C268.061 25.4642 268.402 27.0094 268.323 28.5633C268.326 29.4408 268.198 30.3125 267.947 31.1522C267.737 31.9219 267.338 32.6245 266.784 33.193C266.507 33.4583 266.177 33.6624 265.819 33.7936C265.46 33.9277 265.078 33.986 264.696 33.9656Z"/><path fill="#903938" d="M279.583 35.3972C277.521 35.3972 276.052 34.852 275.195 33.7675C274.277 32.4614 273.828 30.8841 273.915 29.2894V24.5256C273.915 23.7909 273.915 23.1991 273.988 22.7355L272.51 22.788V21.2924H278.172V22.5897C277.897 22.5926 277.623 22.6422 277.364 22.7326C277.265 22.7734 277.172 22.8317 277.096 22.9104C277.02 22.9862 276.962 23.0795 276.924 23.1816C276.801 23.5431 276.749 23.9279 276.772 24.3098V29.683C276.772 32.4643 277.874 33.8579 280.078 33.8579C280.536 33.8812 280.991 33.7995 281.411 33.613C281.827 33.4264 282.198 33.1465 282.489 32.7908C283.139 31.8724 283.454 30.7617 283.384 29.6392V24.5256C283.367 23.9279 283.396 23.3273 283.466 22.7355L281.97 22.788V21.2924H286.539V22.5897C286.265 22.5926 285.991 22.6393 285.731 22.7326C285.632 22.7734 285.545 22.8346 285.469 22.9133C285.396 22.9891 285.338 23.0824 285.3 23.1816C285.171 23.5431 285.116 23.9279 285.139 24.3098V29.2369C285.139 31.3856 284.641 32.9541 283.644 33.9395C283.101 34.4468 282.463 34.8345 281.763 35.0882C281.064 35.336 280.323 35.4438 279.583 35.3972Z"/><path fill="#903938" d="M300.687 24.7762C300.18 23.6858 299.384 22.7558 298.384 22.0882C297.247 21.3768 295.932 21.0007 294.591 21.0007C293.25 21.0007 291.935 21.3768 290.798 22.0882C289.786 22.7558 288.976 23.6858 288.451 24.7762C287.932 25.8403 287.664 27.0065 287.664 28.1902C287.655 29.3884 287.894 30.575 288.372 31.6741C288.845 32.7674 289.626 33.7032 290.62 34.3621C291.783 35.0939 293.142 35.4554 294.515 35.4C295.853 35.4408 297.174 35.0618 298.285 34.3155C299.305 33.6304 300.121 32.6828 300.649 31.575C301.159 30.5196 301.428 29.3622 301.436 28.1902C301.436 27.0094 301.18 25.8462 300.687 24.7762ZM297.999 31.1085C297.792 31.8899 297.381 32.6041 296.807 33.1785C296.533 33.4496 296.203 33.6624 295.842 33.8053C295.48 33.9452 295.095 34.0094 294.71 33.9948C294.288 34.0094 293.868 33.9394 293.474 33.7849C293.081 33.6304 292.725 33.3971 292.425 33.0998C291.815 32.4409 291.378 31.645 291.145 30.7791C290.888 29.8811 290.754 28.954 290.751 28.0211C290.745 27.1348 290.868 26.2514 291.11 25.3972C291.311 24.61 291.719 23.887 292.294 23.3098C292.57 23.0328 292.903 22.8141 293.267 22.6713C293.632 22.5284 294.022 22.4614 294.416 22.4759C295.008 22.4526 295.597 22.5955 296.113 22.8899C296.629 23.1844 297.051 23.613 297.337 24.1348C298.06 25.5138 298.401 27.059 298.323 28.6129C298.317 29.4584 298.197 30.298 297.964 31.1114H297.999V31.1085Z"/><path fill="#903938" d="M294.542 18.6657L291.577 20.0447L291.148 19.3187L294.463 16.8727H294.795L297.967 19.3187L297.457 20.0709L294.542 18.6657Z"/><path fill="#903938" d="M297.075 17.5287L298.696 14.7707C298.827 14.5608 299.008 14.383 299.223 14.2605C299.419 14.1322 299.643 14.0652 299.876 14.0623C300.121 14.0623 300.357 14.1439 300.547 14.2955C300.658 14.3975 300.748 14.5229 300.806 14.6599C300.868 14.7999 300.897 14.9485 300.894 15.1001C300.888 15.313 300.836 15.52 300.742 15.7095C300.652 15.9106 300.524 16.0943 300.366 16.2459L297.984 18.3334L297.075 17.5287Z"/><path fill="#903938" d="M309.561 35.3971C308.325 35.4291 307.103 35.1201 306.033 34.502C305.022 33.8956 304.197 33.021 303.651 31.9773C303.08 30.8694 302.791 29.6391 302.809 28.3942C302.803 27.1551 303.071 25.9307 303.596 24.8111C304.115 23.6858 304.934 22.7266 305.96 22.0356C307.068 21.301 308.377 20.9278 309.704 20.9686C310.278 20.9744 310.847 21.059 311.398 21.2193C311.992 21.3797 312.561 21.6217 313.092 21.9365L313.01 21.1027H314.578V25.6974H313.299C312.94 23.5109 311.835 22.4059 309.984 22.3826C309.164 22.3651 308.366 22.645 307.736 23.1697C307.109 23.7178 306.643 24.4292 306.383 25.2222C306.071 26.1085 305.92 27.0414 305.925 27.9802C305.908 29.0064 306.074 30.0297 306.418 30.9977C306.695 31.8023 307.185 32.5166 307.832 33.0676C308.471 33.5574 309.258 33.814 310.062 33.7936C310.925 33.7877 311.774 33.5632 312.526 33.1405C313.334 32.7178 314.036 32.1172 314.578 31.3854L315.473 32.2805C314.759 33.3475 313.774 34.2046 312.616 34.7615C311.651 35.1813 310.613 35.3971 309.561 35.3971Z"/><path fill="#903938" d="M328.265 35.3971C327.011 35.435 325.769 35.126 324.681 34.5021C323.69 33.8986 322.891 33.0298 322.369 31.9948C321.836 30.8782 321.565 29.6508 321.582 28.4118C321.577 27.1756 321.839 25.9541 322.352 24.8287C322.859 23.7063 323.664 22.7471 324.681 22.0532C325.789 21.3185 327.098 20.9454 328.425 20.9862C329.069 20.9949 329.708 21.0795 330.332 21.2369C330.979 21.3768 331.597 21.6188 332.168 21.9541L332.087 21.1203H333.608V25.715H332.329C332.218 24.7791 331.775 23.9104 331.084 23.269C330.407 22.6888 329.547 22.371 328.655 22.3739C327.848 22.3564 327.063 22.6363 326.451 23.1611C325.821 23.7092 325.349 24.4176 325.09 25.2135C324.783 26.0998 324.632 27.0328 324.641 27.9715C324.571 29.4613 324.947 30.9365 325.725 32.2077C326.043 32.7179 326.492 33.1348 327.023 33.4176C327.553 33.7004 328.151 33.8403 328.751 33.8199C329.235 33.8141 329.716 33.7703 330.195 33.6858C330.658 33.6216 331.113 33.4875 331.539 33.2922V31.5021C331.53 30.9045 331.553 30.3068 331.611 29.712C331.27 29.712 330.95 29.7558 330.652 29.7558H330.133V28.2514H335.381V29.5954C335.119 29.5925 334.856 29.6362 334.611 29.7295C334.512 29.7762 334.422 29.8462 334.352 29.9307C334.279 30.0153 334.229 30.1144 334.2 30.2222C334.087 30.5721 334.037 30.9394 334.057 31.3068V34.4584H333.582C333.282 34.4613 332.982 34.4934 332.687 34.5575C332.401 34.6304 332.025 34.7266 331.568 34.8724C330.877 35.0706 330.314 35.2222 329.848 35.3126C329.326 35.3884 328.795 35.4205 328.265 35.3971Z"/><path fill="#903938" d="M336.701 33.7851C336.972 33.7792 337.243 33.7413 337.509 33.6685C337.704 33.5693 337.859 33.4002 337.937 33.1932C338.066 32.8317 338.118 32.4469 338.098 32.065V24.5228C338.089 23.9251 338.115 23.3274 338.179 22.7327L336.701 22.7852V21.2896H342.345V22.5869C342.071 22.5869 341.797 22.6365 341.538 22.7298C341.439 22.7677 341.348 22.8289 341.273 22.9047C341.197 22.9834 341.141 23.0738 341.106 23.1758C340.978 23.5373 340.923 23.9222 340.946 24.3041V31.8463C340.952 32.444 340.926 33.0416 340.864 33.6364C341.281 33.6014 341.774 33.5839 342.343 33.5839V35.097H336.698V33.7851H336.701Z"/><path fill="#903938" d="M355.281 33.625C355.24 33.2956 355.164 32.9719 355.056 32.6571C354.94 32.2635 354.832 31.9399 354.724 31.6717L350.523 20.9225H349.144L345.301 31.4734C345.103 32.0186 344.943 32.4326 344.809 32.7183C344.68 32.9924 344.494 33.2343 344.263 33.4268C344.027 33.6279 343.721 33.7329 343.412 33.7212V35.0827H347.631V33.5055C347.164 33.5026 346.698 33.523 346.234 33.5696C346.368 33.2781 346.485 32.9778 346.584 32.6746C346.736 32.3072 346.826 32.0652 346.861 31.9574L347.176 31.0623L351.459 30.9807L351.852 32.0652C351.981 32.3655 352.053 32.6891 352.068 33.0157C352.068 33.5346 351.753 33.8028 351.118 33.8028V35.1002H356.421V33.5696C356.094 33.5725 355.709 33.59 355.281 33.625ZM347.666 29.5959L348.561 27.0332C348.852 26.1819 349.1 25.316 349.295 24.4356C349.467 25.351 349.718 26.2519 350.048 27.1236L350.943 29.5871L347.666 29.5959Z"/><path fill="#CD7957" d="M38.2119 25.2839L37.9757 24.7504C39.2439 24.8466 40.5355 24.9282 41.8037 25.0011L41.4072 24.1352C40.139 24.0623 38.8795 23.9661 37.6113 23.8699L37.3868 23.3364C38.6492 23.421 39.9057 23.4938 41.1594 23.5551L40.8212 22.7562L37.0136 22.4589L32.0137 24.453C32.4831 25.7825 33.1915 27.0157 34.1098 28.0886L34.5239 27.9049C34.139 27.0273 33.7425 26.1615 33.3781 25.2956L33.8329 25.0973C34.2061 25.9749 34.5909 26.8291 34.9787 27.695L35.8766 27.2868C35.5034 26.4326 35.1186 25.5784 34.7571 24.7212L35.2673 24.5201C35.6288 25.3743 36.002 26.2198 36.3751 27.0623L37.241 26.6542C36.8562 25.8233 36.4947 24.9778 36.1332 24.1352L36.7017 23.9195C37.0632 24.7416 37.4247 25.5638 37.795 26.383L38.553 26.1031C39.8445 26.1964 41.1244 26.2693 42.4159 26.3422L42.0077 25.4443C40.7483 25.4064 39.4801 25.3451 38.2119 25.2839Z"/><path fill="#CD7957" d="M40.5625 22.2052L40.1864 21.3043C38.9386 21.1965 37.682 21.0886 36.4313 20.9603C34.8045 21.5959 33.1894 22.2489 31.5713 22.8991C31.6354 23.214 31.7141 23.523 31.8045 23.832C33.4634 23.1761 35.1223 22.5143 36.787 21.8729C38.0465 21.9924 39.3059 22.1119 40.5625 22.2052Z"/><path fill="#CD7957" d="M24.4314 27.0442C24.3206 26.6156 24.2332 26.1783 24.1574 25.741L19.4548 27.6156C18.9184 28.4086 18.4694 29.1783 18 29.9625L18.7201 30.5019C19.1166 29.8459 19.5131 29.2774 19.9242 28.6651L24.4314 27.0442Z"/><path fill="#CD7957" d="M24.5688 27.5162L20.1316 29.143L19.0762 30.7669L19.8254 31.2713L20.6563 30.0876L20.8633 30.5104L20.1724 31.4725L20.6942 31.8398L21.1899 31.1722L21.4114 31.6153L21.0382 32.1051L21.5484 32.4608L22.254 31.6066C21.9479 30.9973 21.6505 30.3763 21.3531 29.7553L21.8429 29.592C22.1578 30.283 22.4843 30.9739 22.8283 31.662L23.7175 31.7786C23.3298 30.9594 22.942 30.143 22.563 29.3238L22.9974 29.1664C23.4056 30.0702 23.8371 30.9594 24.2569 31.8486L25.2598 31.9856C24.7233 30.9564 24.2306 29.9215 23.7729 28.8807L24.1782 28.7465C24.6359 29.8632 25.1607 30.971 25.6942 32.076L26.6155 32.178C26.5163 31.9768 26.426 31.7698 26.3268 31.5687C25.563 30.3034 24.9799 28.939 24.5688 27.5162Z"/><path fill="#903938" d="M52.3644 36.2431L48.2216 26.7971C46.4257 29.8758 43.4199 31.8991 40.0146 31.8991C36.0846 31.8991 32.6969 29.2052 31.0759 25.3044C31.0351 25.2111 31.0001 25.1149 30.9593 25.0216C30.9185 24.9137 30.8689 24.8117 30.831 24.7038C30.0206 22.6105 29.7727 20.2811 30.2334 17.9458C30.6824 15.1441 31.9768 12.7039 33.7873 10.9867C33.1838 10.4299 32.7611 9.67476 32.6619 8.79722C32.6619 8.78847 32.6619 8.77681 32.6619 8.76807C29.3529 10.9371 26.7786 14.2549 25.6387 18.3715C23.1343 27.3976 28.4229 36.7445 37.4491 39.2459C42.7872 40.727 48.3149 39.4996 52.3935 36.3655L52.3644 36.2431Z"/><path fill="#903938" d="M37.1167 6.32452C32.385 4.82599 28.0002 2.68898 24.1314 0.0301105C23.9798 -0.0748449 23.8311 0.117575 23.9594 0.2546C27.2596 3.78227 30.9389 7.03297 34.9243 9.96006L37.1167 6.32452Z"/><path fill="#CD7957" d="M34.1023 6.64551C31.8516 5.55514 29.7 4.32775 27.665 2.97791C29.563 4.51725 31.563 6.02453 33.6504 7.36562C33.7729 7.12656 33.9245 6.84668 34.1023 6.64551Z"/><path fill="#903938" d="M36.1722 11.9313C38.1205 11.9313 39.6999 10.3519 39.6999 8.40365C39.6999 6.45537 38.1205 4.87598 36.1722 4.87598C34.2239 4.87598 32.6445 6.45537 32.6445 8.40365C32.6445 10.3519 34.2239 11.9313 36.1722 11.9313Z"/><path fill="#CD7957" d="M36.2449 10.2227C37.322 10.2227 38.1953 9.34951 38.1953 8.27232C38.1953 7.19513 37.322 6.3219 36.2449 6.3219C35.1677 6.3219 34.2944 7.19513 34.2944 8.27232C34.2944 9.34951 35.1677 10.2227 36.2449 10.2227Z"/><path fill="#903938" d="M36.2454 9.71815C37.044 9.71815 37.6914 9.07074 37.6914 8.2721C37.6914 7.47347 37.044 6.82605 36.2454 6.82605C35.4467 6.82605 34.7993 7.47347 34.7993 8.2721C34.7993 9.07074 35.4467 9.71815 36.2454 9.71815Z"/><path fill="#fff" d="M36.2447 9.14696C36.7278 9.14696 37.1194 8.75538 37.1194 8.27233C37.1194 7.78929 36.7278 7.39771 36.2447 7.39771C35.7617 7.39771 35.3701 7.78929 35.3701 8.27233C35.3701 8.75538 35.7617 9.14696 36.2447 9.14696Z"/><path fill="#903938" d="M38.9946 6.30966C39.3532 6.79362 39.604 7.36504 39.6768 8.00935C39.6914 8.13471 39.6798 8.25716 39.6798 8.37961C42.9509 8.21926 46.2774 10.1609 48.1199 13.2892C48.2132 13.0414 48.6505 11.951 50.3356 8.12888C45.3095 5.23678 40.0617 6.09391 38.9946 6.30966Z"/><path fill="#fff" d="M44.7954 38.2602L44.7021 37.8229C49.2356 36.8521 52.5826 33.5693 52.6146 33.5372L52.9295 33.855C52.8974 33.8871 49.4601 37.2631 44.7954 38.2602Z"/><path fill="#fff" d="M44.163 36.7063L44.0552 36.2719C48.3292 35.2136 51.9618 31.4877 51.9997 31.4498L52.3204 31.7618C52.1688 31.9163 48.5624 35.6131 44.163 36.7063Z"/><path fill="#fff" d="M43.7689 35.0326L43.6436 34.6011C48.1158 33.3125 51.1683 29.2834 51.2004 29.2426L51.5589 29.5108C51.4307 29.6828 48.384 33.7032 43.7689 35.0326Z"/><path fill="#fff" d="M43.2127 33.3446L43.0728 32.9189C47.5129 31.4699 50.3846 27.0443 50.4138 26.9977L50.7899 27.2397C50.6703 27.4262 47.8016 31.846 43.2127 33.3446Z"/><path fill="#CD7957" d="M40.3407 34.5694C40.2299 34.5723 40.122 34.584 40.0141 34.584C35.157 34.584 30.6731 31.345 28.5944 26.3304C28.5856 26.3129 28.5448 26.2138 28.5069 26.1176L28.4545 25.9893C28.3845 25.8173 28.3407 25.7123 28.2999 25.6045C28.0696 25.0097 27.8801 24.4004 27.7285 23.7794C27.8597 25.9164 28.4749 28.0097 29.5594 29.9251C31.4369 33.2429 34.4923 35.6306 38.1687 36.651C39.2532 36.9513 40.3581 37.1058 41.4631 37.1408L40.3407 34.5694Z"/></svg>