<?xml version="1.0" standalone="no"?>
<!DOCTYPE svg PUBLIC "-//W3C//DTD SVG 20010904//EN"
 "http://www.w3.org/TR/2001/REC-SVG-20010904/DTD/svg10.dtd">
<svg version="1.0" xmlns="http://www.w3.org/2000/svg"
 width="700.000000pt" height="700.000000pt" viewBox="0 0 700.000000 700.000000"
 preserveAspectRatio="xMidYMid meet">
<metadata>
Created by potrace 1.14, written by Peter Selinger 2001-2017
</metadata>
<g transform="translate(0.000000,700.000000) scale(0.100000,-0.100000)"
fill="#000000" stroke="none">
<path d="M3004 6958 c-2 -3 -13 -4 -24 -1 -11 3 -28 -1 -37 -8 -9 -8 -14 -9
-10 -3 4 8 -2 11 -17 10 -15 0 -21 -5 -16 -11 5 -6 -1 -10 -15 -10 -13 0 -21
3 -18 8 5 9 -11 9 -21 0 -12 -13 -48 -14 -40 -1 4 7 3 8 -4 4 -7 -4 -12 -15
-12 -24 -1 -16 -1 -16 -11 1 -5 9 -15 17 -22 17 -8 0 -7 -3 2 -9 11 -7 10 -11
-7 -20 -15 -8 -23 -8 -28 0 -4 8 -9 7 -14 -2 -7 -10 -12 -10 -26 2 -10 8 -15
9 -11 2 4 -6 3 -14 -3 -18 -5 -3 -10 -2 -10 4 0 6 -7 8 -15 5 -8 -4 -15 -13
-15 -21 0 -8 -5 -11 -10 -8 -6 4 -7 12 -3 18 4 7 0 7 -10 -1 -9 -8 -22 -10
-28 -6 -8 5 -9 3 -4 -6 6 -10 4 -12 -8 -7 -10 3 -17 2 -17 -2 0 -5 6 -11 13
-14 6 -3 -5 -4 -25 -2 -23 1 -38 -2 -38 -9 0 -6 -5 -4 -10 4 -8 12 -10 12 -10
-5 0 -11 -4 -15 -8 -10 -4 6 -13 11 -21 13 -11 2 -12 0 -3 -10 9 -11 6 -14
-18 -12 -17 1 -33 -2 -36 -7 -3 -5 -10 -7 -15 -4 -5 4 -9 1 -9 -5 0 -6 -4 -8
-10 -5 -5 3 -10 2 -10 -4 0 -6 -7 -7 -17 -4 -12 5 -14 3 -8 -7 5 -8 3 -11 -6
-8 -8 3 -24 -4 -36 -15 -14 -12 -23 -16 -23 -8 0 7 -5 9 -10 6 -6 -4 -7 -11
-4 -17 5 -7 2 -8 -7 -2 -24 14 -38 13 -32 -4 5 -12 1 -14 -25 -9 -22 5 -31 3
-29 -6 1 -6 -4 -11 -10 -10 -7 2 -13 -4 -13 -12 0 -18 -17 -20 -23 -2 -3 9 -8
9 -18 -2 -12 -12 -12 -13 0 -6 9 5 12 4 8 -3 -4 -5 -15 -9 -25 -7 -9 1 -27 -7
-39 -18 -13 -11 -23 -17 -23 -13 0 4 -6 1 -14 -6 -8 -7 -12 -17 -9 -23 2 -5
-3 -1 -11 9 -15 18 -21 13 -18 -15 1 -3 -4 -6 -11 -7 -38 -3 -95 -31 -97 -47
-1 -5 -8 -9 -16 -9 -8 1 -14 -6 -14 -15 0 -14 -2 -14 -10 -1 -8 12 -10 10 -10
-9 0 -21 -2 -23 -12 -10 -7 8 -12 12 -10 10 5 -10 -32 -41 -50 -41 -17 0 -23
-11 -19 -34 1 -5 -5 -4 -13 4 -11 8 -16 9 -16 1 0 -6 -6 -11 -14 -11 -7 0 -20
-8 -27 -17 -13 -17 -13 -17 6 -3 19 14 19 14 6 -3 -10 -13 -17 -15 -27 -6 -11
9 -14 8 -14 -4 0 -8 -7 -18 -16 -21 -9 -3 -12 -11 -8 -18 5 -9 2 -8 -10 1 -15
12 -17 12 -14 0 2 -8 -3 -13 -9 -12 -7 2 -13 -4 -13 -13 0 -14 -3 -14 -15 -4
-13 11 -14 10 -9 -6 4 -10 4 -16 -1 -12 -4 4 -14 0 -21 -10 -7 -9 -18 -17 -26
-17 -7 0 -12 -8 -12 -17 1 -10 -1 -17 -5 -16 -3 1 -19 -2 -34 -7 -21 -6 -25
-10 -15 -16 12 -8 11 -10 -10 -13 -5 0 -27 -20 -49 -44 -22 -23 -42 -39 -46
-35 -4 3 -7 -2 -7 -11 0 -12 -5 -16 -16 -12 -8 3 -12 2 -9 -4 3 -5 -7 -16 -22
-24 -15 -8 -27 -17 -25 -20 5 -14 1 -26 -9 -26 -5 0 -7 6 -3 13 4 6 5 10 1 7
-3 -3 -5 -8 -4 -12 1 -4 -8 -15 -21 -24 -13 -9 -21 -22 -19 -28 3 -7 -1 -13
-9 -13 -7 0 -10 5 -7 10 3 6 1 7 -4 4 -6 -4 -16 -20 -23 -37 -10 -24 -15 -28
-22 -18 -7 9 -8 3 -4 -17 3 -16 3 -24 0 -17 -3 6 -10 12 -15 12 -6 0 -7 -4 -4
-10 3 -5 1 -10 -5 -10 -6 0 -8 -5 -4 -12 5 -8 0 -7 -11 2 -11 9 -16 10 -11 2
4 -7 0 -19 -8 -28 -9 -9 -14 -19 -11 -24 3 -5 -4 -11 -15 -15 -18 -6 -24 -17
-21 -38 0 -4 -5 -6 -11 -5 -7 2 -12 -5 -12 -15 2 -14 -1 -15 -12 -6 -12 10
-13 9 -8 -5 3 -9 1 -16 -5 -16 -6 0 -11 -6 -11 -14 0 -8 -4 -18 -10 -21 -6 -4
-7 1 -4 12 6 15 4 15 -9 -2 -11 -15 -12 -22 -4 -27 9 -6 9 -8 0 -8 -7 0 -13
-8 -14 -17 0 -13 -2 -14 -6 -4 -4 9 -10 3 -19 -18 -9 -22 -18 -30 -26 -25 -10
6 -10 4 0 -8 10 -13 10 -18 1 -24 -8 -4 -9 -3 -5 4 4 7 3 12 -3 12 -5 0 -15
-16 -21 -36 -9 -27 -16 -34 -29 -29 -12 5 -13 4 -4 -6 10 -10 8 -16 -10 -31
-12 -11 -22 -27 -22 -36 0 -9 -5 -17 -12 -17 -6 0 -15 -4 -20 -9 -5 -5 -3 -6
5 -2 6 4 12 2 12 -4 0 -6 6 -8 13 -4 7 4 9 3 4 -2 -5 -5 -14 -9 -20 -9 -6 0
-14 -11 -18 -25 -4 -14 -8 -20 -8 -15 -1 6 -5 4 -10 -4 -5 -8 -8 -22 -6 -32 2
-12 -1 -16 -10 -13 -7 3 -16 0 -21 -7 -5 -8 -3 -10 7 -4 11 6 12 5 2 -6 -7 -7
-13 -21 -13 -32 0 -10 -5 -15 -10 -12 -6 3 -10 -1 -10 -9 0 -9 -6 -16 -12 -16
-9 0 -8 -4 2 -10 13 -8 13 -10 -2 -10 -11 0 -15 -5 -12 -15 4 -8 1 -15 -6 -15
-6 0 -8 -4 -5 -10 3 -5 1 -10 -6 -10 -9 0 -9 -3 0 -14 9 -11 9 -16 0 -22 -8
-4 -9 -3 -5 4 4 7 2 12 -3 12 -6 0 -11 -9 -11 -21 0 -12 -4 -17 -11 -13 -8 5
-8 1 0 -14 9 -17 7 -24 -17 -41 -20 -16 -22 -20 -7 -15 19 5 19 5 3 -9 -10 -8
-15 -17 -11 -20 3 -4 1 -7 -5 -7 -6 0 -9 -7 -5 -17 4 -10 2 -14 -4 -10 -16 10
-24 -18 -10 -33 9 -10 9 -11 0 -6 -9 5 -13 0 -13 -13 0 -11 -6 -26 -14 -33
-11 -11 -11 -15 3 -25 14 -12 14 -12 -2 -7 -15 5 -17 2 -13 -21 4 -23 3 -25
-11 -13 -14 11 -15 11 -5 -8 9 -16 7 -22 -8 -32 -15 -9 -17 -17 -10 -43 7 -24
6 -28 -3 -20 -10 7 -13 5 -12 -12 0 -12 3 -27 7 -33 4 -7 0 -18 -10 -25 -15
-13 -16 -12 -3 4 7 9 9 17 3 17 -12 0 -23 -26 -14 -34 12 -13 10 -36 -3 -36
-8 0 -17 -5 -21 -12 -4 -6 -3 -8 4 -4 6 3 13 2 17 -4 3 -5 0 -10 -8 -10 -7 0
-14 -7 -14 -15 0 -8 5 -15 11 -15 6 0 5 -4 -3 -9 -8 -5 -11 -16 -8 -24 4 -12
0 -14 -20 -11 -22 4 -24 3 -15 -9 10 -12 8 -13 -13 -9 -18 3 -25 0 -25 -12 0
-9 -6 -13 -14 -10 -7 3 -23 -6 -33 -20 -11 -14 -24 -22 -29 -18 -5 4 -3 0 4
-9 11 -14 10 -17 -5 -15 -10 0 -17 -5 -16 -11 2 -7 -3 -12 -10 -10 -6 1 -11
-3 -10 -10 2 -7 -7 -18 -18 -24 -17 -9 -19 -13 -8 -20 11 -7 10 -9 -3 -9 -11
0 -18 -8 -18 -21 0 -11 -4 -18 -9 -15 -5 3 -8 -8 -7 -24 1 -17 -1 -30 -6 -30
-4 0 -8 -5 -8 -11 0 -5 3 -8 8 -5 4 2 7 -24 7 -59 1 -52 -2 -62 -15 -58 -8 2
-4 -3 10 -11 22 -14 23 -15 5 -16 -15 0 -17 -2 -6 -9 8 -5 12 -18 8 -30 -3
-14 -1 -19 6 -14 7 4 8 0 4 -11 -5 -13 -3 -17 7 -13 10 4 12 0 8 -15 -4 -16
-2 -19 9 -13 12 7 12 6 1 -7 -10 -12 -10 -18 -1 -23 8 -6 8 -9 -1 -15 -8 -5
-7 -9 5 -13 9 -4 13 -3 10 2 -3 5 -2 12 3 15 4 2 8 -6 8 -19 0 -13 -4 -21 -8
-19 -4 3 -8 0 -8 -5 0 -6 6 -11 13 -11 8 0 7 -4 -3 -10 -12 -8 -12 -10 5 -11
l20 0 -20 -9 c-11 -5 -14 -9 -6 -9 11 -1 11 -4 0 -17 -10 -13 -10 -17 0 -24
11 -6 11 -9 0 -13 -10 -4 -10 -6 -1 -6 6 -1 12 -6 12 -12 0 -5 -6 -7 -12 -3
-8 5 -7 0 2 -11 8 -10 10 -16 4 -12 -7 4 -14 0 -17 -8 -4 -8 -1 -12 7 -9 9 3
12 -6 10 -32 -2 -20 -6 -39 -9 -42 -2 -3 1 -12 8 -20 10 -13 9 -15 -3 -10 -11
4 -16 0 -16 -12 0 -10 5 -16 12 -13 10 4 11 -11 5 -50 0 -5 -5 -6 -10 -2 -5 3
-13 0 -17 -6 -4 -8 -3 -9 4 -5 7 4 12 2 12 -4 0 -6 5 -8 13 -4 9 6 9 4 1 -7
-16 -20 -26 -51 -14 -44 5 3 12 -7 16 -22 11 -43 38 -75 53 -60 10 9 11 8 6
-4 -4 -10 -1 -20 4 -24 6 -3 9 -11 5 -16 -3 -5 -2 -9 3 -8 22 4 43 -2 38 -11
-3 -5 -1 -10 5 -10 6 0 8 -5 5 -10 -3 -5 4 -10 16 -10 17 0 20 -4 16 -21 -5
-17 -3 -18 11 -7 10 8 13 8 9 1 -4 -6 0 -19 9 -27 11 -12 12 -16 2 -16 -8 0
-6 -4 5 -11 13 -8 15 -14 7 -29 -7 -13 -7 -21 0 -25 6 -4 7 -11 4 -17 -4 -6
-2 -8 3 -5 6 4 14 0 17 -9 9 -23 8 -26 -6 -18 -10 6 -10 4 0 -7 6 -7 12 -21
12 -31 0 -10 4 -18 9 -18 5 0 12 -7 15 -16 5 -14 4 -15 -9 -4 -13 11 -14 10
-9 -4 3 -9 14 -16 23 -16 9 0 12 -3 6 -8 -12 -8 -16 -44 -5 -37 4 3 11 -2 14
-11 3 -8 2 -12 -4 -9 -6 3 -10 1 -10 -4 0 -6 8 -11 18 -11 14 0 15 -2 2 -10
-11 -7 -12 -10 -2 -10 9 0 11 -7 7 -21 -5 -15 -4 -19 4 -15 14 9 14 -7 0 -21
-9 -9 -7 -11 8 -7 18 5 20 2 15 -22 -3 -19 -1 -25 7 -20 15 10 14 -6 -1 -24
-7 -8 -9 -12 -4 -8 11 9 35 -14 29 -28 -2 -7 0 -15 6 -18 6 -4 8 -13 4 -21 -3
-9 1 -15 11 -15 10 0 13 -5 9 -17 -5 -12 -3 -14 8 -8 12 8 12 6 0 -8 -7 -9
-11 -18 -7 -18 3 -1 10 -2 15 -3 5 0 13 -5 18 -10 5 -5 3 -6 -5 -2 -17 10 -15
-2 3 -21 8 -8 13 -19 10 -24 -4 -5 0 -9 7 -9 11 0 10 -2 0 -9 -11 -6 -9 -9 7
-14 14 -3 18 -10 14 -26 -3 -12 -2 -21 3 -20 21 4 28 -2 14 -11 -10 -6 -11
-10 -2 -10 6 0 12 -7 12 -15 0 -8 3 -15 8 -15 4 0 13 -10 21 -22 l14 -23 -24
20 -24 20 22 -25 c12 -14 21 -27 20 -30 -1 -3 12 -20 28 -38 29 -33 43 -68 22
-56 -8 5 -8 2 0 -6 10 -11 9 -17 -4 -32 -16 -18 -16 -18 3 -12 18 6 18 6 -1
-9 -11 -8 -24 -13 -30 -10 -5 2 -1 -3 9 -11 18 -14 18 -16 3 -16 -15 0 -16 -4
-7 -20 8 -16 8 -20 -2 -18 -9 2 -13 -9 -12 -37 1 -22 -1 -34 -3 -27 -3 6 -8
12 -12 12 -9 0 -6 -36 5 -64 5 -14 4 -17 -5 -12 -14 9 -11 -16 4 -26 6 -5 4
-8 -5 -8 -13 0 -13 -1 0 -10 11 -7 11 -10 2 -10 -7 0 -10 -5 -7 -10 4 -6 11
-8 16 -5 5 4 9 1 9 -4 0 -6 -5 -11 -11 -11 -8 0 -9 -4 0 -13 6 -8 8 -17 4 -20
-3 -4 -1 -7 5 -7 7 0 11 -3 11 -7 -3 -20 2 -34 11 -28 5 3 7 0 4 -8 -3 -8 1
-21 9 -28 8 -8 13 -22 11 -31 -1 -11 3 -15 12 -11 9 3 14 -1 14 -12 0 -9 4
-13 10 -10 5 3 10 -1 10 -10 0 -9 4 -13 10 -10 5 3 10 0 10 -8 0 -17 27 -30
42 -20 7 3 8 1 4 -5 -7 -11 4 -16 20 -9 4 1 11 -8 15 -21 7 -19 12 -21 29 -12
11 6 20 7 19 3 -4 -24 4 -31 35 -29 23 1 32 -2 26 -9 -6 -7 -1 -11 12 -12 12
-1 25 -8 30 -15 6 -11 10 -10 17 1 7 11 10 9 15 -7 5 -14 14 -19 31 -17 13 1
22 -2 19 -6 -3 -5 0 -9 6 -9 6 0 8 -4 5 -10 -3 -5 -3 -10 2 -11 29 -2 47 -9
53 -19 6 -9 9 -9 13 1 3 8 6 4 6 -8 1 -16 7 -23 22 -23 11 0 17 -4 14 -10 -3
-5 -1 -10 5 -10 16 0 60 -47 60 -65 0 -8 7 -15 16 -15 8 0 12 -5 9 -10 -3 -6
1 -10 10 -10 9 0 13 -4 10 -10 -3 -5 0 -10 7 -10 10 0 9 -3 -2 -11 -12 -9 -11
-10 6 -6 13 3 21 -1 21 -9 0 -7 -5 -10 -11 -7 -6 4 4 -8 22 -26 19 -19 29 -38
25 -44 -4 -7 -8 -17 -9 -24 -3 -15 49 -68 54 -55 2 6 21 8 43 6 23 -2 49 1 60
6 14 8 19 7 19 -2 0 -10 2 -10 9 1 7 11 9 11 13 0 4 -10 9 -11 19 -3 16 11 22
12 61 1 20 -5 26 -12 23 -28 -2 -12 -9 -27 -15 -34 -6 -8 -7 -16 -2 -19 5 -3
5 -20 -2 -40 -6 -19 -15 -32 -21 -28 -5 3 -4 -2 4 -11 11 -14 11 -17 0 -18 -8
0 -5 -4 6 -9 18 -8 18 -9 -5 -10 -18 -2 -20 -4 -7 -7 9 -2 15 -9 11 -14 -3 -5
-9 -7 -13 -5 -4 3 -8 -1 -8 -8 0 -8 7 -12 16 -9 13 4 12 2 -2 -10 -10 -8 -17
-19 -16 -23 1 -5 0 -11 -1 -14 -7 -18 -5 -50 4 -50 5 0 3 -6 -6 -13 -17 -13
-37 -63 -21 -54 5 4 10 -1 10 -9 0 -9 -6 -13 -16 -9 -11 4 -10 1 3 -14 18 -19
18 -21 2 -27 -14 -5 -15 -9 -4 -15 8 -6 9 -9 2 -9 -7 0 -15 -7 -18 -16 -3 -8
-2 -13 3 -10 5 3 12 -1 15 -10 3 -8 2 -12 -4 -9 -6 3 -10 -1 -10 -10 0 -10 -5
-14 -12 -9 -10 5 -10 4 -1 -6 10 -11 9 -16 -5 -27 -9 -8 -11 -12 -5 -8 9 4 12
-2 11 -19 -1 -15 -7 -26 -13 -26 -5 0 -3 -5 5 -10 10 -6 11 -10 3 -10 -7 0
-13 -5 -13 -11 0 -5 6 -7 13 -3 6 4 3 -2 -7 -14 -19 -22 -19 -22 0 -23 15 0
16 -2 4 -7 -8 -4 -16 -20 -17 -36 -1 -16 -8 -33 -14 -36 -8 -6 -8 -9 0 -14 17
-11 13 -26 -6 -26 -14 0 -15 -2 -5 -9 7 -4 12 -12 11 -17 -1 -5 -1 -16 0 -24
1 -12 4 -11 12 3 8 14 14 16 25 6 11 -9 14 -8 14 5 0 10 5 14 10 11 6 -4 7
-11 4 -17 -5 -7 -2 -8 5 -4 7 5 10 14 7 22 -3 8 0 11 9 7 8 -3 12 -9 9 -15 -3
-5 3 -4 14 3 12 7 19 15 17 19 -2 3 7 5 20 5 13 0 21 -3 19 -7 -3 -4 2 -5 10
-2 9 3 13 11 10 16 -4 6 2 7 16 3 12 -4 20 -3 17 1 -3 5 6 10 19 10 15 1 22
-2 18 -10 -3 -6 1 -4 8 6 11 12 18 14 32 6 13 -7 17 -7 12 0 -7 11 21 25 35
16 5 -3 9 0 9 6 0 8 6 8 19 0 16 -8 22 -6 30 7 7 13 10 14 11 4 0 -16 15 -5
15 11 0 14 55 17 55 3 0 -5 5 -2 11 8 8 13 14 15 24 7 14 -12 45 -3 45 12 0 6
-8 4 -17 -3 -16 -12 -17 -12 -6 2 8 9 25 14 45 13 18 -1 40 2 50 7 11 6 19 5
23 -1 5 -8 11 -8 19 -1 7 6 16 8 20 4 4 -4 4 1 0 12 -5 16 -4 18 6 8 15 -14
43 -6 33 11 -3 6 4 2 16 -8 19 -17 21 -17 15 -3 -5 13 -2 16 10 11 10 -4 16
-1 16 7 0 11 3 11 10 -1 6 -10 10 -11 10 -2 0 6 5 12 11 12 5 0 7 -5 3 -12 -4
-7 -3 -8 4 -4 7 4 12 15 13 24 0 11 2 13 6 4 4 -9 8 -10 18 -2 10 8 15 8 20 0
5 -8 11 -8 21 1 7 6 11 16 7 22 -3 6 -1 7 5 3 6 -4 8 -14 5 -23 -6 -15 -5 -16
9 -3 9 8 14 18 11 23 -2 4 1 7 6 7 6 0 11 -6 11 -12 0 -9 3 -9 9 1 5 8 16 11
25 8 10 -4 16 -1 16 9 0 8 5 12 10 9 6 -4 8 -12 4 -18 -3 -7 1 -4 9 5 8 10 17
15 20 11 4 -3 7 -1 7 5 0 6 7 9 17 5 12 -5 14 -3 8 7 -6 10 -4 11 6 4 8 -5 24
-9 36 -9 17 -1 19 2 12 12 -8 9 -4 10 21 3 25 -7 30 -7 21 4 -8 9 -7 13 4 13
8 0 15 -4 15 -9 0 -5 5 -6 10 -3 6 4 7 11 4 17 -4 6 2 6 15 -1 18 -10 21 -9
22 6 0 16 1 16 9 -2 5 -11 9 -14 9 -6 1 7 7 11 16 8 8 -4 17 -2 20 4 4 5 11 6
17 3 6 -4 8 -2 5 3 -4 6 0 14 9 17 8 3 12 2 9 -4 -3 -5 4 -8 15 -7 11 1 18 7
16 13 -5 13 11 13 32 1 7 -5 15 -2 18 8 6 13 8 14 15 3 7 -10 9 -8 9 7 1 19 1
19 11 2 9 -15 13 -16 27 -5 12 10 14 10 8 0 -4 -7 -2 -12 4 -12 7 0 9 -7 6
-16 -4 -9 -2 -13 5 -8 6 4 15 0 20 -7 7 -11 9 -10 9 3 0 15 4 16 26 7 24 -8
25 -8 14 6 -11 13 -8 13 25 -1 25 -10 34 -11 29 -3 -5 9 -2 10 9 6 9 -3 18 -1
21 6 3 9 5 8 5 -1 1 -8 6 -10 14 -5 16 10 38 13 33 4 -3 -4 4 -7 14 -7 10 0
16 4 14 8 -3 4 0 8 5 8 6 0 11 -6 11 -12 0 -9 4 -8 10 2 9 13 10 13 10 0 0
-13 1 -13 10 0 9 13 10 13 10 0 0 -13 1 -13 10 0 5 8 10 10 10 4 0 -12 69 -13
88 -1 7 5 12 3 12 -4 0 -7 7 -4 16 7 8 10 13 14 10 7 -4 -6 -2 -14 4 -18 5 -3
10 0 10 7 0 9 3 9 10 -2 9 -13 10 -13 10 0 0 9 3 11 8 5 9 -14 55 -13 64 0 5
6 8 5 8 -4 0 -10 3 -11 13 -2 8 6 17 7 21 3 11 -10 68 -14 153 -9 7 0 10 4 7
9 -3 4 0 8 6 8 6 0 8 5 5 10 -7 12 23 9 44 -4 9 -6 12 -5 7 2 -3 6 1 9 11 8 9
-2 20 -11 24 -22 7 -18 8 -18 9 1 1 19 1 19 14 2 15 -19 31 -24 20 -5 -4 6 3
4 15 -5 25 -17 55 -12 44 7 -4 6 1 5 10 -3 9 -7 17 -19 17 -25 0 -6 -5 -4 -10
4 -5 8 -10 10 -10 4 0 -18 13 -24 27 -13 9 8 13 8 13 1 0 -6 6 -9 14 -6 8 3
17 0 21 -6 5 -8 11 -7 23 2 9 7 13 8 10 3 -4 -6 3 -17 15 -25 20 -12 21 -12 8
3 -17 22 2 22 23 1 12 -12 16 -12 16 -2 0 10 2 10 8 1 4 -7 24 -13 45 -15 20
-1 37 -6 37 -11 0 -5 9 -7 20 -4 14 4 20 0 20 -11 0 -10 3 -13 8 -7 10 14 32
17 32 5 0 -12 36 -14 43 -2 2 4 2 2 1 -5 -2 -7 1 -15 6 -18 6 -4 10 0 10 7 0
9 3 9 8 2 4 -6 17 -10 30 -9 14 1 22 -4 23 -14 0 -12 2 -11 8 3 7 18 8 18 14
2 6 -16 10 -16 24 -5 12 10 14 10 9 2 -5 -9 -1 -13 13 -13 11 0 23 -5 26 -10
5 -8 11 -7 21 1 11 9 15 8 20 -5 3 -9 10 -16 16 -16 5 0 6 6 2 12 -4 7 1 6 12
-3 29 -24 48 -34 40 -21 -12 19 15 14 30 -5 12 -16 13 -16 8 -1 -4 13 -1 15
15 11 12 -3 21 -10 21 -15 0 -6 13 -8 29 -6 17 2 30 2 29 -1 -2 -19 4 -24 12
-11 8 12 10 12 10 1 0 -11 3 -11 17 0 14 12 16 12 8 0 -6 -11 -4 -13 8 -8 9 3
28 -3 43 -16 24 -18 27 -19 21 -4 -6 16 -4 16 19 -2 22 -17 30 -19 42 -9 13
11 14 11 7 -1 -6 -11 -3 -13 13 -9 13 4 23 0 26 -9 5 -11 10 -12 27 -2 12 6
19 7 15 1 -3 -5 1 -13 10 -16 8 -3 12 -2 9 4 -9 15 12 12 28 -4 11 -11 17 -12
27 -3 10 9 11 9 6 0 -5 -9 0 -13 16 -13 47 0 58 -3 48 -15 -6 -7 -3 -11 11
-11 13 0 18 5 14 15 -4 11 -3 12 10 1 8 -7 12 -17 8 -24 -4 -8 -2 -7 7 1 7 6
20 9 29 6 9 -4 13 -3 9 2 -4 4 -2 17 4 28 8 16 8 19 -4 14 -9 -3 -15 1 -15 9
0 8 4 14 9 14 5 0 3 6 -4 14 -7 8 -17 11 -22 8 -5 -3 -5 1 0 9 13 21 14 42 3
55 -7 8 -6 14 3 17 10 4 10 8 -2 16 -8 5 -11 13 -7 17 4 4 1 14 -6 22 -10 13
-9 14 2 8 9 -6 12 -5 9 5 -3 8 -11 13 -17 12 -18 -5 -12 15 7 20 16 4 16 5 0
6 -10 0 -18 6 -18 12 0 5 4 8 9 4 5 -3 13 0 17 6 4 7 3 9 -4 5 -16 -9 -26 13
-24 54 2 26 0 31 -8 20 -5 -8 -10 -10 -10 -5 0 6 5 16 12 23 9 9 9 12 0 12 -7
0 -12 5 -12 11 0 5 4 8 8 5 5 -3 9 1 9 9 0 8 -5 13 -11 12 -6 -1 -10 6 -8 16
2 9 -2 17 -9 17 -8 0 -8 4 1 15 10 12 10 15 -1 15 -11 0 -11 2 1 10 12 8 12
10 1 10 -11 0 -11 3 -1 15 11 13 10 14 -5 9 -15 -6 -16 -4 -7 12 7 13 7 26 1
37 -6 9 -7 22 -3 29 5 7 2 9 -7 6 -11 -4 -14 4 -12 34 0 22 4 42 7 45 3 3 -4
14 -16 24 -15 14 -17 19 -6 19 8 0 15 7 15 15 0 10 -4 12 -12 5 -8 -6 -11 -1
-9 20 1 18 -4 31 -13 34 -12 5 -13 9 -3 21 6 8 9 18 7 22 -3 5 3 10 14 10 11
1 17 -2 15 -6 -6 -10 25 -8 42 3 6 4 12 2 12 -3 0 -13 22 -10 33 4 4 6 11 4
17 -5 9 -13 10 -13 10 0 0 12 2 13 9 1 6 -10 13 -11 27 -3 13 7 25 6 43 -6 25
-16 25 -16 12 1 -13 16 -12 17 13 8 21 -9 26 -8 26 4 0 8 6 15 13 15 8 0 7 4
-3 10 -14 9 -13 11 9 14 15 2 25 16 12 16 -7 0 -9 5 -6 10 4 6 12 7 18 4 9 -5
9 -3 0 6 -10 11 -9 16 5 27 11 10 12 12 2 8 -8 -4 -4 3 10 15 14 12 19 19 13
15 -9 -4 -11 -1 -7 9 3 9 11 13 17 9 6 -4 8 0 4 10 -4 10 1 18 13 22 12 4 17
12 13 21 -3 9 0 14 8 12 8 -2 13 3 12 10 -2 6 4 12 13 12 8 0 13 4 10 9 -4 5
6 14 21 19 16 6 22 11 16 11 -7 1 -13 6 -13 11 0 6 8 10 18 8 9 -2 16 2 15 9
-2 8 4 10 14 6 11 -4 14 -3 9 5 -4 7 -1 12 9 12 10 0 13 5 9 12 -5 7 -3 8 5 3
8 -4 18 1 27 14 9 12 20 19 25 16 5 -4 9 -2 9 4 0 6 7 7 17 4 11 -4 14 -3 9 5
-4 8 0 12 11 12 11 0 25 6 32 12 11 10 12 10 7 1 -5 -9 -2 -11 8 -7 9 3 13 10
10 15 -5 9 17 13 45 10 7 -2 10 2 6 8 -9 15 8 14 24 -1 11 -11 11 -9 1 12 -10
20 -10 23 0 13 11 -10 16 -9 27 5 8 9 12 11 8 5 -3 -7 -1 -13 4 -13 6 0 11 5
11 10 0 6 7 10 15 10 8 0 15 5 15 10 0 6 6 10 13 10 20 0 58 35 49 46 -4 4 1
2 11 -5 15 -12 17 -12 12 1 -4 9 1 18 10 22 9 3 13 10 10 16 -3 5 -1 10 5 10
6 0 8 5 5 10 -4 6 -1 9 7 8 7 -2 12 5 12 15 -2 15 1 16 14 5 13 -11 14 -11 8
1 -5 8 -3 17 5 22 10 6 11 9 2 9 -7 0 -13 5 -13 11 0 5 4 8 9 5 9 -6 34 39 37
66 1 10 -3 15 -9 11 -6 -4 -8 0 -4 11 4 10 7 20 7 22 0 3 4 3 9 0 4 -3 6 6 3
19 -2 14 -7 23 -11 20 -4 -2 -5 9 -3 25 2 17 8 27 13 24 16 -9 10 3 -8 17 -14
12 -16 12 -8 0 5 -10 4 -12 -4 -7 -9 6 -9 11 0 22 10 12 6 18 -12 16 -3 -1 -6
5 -6 13 0 8 4 12 8 9 4 -2 10 0 14 6 3 5 -1 10 -10 10 -9 0 -13 5 -10 10 3 6
2 10 -3 10 -5 0 -8 11 -6 25 1 17 -4 29 -17 36 -16 8 -17 13 -7 32 6 12 12 24
12 27 1 3 4 4 8 3 11 -4 21 44 12 58 -4 8 -3 9 4 5 7 -4 12 -1 12 6 0 10 3 9
11 -2 8 -12 9 -9 4 9 -6 21 -5 23 11 17 15 -6 16 -4 7 5 -9 9 -8 15 3 26 8 8
14 24 14 36 0 18 2 20 11 7 9 -12 10 -11 6 7 -3 13 1 24 10 27 8 3 11 10 8 16
-3 5 -1 10 5 10 6 0 8 5 4 12 -5 8 -2 9 11 4 14 -5 15 -4 7 7 -7 8 -7 18 -2
27 5 8 6 19 2 25 -3 5 1 5 9 -2 11 -9 14 -7 16 10 5 53 11 71 29 92 11 12 18
28 16 35 -3 8 0 10 8 5 8 -5 11 -4 7 3 -10 15 3 43 17 35 6 -4 5 1 -3 10 -13
16 -8 22 13 18 5 -1 4 5 -3 13 -11 13 -10 17 3 22 9 3 16 10 16 16 0 5 -4 6
-10 3 -5 -3 -10 -1 -10 4 0 6 5 11 11 11 5 0 7 5 4 10 -3 6 -1 10 4 10 6 0 11
7 11 16 0 9 5 12 11 8 8 -5 9 -2 1 12 -6 11 -7 27 -1 41 5 13 6 23 3 23 -4 0
-1 7 6 15 6 8 8 20 4 27 -6 10 -5 11 8 1 13 -11 15 -8 13 23 -2 25 1 34 10 30
8 -3 11 2 8 15 -3 10 -10 16 -17 13 -6 -3 0 3 13 14 15 12 19 21 12 23 -7 3
-9 12 -6 22 4 9 12 14 17 11 6 -4 5 3 -1 15 -9 17 -9 20 3 15 10 -4 22 6 36
28 11 18 20 29 20 23 0 -5 5 -2 11 8 5 9 8 21 5 26 -4 5 3 7 14 4 16 -4 19 -2
13 12 -4 13 -3 16 5 11 7 -4 12 -1 12 8 0 9 6 13 14 10 9 -3 13 1 13 13 -1 10
4 17 10 16 13 -3 44 56 48 90 2 9 4 20 5 25 3 8 3 10 -4 46 -2 14 0 28 5 31 5
4 9 11 9 17 0 6 -7 5 -17 -3 -15 -12 -16 -12 -8 1 11 18 16 182 5 175 -5 -3
-7 2 -6 11 1 8 9 20 17 25 8 5 9 9 3 9 -16 0 -25 38 -12 47 6 3 8 1 4 -5 -3
-6 -2 -13 3 -16 5 -4 8 2 6 11 -2 10 -4 22 -4 26 -1 5 -7 5 -13 1 -9 -5 -9 -2
1 9 7 9 10 17 5 17 -5 0 -1 5 9 11 14 8 16 14 6 25 -9 11 -8 14 5 14 9 0 15 3
15 8 -1 4 -1 20 0 35 1 20 5 26 14 21 9 -6 9 -4 -1 8 -9 11 -10 18 -2 23 5 3
10 16 10 29 0 12 6 28 13 35 8 10 8 12 0 7 -8 -4 -11 1 -10 14 1 11 4 20 7 20
4 0 7 7 7 15 0 8 -4 15 -9 15 -4 0 -8 7 -8 15 0 8 5 15 11 15 5 0 7 5 4 10 -4
6 -11 8 -16 5 -5 -3 -6 2 -2 11 4 11 2 15 -4 11 -6 -4 -13 4 -15 17 -4 19 -1
23 11 19 9 -2 5 2 -8 10 -18 11 -20 16 -10 20 10 4 9 6 -4 6 -10 1 -15 6 -12
11 3 6 1 10 -4 10 -6 0 -10 3 -10 8 3 19 -2 33 -11 27 -5 -3 -10 1 -10 9 0 9
-6 16 -13 16 -7 0 -18 9 -25 20 -7 11 -19 20 -26 20 -8 0 -16 5 -18 11 -2 5
-11 11 -21 13 -10 1 -28 11 -40 21 -12 11 -25 19 -29 17 -5 -1 -8 5 -8 13 0 8
-6 15 -12 15 -9 0 -8 4 2 10 12 8 13 11 1 19 -9 6 -10 11 -2 15 17 11 3 26
-17 19 -11 -4 -8 2 8 17 22 20 23 22 4 16 -15 -4 -21 -2 -21 9 0 8 5 15 11 15
7 0 6 3 -1 8 -7 4 -13 22 -15 39 -1 17 -5 30 -9 27 -4 -2 -11 6 -15 18 -12 36
-13 49 -4 43 5 -3 4 8 -1 25 -6 16 -15 30 -21 30 -5 0 -8 8 -6 18 2 9 -3 23
-12 30 -8 8 -10 11 -4 8 7 -3 14 1 17 9 4 10 1 12 -10 8 -12 -5 -15 -2 -10 10
4 10 2 14 -7 11 -7 -3 -13 2 -13 10 0 8 4 13 9 10 5 -4 4 3 -4 15 -7 12 -16
21 -20 21 -5 0 -8 5 -8 11 0 5 5 7 10 4 6 -3 10 -1 10 4 0 6 -5 11 -10 11 -6
0 -10 8 -8 18 2 11 -3 17 -14 16 -10 -1 -16 2 -13 6 3 5 1 11 -4 15 -6 3 -8
12 -5 19 3 7 -2 19 -11 26 -12 10 -13 16 -3 28 10 13 10 14 1 8 -9 -5 -13 -1
-13 10 0 9 -8 23 -17 31 -11 9 -12 11 -3 7 10 -5 8 1 -5 16 -11 13 -14 20 -6
15 10 -6 12 -4 7 4 -5 7 -14 10 -20 8 -7 -3 -13 1 -13 9 0 7 5 10 10 7 6 -3 7
-1 3 5 -4 7 -15 12 -24 12 -11 0 -13 3 -6 8 12 7 11 39 -2 50 -4 4 -5 0 -2 -9
4 -9 1 -16 -7 -16 -7 0 -11 6 -8 14 3 7 -1 21 -8 30 -12 14 -12 16 1 9 13 -7
13 -6 0 6 -8 7 -22 22 -30 32 -12 16 -12 18 -1 11 10 -5 12 -4 7 3 -4 7 -14
12 -22 12 -8 0 -14 5 -14 11 0 5 5 7 12 3 7 -4 8 -3 4 4 -4 7 -15 12 -24 13
-14 0 -13 2 3 9 17 7 17 9 3 9 -16 1 -23 12 -19 34 1 5 -3 6 -9 2 -5 -3 -10
-1 -10 5 0 6 -5 8 -12 4 -8 -5 -7 0 2 11 9 11 10 16 3 11 -9 -5 -13 0 -13 14
0 15 -5 20 -14 17 -11 -4 -13 -1 -9 10 5 12 3 14 -8 8 -11 -7 -11 -5 1 10 9
11 10 16 3 11 -8 -4 -13 -2 -13 4 0 6 -4 9 -9 6 -5 -3 -12 1 -15 10 -4 10 -2
13 7 9 6 -4 0 3 -16 15 -15 12 -25 26 -22 30 3 5 -3 15 -13 22 -11 7 -20 18
-21 23 -1 6 -10 9 -19 7 -10 -2 -13 1 -7 5 13 11 18 36 5 28 -5 -3 -10 -1 -10
5 0 6 -4 8 -10 5 -9 -5 -14 7 -11 27 0 4 -8 10 -19 13 -11 4 -20 13 -20 21 0
8 -4 14 -10 14 -5 0 -10 7 -10 15 0 9 -11 20 -25 25 -14 5 -25 12 -25 15 0 4
6 3 13 -1 9 -6 9 -5 0 8 -7 8 -10 18 -6 22 4 4 0 4 -9 1 -9 -4 -19 -1 -24 6
-5 8 -3 10 7 4 8 -5 11 -4 6 1 -5 5 -12 9 -15 10 -4 0 -15 4 -25 9 -13 5 -15
11 -7 20 13 16 3 23 -27 20 -15 -1 -20 2 -14 9 5 7 1 19 -12 31 -11 12 -17 14
-13 5 4 -8 -2 -4 -13 9 -12 12 -18 27 -15 32 3 5 -3 6 -12 2 -14 -5 -16 -3
-11 12 7 16 5 16 -10 4 -10 -7 -15 -10 -11 -5 9 11 -14 36 -26 28 -5 -3 -7 2
-3 11 4 12 2 14 -10 10 -11 -4 -14 -2 -9 5 4 7 1 12 -9 12 -10 0 -13 5 -9 12
5 8 2 9 -10 5 -13 -5 -17 -3 -13 7 4 10 1 13 -7 10 -8 -3 -17 0 -22 7 -4 8 -3
10 4 5 7 -4 12 -2 12 3 0 10 -22 16 -44 12 -5 -1 -6 7 -3 18 4 18 2 19 -14 11
-15 -9 -17 -8 -12 6 4 12 3 15 -5 10 -7 -4 -12 -2 -12 5 0 7 -3 9 -6 6 -4 -4
-24 12 -45 34 -22 23 -39 36 -39 30 0 -8 -4 -8 -14 1 -8 7 -11 17 -8 22 3 5
-4 7 -16 4 -15 -4 -23 0 -27 13 -4 11 -11 17 -16 14 -5 -4 -9 1 -9 9 0 9 -9
16 -20 16 -11 0 -20 5 -20 12 0 6 -3 9 -6 5 -4 -3 -15 4 -26 16 -11 12 -17 16
-13 10 3 -7 2 -13 -2 -13 -5 0 -13 10 -18 22 -6 12 -19 23 -29 24 -10 2 -22 8
-26 14 -6 9 -9 9 -13 -1 -4 -9 -6 -8 -6 5 -1 15 -4 16 -16 6 -12 -10 -14 -8
-10 8 3 15 -1 19 -16 15 -10 -3 -19 0 -19 6 0 6 -7 11 -16 11 -9 0 -12 5 -8
13 5 7 0 6 -11 -3 -17 -14 -18 -13 -13 2 5 13 1 15 -19 13 -18 -2 -27 3 -30
16 -4 13 -14 19 -35 19 -17 0 -27 4 -23 10 3 6 4 10 1 10 -2 0 -12 3 -22 7
-13 5 -15 3 -9 -8 4 -8 -4 -1 -19 15 -15 17 -31 26 -41 23 -8 -4 -15 -2 -15 4
0 6 -4 7 -10 4 -5 -3 -20 1 -33 10 -13 8 -27 12 -30 8 -4 -3 -7 1 -7 10 0 10
-5 17 -11 17 -5 0 -8 -4 -4 -9 3 -5 1 -13 -5 -16 -6 -4 -10 -3 -9 2 1 4 1 14
0 22 -1 11 -4 11 -18 0 -11 -10 -14 -10 -9 -1 6 11 -17 18 -46 13 -4 0 -5 5
-2 13 4 10 -2 12 -22 8 -19 -3 -25 -1 -20 7 6 9 0 10 -20 5 -18 -5 -25 -3 -20
4 3 6 2 13 -4 17 -5 3 -10 1 -10 -4 0 -15 -17 -14 -32 2 -7 8 -20 12 -30 9
-13 -3 -18 1 -18 14 0 14 -3 16 -9 6 -6 -10 -10 -10 -21 3 -10 11 -16 13 -26
4 -11 -9 -15 -7 -20 5 -5 13 -9 14 -20 5 -8 -7 -17 -9 -21 -5 -3 3 -1 6 6 6 7
0 9 5 6 10 -4 6 -10 8 -15 5 -5 -3 -19 -1 -31 6 -15 8 -19 8 -15 0 4 -6 2 -11
-3 -11 -6 0 -11 5 -11 11 0 5 -5 7 -12 3 -6 -4 -18 2 -26 12 -11 15 -13 15 -9
2 6 -18 -7 -18 -40 0 -13 7 -23 10 -23 6 0 -3 -6 -2 -13 5 -10 8 -17 7 -25 -1
-8 -8 -12 -9 -12 -1 0 6 -7 14 -16 17 -8 3 -12 2 -9 -4 3 -6 1 -10 -4 -10 -6
0 -11 5 -11 10 0 6 -5 10 -11 10 -5 0 -8 -4 -5 -8 3 -5 -1 -9 -9 -9 -8 0 -12
4 -9 8 3 5 -8 8 -23 8 -15 0 -230 1 -476 3 -247 2 -451 0 -453 -4z m-950 -293
c-4 -8 -11 -15 -16 -15 -6 0 -5 6 2 15 7 8 14 15 16 15 2 0 1 -7 -2 -15z
m-151 -80 c-3 -9 -8 -14 -10 -11 -3 3 -2 9 2 15 9 16 15 13 8 -4z m3212 -54
c3 -5 2 -12 -3 -15 -5 -3 -9 1 -9 9 0 17 3 19 12 6z m-4665 -1731 c0 -5 -5
-10 -11 -10 -5 0 -7 5 -4 10 3 6 8 10 11 10 2 0 4 -4 4 -10z m-170 -324 c0 -2
-8 -10 -17 -17 -16 -13 -17 -12 -4 4 13 16 21 21 21 13z m-60 -1051 c14 -19
14 -19 -2 -6 -10 7 -18 18 -18 24 0 6 1 8 3 6 1 -2 9 -13 17 -24z m50 -45 c0
-5 -2 -10 -4 -10 -3 0 -8 5 -11 10 -3 6 -1 10 4 10 6 0 11 -4 11 -10z m6293
-95 c-3 -9 -8 -14 -10 -11 -3 3 -2 9 2 15 9 16 15 13 8 -4z m-6153 -99 c0 -11
-19 -15 -25 -6 -3 5 1 10 9 10 9 0 16 -2 16 -4z m5786 -1244 c-17 -16 -18 -16
-5 5 7 12 15 20 18 17 3 -2 -3 -12 -13 -22z m-145 -195 c-10 -9 -11 -8 -5 6 3
10 9 15 12 12 3 -3 0 -11 -7 -18z m-4894 -159 c-3 -8 -6 -5 -6 6 -1 11 2 17 5
13 3 -3 4 -12 1 -19z m288 -339 c11 -16 1 -19 -13 -3 -7 8 -8 14 -3 14 5 0 13
-5 16 -11z m282 -25 c-3 -3 -12 -4 -19 -1 -8 3 -5 6 6 6 11 1 17 -2 13 -5z
m-63 -390 c3 -8 2 -12 -4 -9 -6 3 -10 10 -10 16 0 14 7 11 14 -7z m1800 -142
c2 -4 -5 -9 -17 -9 -17 -2 -19 0 -7 7 18 12 18 12 24 2z m-603 -19 c13 -16 12
-17 -3 -4 -17 13 -22 21 -14 21 2 0 10 -8 17 -17z"/>
<path d="M2270 6779 c0 -5 5 -7 10 -4 6 3 10 8 10 11 0 2 -4 4 -10 4 -5 0 -10
-5 -10 -11z"/>
<path d="M1326 6193 c-6 -14 -5 -15 5 -6 7 7 10 15 7 18 -3 3 -9 -2 -12 -12z"/>
<path d="M6345 5121 c-3 -5 -2 -12 3 -15 5 -3 9 1 9 9 0 17 -3 19 -12 6z"/>
<path d="M540 5100 c-9 -6 -10 -10 -3 -10 6 0 15 5 18 10 8 12 4 12 -15 0z"/>
<path d="M6460 4796 c0 -2 8 -10 18 -17 15 -13 16 -12 3 4 -13 16 -21 21 -21
13z"/>
<path d="M6570 4526 c0 -2 8 -10 18 -17 15 -13 16 -12 3 4 -13 16 -21 21 -21
13z"/>
<path d="M100 4185 c5 -7 6 -16 2 -21 -4 -5 -3 -5 2 -1 15 12 15 34 0 34 -9 0
-11 -4 -4 -12z"/>
<path d="M100 4139 c0 -5 5 -7 10 -4 6 3 10 8 10 11 0 2 -4 4 -10 4 -5 0 -10
-5 -10 -11z"/>
<path d="M165 3580 c3 -5 8 -10 11 -10 2 0 4 5 4 10 0 6 -5 10 -11 10 -5 0 -7
-4 -4 -10z"/>
<path d="M6730 3459 c0 -5 5 -7 10 -4 6 3 10 8 10 11 0 2 -4 4 -10 4 -5 0 -10
-5 -10 -11z"/>
<path d="M6475 3040 c-3 -5 -1 -10 4 -10 6 0 11 5 11 10 0 6 -2 10 -4 10 -3 0
-8 -4 -11 -10z"/>
<path d="M6361 2716 c-9 -11 -9 -16 1 -22 7 -4 10 -4 6 1 -4 4 -3 14 3 22 6 7
9 13 6 13 -2 0 -10 -6 -16 -14z"/>
<path d="M716 2342 c-3 -5 1 -9 9 -9 8 0 12 4 9 9 -3 4 -7 8 -9 8 -2 0 -6 -4
-9 -8z"/>
<path d="M1395 1300 c3 -5 11 -10 16 -10 6 0 7 5 4 10 -3 6 -11 10 -16 10 -6
0 -7 -4 -4 -10z"/>
<path d="M5314 456 c1 -8 5 -18 8 -22 4 -3 5 1 4 10 -1 8 -5 18 -8 22 -4 3 -5
-1 -4 -10z"/>
<path d="M2007 449 c7 -7 15 -10 18 -7 3 3 -2 9 -12 12 -14 6 -15 5 -6 -5z"/>
<path d="M3147 114 c-3 -3 -3 -12 0 -19 4 -11 72 -14 364 -13 198 0 357 3 354
6 -3 3 -30 4 -61 3 -36 -2 -54 1 -50 8 4 5 2 13 -4 16 -6 4 -10 3 -9 -2 4 -22
-3 -25 -17 -7 -12 15 -14 15 -11 2 6 -17 -16 -19 -30 -3 -5 4 -1 5 7 0 8 -5
12 -4 7 0 -11 13 -38 15 -31 3 5 -7 2 -8 -7 -2 -21 13 -241 13 -258 0 -9 -7
-12 -7 -9 -1 5 7 -25 11 -88 11 -52 0 -94 -3 -94 -7 0 -4 11 -6 25 -4 14 1 27
-1 30 -5 6 -9 -51 -7 -61 3 -10 10 -26 9 -20 -2 4 -5 -3 -7 -15 -4 -16 4 -17
8 -7 14 7 5 8 9 2 9 -6 0 -13 -3 -17 -6z"/>
<path d="M3101 102 c-1 -7 -5 -11 -9 -8 -4 2 -13 1 -20 -3 -6 -4 6 -7 27 -8
31 -1 38 2 34 14 -4 11 -8 12 -13 3 -6 -9 -9 -9 -13 1 -4 11 -6 11 -6 1z"/>
<path d="M3011 90 c-9 -5 -4 -7 13 -7 29 0 32 2 13 10 -8 3 -20 2 -26 -3z"/>
<path d="M3888 83 c7 -3 16 -2 19 1 4 3 -2 6 -13 5 -11 0 -14 -3 -6 -6z"/>
</g>
</svg>
