<svg xmlns="http://www.w3.org/2000/svg" width="431" height="219" fill="none" viewBox="0 0 431 219"><g opacity=".2"><path fill="#CE7A58" d="M189.413 94.7981C189.704 94.985 190.03 95.1108 190.37 95.1679C190.711 95.225 191.06 95.2123 191.396 95.1304C191.732 95.0485 192.048 94.8991 192.324 94.6914C192.6 94.4838 192.831 94.2221 193.004 93.9223C193.354 93.3098 193.455 92.5855 193.285 91.9005C193.114 91.2155 192.686 90.6226 192.089 90.2457C191.803 90.0583 191.482 89.9315 191.145 89.8732C190.808 89.8148 190.463 89.8261 190.13 89.9064C189.798 89.9866 189.486 90.1341 189.212 90.3398C188.939 90.5455 188.711 90.805 188.542 91.1023C188.181 91.7115 188.071 92.4366 188.233 93.1256C188.396 93.8146 188.818 94.414 189.413 94.7981Z"/><path fill="#CE7A58" d="M217.036 85.9033C216.717 86.5199 216.274 87.0642 215.736 87.5022C215.197 87.9402 214.574 88.2624 213.905 88.4488C213.236 88.6352 212.536 88.6817 211.848 88.5855C211.161 88.4893 210.5 88.2524 209.908 87.8896C208.689 87.1476 207.797 85.9693 207.415 84.5938C207.032 83.2183 207.188 81.7488 207.85 80.4838C208.171 79.8747 208.613 79.3377 209.149 78.9057C209.685 78.4736 210.304 78.1558 210.968 77.9716C211.631 77.7873 212.325 77.7407 213.007 77.8344C213.69 77.9282 214.345 78.1604 214.934 78.5167C216.165 79.2434 217.07 80.4153 217.461 81.7901C217.852 83.1649 217.7 84.6375 217.036 85.9033ZM215.573 85.0559C216.016 84.1969 216.113 83.2008 215.843 82.2726C215.574 81.3444 214.959 80.5548 214.126 80.0661C213.742 79.8397 213.318 79.6918 212.877 79.6312C212.436 79.5706 211.987 79.5984 211.557 79.7131C211.127 79.8277 210.724 80.0268 210.371 80.2989C210.019 80.5709 209.724 80.9104 209.505 81.2975C209.064 82.1556 208.964 83.1486 209.224 84.0775C209.485 85.0064 210.086 85.8026 210.909 86.3066C211.695 86.7505 212.624 86.8682 213.497 86.6343C214.369 86.4005 215.114 85.8337 215.573 85.0559Z"/><path fill="#CE7A58" d="M303.279 35.2319C300.967 38.0136 298.329 40.5078 295.422 42.6607C284.061 51.1248 272.244 58.9603 260.025 66.1319C244.667 75.4035 229.82 83.1548 229.82 83.1548C229.82 83.1548 223.366 87.116 220.414 89.3096C215.149 92.7887 211.415 98.1514 209.98 104.297C207.136 112.936 201.949 120.615 194.997 126.48C185.07 133.83 173.5 138.647 161.289 140.514C143.656 142.992 125.84 143.923 108.044 143.298C83.7662 142.883 59.6694 139.033 36.4709 131.863L38.6201 127.752C42.8261 129.187 59.673 133.468 63.4229 134.227L63.9107 132.769C59.8537 131.785 47.9508 128.507 39.5007 126.016L41.3483 122.505C48.0578 124.685 59.985 128.367 65.1161 129.441L65.6085 127.877C59.8155 126.478 48.7898 122.963 42.3106 120.835L44.072 117.363C50.1724 119.453 61.5628 123.321 66.7421 124.736L67.2393 123.067C61.7388 121.744 50.8567 117.855 44.8856 115.708L46.4172 112.648C52.1533 114.848 63.3327 118.707 68.3203 120.156L68.7935 118.549C61.5165 116.139 54.3354 113.635 47.25 111.036L49.6478 106.091C63.8091 111.748 78.3608 116.374 93.1893 119.933C114.775 125.67 137.139 127.923 159.436 126.607C180.525 124.397 187.64 118.436 193.943 111.234C197.702 106.098 199.897 99.9862 200.266 93.6327C200.933 87.7013 199.207 77.0973 208.245 72.0887C210.598 70.8128 213.224 70.1209 215.9 70.071C218.577 70.0211 221.226 70.6147 223.626 71.802C252.057 63.8762 278.871 51.0038 302.836 33.7747C303.054 34.2363 303.203 34.7272 303.279 35.2319ZM75.6444 128.938C76.4568 125.888 76.4654 124.747 75.2568 124.355C75.2568 124.355 73.5538 123.201 72.1767 127.536C70.7997 131.872 71.3808 133.06 72.431 133.213C73.4811 133.365 74.3775 133.173 75.6444 128.938ZM81.3029 130.036C81.9094 127.336 81.9133 126.3 80.7863 125.975C80.7863 125.975 79.2272 124.912 78.147 128.753C77.0668 132.595 77.5087 133.587 78.4726 133.778C79.4365 133.969 80.3521 133.819 81.3892 129.997L81.3029 130.036ZM86.9849 130.606C87.5629 128.074 87.5859 127.082 86.5021 126.737C86.5021 126.737 84.9814 125.761 83.949 129.477C82.9166 133.194 83.3633 134.08 84.404 134.444C85.4447 134.807 86.0819 134.265 87.0711 130.568L86.9849 130.606ZM92.6626 131.747C93.1927 129.34 93.1487 128.429 92.1464 128.152C92.1464 128.152 90.7504 127.223 89.8137 130.69C88.877 134.157 89.3476 134.981 90.206 135.168C91.0644 135.354 91.8985 135.137 92.792 131.689L92.6626 131.747ZM209.122 94.1332C208.113 93.7381 207.131 93.2777 206.182 92.7549C206.048 92.453 207.408 124.052 160.073 131.286C139.234 133.305 118.219 132.532 97.5842 128.986L96.1041 136.107C95.9606 136.481 144.661 138.927 160.13 135.706C172.666 133.792 205.104 126.423 209.252 94.0755L209.122 94.1332ZM218.432 86.8326C219.295 85.1457 219.485 83.1933 218.961 81.3719C218.438 79.5505 217.241 77.9965 215.614 77.0254C214.845 76.5757 213.994 76.2847 213.111 76.1695C212.228 76.0544 211.331 76.1176 210.473 76.3553C209.615 76.5929 208.814 77.0003 208.116 77.5533C207.418 78.1062 206.838 78.7935 206.41 79.5746C205.53 81.2544 205.317 83.2054 205.816 85.0353C206.315 86.8653 207.488 88.4387 209.099 89.4393C209.89 89.9065 210.768 90.2084 211.679 90.327C212.59 90.4456 213.515 90.3784 214.4 90.1294C215.284 89.8804 216.109 89.4548 216.824 88.8782C217.539 88.3017 218.13 87.5862 218.561 86.7749L218.432 86.8326ZM249.81 67.6847C247.265 68.8184 227.685 76.0416 226.051 76.6664C226.844 77.4222 227.307 78.4609 227.338 79.5563C235.141 76.1015 242.677 72.0708 249.881 67.4976L249.81 67.6847Z"/><path fill="#CE7A58" d="M140.292 94.1943C144.061 94.0663 147.81 93.8953 151.559 93.7242L151.806 96.2507C147.971 96.4602 144.135 96.6697 140.304 96.7737L140.38 100.772C144.234 100.606 148.089 100.44 151.968 100.211L152.161 102.502C148.283 102.731 144.366 102.874 140.468 103.059L140.601 107.187C144.561 107.026 148.478 106.883 152.462 106.659L152.56 108.735C148.638 108.983 144.659 109.101 140.656 109.282L140.817 113.243C144.84 113.105 148.862 112.967 152.827 112.7L152.968 114.757C148.941 115 144.918 115.138 140.872 115.338L141 119.571C145.066 119.414 149.175 119.238 153.36 119.234L153.487 121.142C149.354 121.381 145.269 121.495 141.083 121.498L141.148 124.313C141.148 124.313 153.403 124.436 159.18 123.827L156.446 89.8412L148.264 76.1168L144.64 76.3357C147.198 80.917 149.805 85.4935 152.462 90.0652L150.046 90.2111C147.333 85.6299 144.639 81.0919 142.013 76.4722L138.033 76.5908C140.66 81.2104 143.368 85.8971 146.081 90.4783L143.645 90.5811C141.062 85.9423 138.478 81.3034 136 76.6693L131.873 76.8023C134.538 81.5082 137.183 86.171 139.935 90.8384L140.292 94.1943Z"/><path fill="#CE7A58" d="M161.965 123.465C163.279 123.432 164.585 123.249 165.858 122.92C165.028 111.658 164.131 100.478 163.153 89.231C160.349 84.7938 157.613 80.2749 154.895 75.7992L150.825 76.0616C153.518 80.5997 156.298 85.0993 159.078 89.599C160.119 100.87 161.116 112.16 161.965 123.465Z"/><path fill="#CE7A58" d="M163.367 142.277C155.172 143.552 146.914 144.383 138.63 144.768L141.16 148.242C147.334 147.714 153.452 147.057 159.593 146.337L159.877 148.02C154.033 148.71 148.17 149.358 142.292 149.857L144.688 153.029C149.995 152.525 155.283 151.979 160.455 151.174L160.84 152.967C155.951 153.594 151.003 154.092 145.979 154.418L148.681 157.815C152.929 157.37 157.195 156.968 161.467 156.461L161.823 158.422C157.935 158.862 154.028 159.258 150.121 159.655L152.502 162.678C155.826 162.403 159.124 162.071 162.397 161.682L162.849 163.858C159.877 164.148 156.905 164.439 153.956 164.667L152.296 169.18L154.743 170.261L155.762 167.791L157.905 167.612L156.488 170.931L158.997 172.036L161.088 167.331L163.125 167.147L160.503 172.864L164.024 174.501L167.805 166.975L163.367 142.277Z"/><path fill="#CE7A58" d="M171.176 140.659C169.295 141.204 167.384 141.641 165.452 141.968L170.038 166.651C168.641 169.548 167.377 172.282 165.788 175.213L169.381 176.663C171.291 173.175 173.196 169.793 174.991 166.047L171.176 140.659Z"/><path fill="#CE7A58" d="M167.785 90.1135L167.956 87.7113C167.956 87.7113 195.608 84.8009 197.76 84.4107C197.525 89.1547 197.024 93.8818 196.262 98.5702C195.4 98.9545 166.693 101.818 166.539 101.473L166.82 98.9698L171.863 98.6873L171.958 97.0427L166.914 97.3252L167.133 95.2634L172.157 94.9378L172.271 93.3363L167.266 93.7051L167.465 91.6001L172.49 91.2745L172.608 89.5675C171.41 89.8946 169.693 89.9872 167.785 90.1135ZM186.935 90.1639C186.389 91.1773 186.231 92.3553 186.493 93.4764C186.754 94.5975 187.416 95.5844 188.354 96.2517C188.831 96.5556 189.365 96.7589 189.923 96.8493C190.481 96.9397 191.052 96.9152 191.6 96.7774C192.149 96.6396 192.663 96.3913 193.112 96.0478C193.561 95.7042 193.935 95.2727 194.212 94.7795C194.728 93.767 194.862 92.6023 194.589 91.4989C194.316 90.3956 193.654 89.4278 192.725 88.7733C191.797 88.2297 190.693 88.0719 189.649 88.3337C188.606 88.5955 187.707 89.256 187.146 90.1733L186.935 90.1639ZM181.008 89.8574C180.656 92.5475 180.205 97.4527 180.205 97.4527C180.953 97.4996 181.704 97.4764 182.448 97.3836L183.156 89.5727L181.008 89.8574ZM176.022 90.2693C175.67 92.9594 175.224 98.2241 175.224 98.2241C175.224 98.2241 176.432 98.1512 177.539 97.968L178.29 90.1379C178.29 90.1379 178.084 90.023 176.449 90.1827L176.022 90.2693Z"/><path fill="#CE7A58" d="M327.395 92.0395C327.604 92.1736 327.838 92.2638 328.082 92.3048C328.326 92.3457 328.577 92.3366 328.817 92.2778C329.058 92.2191 329.285 92.112 329.483 91.9631C329.681 91.8142 329.847 91.6265 329.97 91.4116C330.222 90.9723 330.294 90.4529 330.172 89.9617C330.05 89.4705 329.742 89.0454 329.315 88.7752C329.109 88.6408 328.879 88.5499 328.637 88.508C328.396 88.4662 328.148 88.4743 327.91 88.5318C327.671 88.5894 327.447 88.6951 327.252 88.8426C327.056 88.9901 326.892 89.1762 326.771 89.3894C326.512 89.8262 326.433 90.3462 326.549 90.8403C326.666 91.3343 326.969 91.7641 327.395 92.0395Z"/><path fill="#CE7A58" d="M347.203 85.6622C346.975 86.1044 346.657 86.4947 346.271 86.8088C345.885 87.1228 345.438 87.3539 344.958 87.4875C344.478 87.6212 343.976 87.6546 343.483 87.5856C342.99 87.5166 342.517 87.3467 342.092 87.0866C341.218 86.5545 340.578 85.7095 340.304 84.7232C340.03 83.7369 340.142 82.6831 340.616 81.7761C340.846 81.3393 341.163 80.9542 341.548 80.6444C341.932 80.3346 342.376 80.1067 342.852 79.9746C343.328 79.8425 343.825 79.809 344.314 79.8762C344.804 79.9435 345.274 80.11 345.696 80.3655C346.579 80.8866 347.228 81.7269 347.508 82.7128C347.789 83.6986 347.679 84.7545 347.203 85.6622ZM346.154 85.0546C346.472 84.4386 346.541 83.7243 346.348 83.0588C346.155 82.3932 345.714 81.8269 345.116 81.4765C344.841 81.3141 344.537 81.2082 344.221 81.1647C343.905 81.1212 343.583 81.1412 343.274 81.2234C342.966 81.3056 342.677 81.4484 342.424 81.6434C342.172 81.8385 341.96 82.0819 341.803 82.3595C341.487 82.9749 341.415 83.6869 341.602 84.353C341.788 85.0191 342.22 85.5901 342.81 85.9514C343.374 86.2698 344.04 86.3541 344.665 86.1864C345.291 86.0187 345.825 85.6123 346.154 85.0546Z"/><path fill="#CE7A58" d="M409.046 49.3261C407.388 51.3209 405.497 53.1094 403.412 54.6532C395.265 60.7226 386.792 66.3412 378.03 71.4839C367.017 78.1323 356.371 83.6906 356.371 83.6906C356.371 83.6906 351.742 86.531 349.626 88.1041C345.85 90.5988 343.173 94.4443 342.144 98.851C340.104 105.046 336.385 110.553 331.4 114.758C324.281 120.028 315.984 123.483 307.229 124.821C294.584 126.598 281.809 127.266 269.048 126.818C251.639 126.52 234.359 123.76 217.724 118.618L219.265 115.67C222.281 116.699 234.362 119.769 237.051 120.313L237.401 119.268C234.492 118.562 225.956 116.211 219.897 114.425L221.222 111.908C226.033 113.471 234.586 116.111 238.265 116.881L238.618 115.76C234.464 114.756 226.558 112.236 221.912 110.71L223.175 108.22C227.549 109.719 235.717 112.493 239.431 113.508L239.788 112.311C235.843 111.362 228.04 108.574 223.758 107.034L224.856 104.839C228.97 106.417 236.986 109.185 240.563 110.223L240.902 109.071C235.684 107.343 230.534 105.547 225.454 103.683L227.173 100.137C237.328 104.194 247.763 107.511 258.396 110.063C273.875 114.178 289.911 115.793 305.9 114.849C321.022 113.265 326.124 108.99 330.644 103.826C333.339 100.143 334.914 95.76 335.178 91.204C335.656 86.9507 334.418 79.3468 340.9 75.7553C342.587 74.8404 344.47 74.3442 346.389 74.3085C348.308 74.2727 350.208 74.6984 351.929 75.5497C372.316 69.8663 391.544 60.6358 408.729 48.2813C408.885 48.6123 408.992 48.9643 409.046 49.3261ZM245.815 116.521C246.397 114.333 246.403 113.515 245.537 113.234C245.537 113.234 244.316 112.407 243.328 115.515C242.341 118.624 242.757 119.477 243.51 119.586C244.263 119.695 244.906 119.557 245.815 116.521ZM249.872 117.308C250.307 115.372 250.31 114.629 249.502 114.396C249.502 114.396 248.384 113.634 247.609 116.388C246.835 119.143 247.152 119.854 247.843 119.991C248.534 120.128 249.19 120.021 249.934 117.28L249.872 117.308ZM253.947 117.717C254.361 115.901 254.378 115.189 253.6 114.943C253.6 114.943 252.51 114.242 251.77 116.907C251.029 119.572 251.35 120.208 252.096 120.469C252.842 120.729 253.299 120.341 254.009 117.689L253.947 117.717ZM258.018 118.535C258.398 116.809 258.367 116.155 257.648 115.957C257.648 115.957 256.647 115.291 255.975 117.777C255.303 120.263 255.641 120.854 256.256 120.988C256.872 121.121 257.47 120.966 258.111 118.494L258.018 118.535ZM341.529 91.5629C340.805 91.2796 340.101 90.9495 339.42 90.5746C339.324 90.3581 340.299 113.017 306.357 118.204C291.413 119.652 276.344 119.098 261.547 116.555L260.486 121.661C260.383 121.93 295.305 123.684 306.397 121.374C315.386 120.001 338.647 114.717 341.621 91.5216L341.529 91.5629ZM348.204 86.3278C348.824 85.1182 348.959 83.7182 348.584 82.4121C348.209 81.106 347.35 79.9917 346.183 79.2953C345.632 78.9728 345.022 78.7642 344.389 78.6816C343.756 78.5991 343.113 78.6443 342.497 78.8148C341.882 78.9852 341.307 79.2773 340.807 79.6738C340.306 80.0704 339.891 80.5632 339.584 81.1233C338.952 82.3278 338.8 83.7268 339.158 85.0391C339.515 86.3513 340.357 87.4796 341.512 88.1971C342.079 88.532 342.708 88.7486 343.362 88.8336C344.015 88.9187 344.679 88.8704 345.313 88.6919C345.947 88.5133 346.538 88.2081 347.051 87.7947C347.564 87.3813 347.988 86.8682 348.297 86.2865L348.204 86.3278ZM370.705 72.5973C368.88 73.4103 354.84 78.5899 353.668 79.0379C354.237 79.5799 354.569 80.3247 354.591 81.1102C360.186 78.6328 365.59 75.7425 370.756 72.4632L370.705 72.5973Z"/><path fill="#CE7A58" d="M292.172 91.6076C294.875 91.5158 297.563 91.3932 300.251 91.2705L300.428 93.0822C297.678 93.2324 294.928 93.3827 292.181 93.4572L292.235 96.3245C294.999 96.2052 297.763 96.0859 300.544 95.9219L300.683 97.5652C297.902 97.7292 295.093 97.8313 292.298 97.9644L292.394 100.924C295.233 100.809 298.042 100.706 300.899 100.546L300.969 102.034C298.157 102.212 295.303 102.297 292.433 102.427L292.549 105.267C295.433 105.168 298.318 105.069 301.161 104.877L301.262 106.352C298.374 106.527 295.489 106.626 292.588 106.769L292.68 109.805C295.595 109.692 298.541 109.566 301.543 109.563L301.633 110.931C298.67 111.103 295.741 111.184 292.739 111.187L292.786 113.205C292.786 113.205 301.574 113.293 305.716 112.857L303.756 88.4861L297.889 78.6446L295.29 78.8016C297.124 82.0867 298.994 85.3685 300.899 88.6467L299.166 88.7514C297.221 85.4663 295.289 82.2121 293.406 78.8995L290.552 78.9845C292.436 82.2971 294.378 85.6578 296.323 88.9429L294.577 89.0167C292.724 85.6903 290.872 82.3638 289.095 79.0408L286.135 79.1362C288.046 82.5107 289.943 85.8542 291.916 89.2012L292.172 91.6076Z"/><path fill="#CE7A58" d="M307.713 112.597C308.656 112.574 309.592 112.443 310.505 112.206C309.91 104.131 309.267 96.1139 308.565 88.0489C306.555 84.867 304.592 81.6266 302.643 78.4172L299.725 78.6054C301.656 81.8595 303.65 85.0861 305.643 88.3127C306.389 96.3949 307.105 104.491 307.713 112.597Z"/><path fill="#CE7A58" d="M308.719 126.085C302.842 126.999 296.921 127.595 290.98 127.871L292.794 130.362C297.222 129.983 301.608 129.512 306.012 128.996L306.216 130.202C302.025 130.698 297.821 131.162 293.606 131.52L295.324 133.794C299.129 133.433 302.921 133.042 306.63 132.464L306.907 133.75C303.4 134.2 299.852 134.557 296.25 134.791L298.187 137.226C301.233 136.908 304.293 136.619 307.356 136.256L307.611 137.662C304.823 137.977 302.022 138.261 299.22 138.546L300.927 140.714C303.311 140.517 305.676 140.279 308.023 139.999L308.347 141.56C306.216 141.768 304.084 141.976 301.97 142.14L300.78 145.376L302.534 146.151L303.265 144.38L304.801 144.251L303.786 146.632L305.585 147.424L307.084 144.05L308.545 143.918L306.665 148.018L309.189 149.192L311.901 143.795L308.719 126.085Z"/><path fill="#CE7A58" d="M314.318 124.926C312.969 125.316 311.599 125.63 310.214 125.864L313.502 143.564C312.5 145.641 311.594 147.602 310.455 149.703L313.031 150.743C314.4 148.242 315.767 145.817 317.054 143.131L314.318 124.926Z"/><path fill="#CE7A58" d="M311.887 88.6811L312.009 86.9586C312.009 86.9586 331.838 84.8716 333.381 84.5918C333.212 87.9936 332.854 91.3833 332.307 94.7452C331.689 95.0208 311.103 97.0741 310.993 96.8266L311.194 95.0318L314.811 94.8292L314.879 93.6499L311.262 93.8525L311.419 92.374L315.022 92.1405L315.103 90.9921L311.514 91.2565L311.657 89.7471L315.26 89.5136L315.345 88.2896C314.486 88.5241 313.255 88.5905 311.887 88.6811ZM325.618 88.7173C325.227 89.444 325.114 90.2887 325.302 91.0926C325.489 91.8965 325.964 92.6042 326.636 93.0827C326.978 93.3006 327.361 93.4464 327.761 93.5112C328.162 93.576 328.571 93.5585 328.964 93.4596C329.357 93.3608 329.726 93.1828 330.048 92.9364C330.37 92.6901 330.638 92.3806 330.837 92.027C331.207 91.301 331.303 90.4657 331.107 89.6746C330.912 88.8834 330.437 88.1895 329.771 87.7201C329.105 87.3303 328.313 87.2172 327.565 87.4049C326.817 87.5926 326.172 88.0662 325.77 88.724L325.618 88.7173ZM321.369 88.4975C321.116 90.4265 320.792 93.9439 320.792 93.9439C321.329 93.9775 321.868 93.9609 322.401 93.8943L322.909 88.2933L321.369 88.4975ZM317.793 88.7929C317.541 90.7218 317.221 94.4971 317.221 94.4971C317.221 94.4971 318.087 94.4447 318.881 94.3134L319.42 88.6986C319.42 88.6986 319.272 88.6162 318.099 88.7307L317.793 88.7929Z"/><path fill="#CE7A58" d="M88.2002 62.6273C88.3602 62.7301 88.5393 62.7993 88.7269 62.8308C88.9144 62.8622 89.1063 62.8552 89.2911 62.8101C89.4758 62.765 89.6494 62.6829 89.8014 62.5687C89.9534 62.4544 90.0806 62.3105 90.1753 62.1456C90.3682 61.8086 90.4236 61.4102 90.3299 61.0334C90.2362 60.6566 90.0007 60.3305 89.6724 60.1231C89.5151 60.0201 89.3383 59.9503 89.1529 59.9182C88.9676 59.8861 88.7776 59.8923 88.5948 59.9365C88.412 59.9806 88.2401 60.0618 88.0898 60.1749C87.9395 60.288 87.814 60.4308 87.7211 60.5943C87.5227 60.9294 87.4618 61.3283 87.5512 61.7073C87.6405 62.0863 87.8731 62.4161 88.2002 62.6273Z"/><path fill="#CE7A58" d="M103.395 57.7359C103.22 58.0752 102.976 58.3746 102.68 58.6155C102.383 58.8564 102.041 59.0337 101.673 59.1362C101.305 59.2387 100.92 59.2643 100.541 59.2114C100.163 59.1585 99.8 59.0282 99.4743 58.8286C98.8034 58.4204 98.313 57.7722 98.1027 57.0156C97.8924 56.259 97.9779 55.4506 98.342 54.7548C98.5186 54.4197 98.7619 54.1243 99.0568 53.8867C99.3517 53.649 99.6921 53.4742 100.057 53.3728C100.422 53.2715 100.804 53.2458 101.179 53.2974C101.554 53.349 101.915 53.4767 102.239 53.6727C102.916 54.0725 103.414 54.7171 103.629 55.4734C103.844 56.2296 103.76 57.0396 103.395 57.7359ZM102.59 57.2698C102.834 56.7973 102.887 56.2493 102.739 55.7388C102.591 55.2282 102.253 54.7938 101.794 54.525C101.583 54.4004 101.35 54.3191 101.107 54.2858C100.865 54.2525 100.618 54.2678 100.381 54.3308C100.145 54.3939 99.9229 54.5034 99.7291 54.653C99.5352 54.8027 99.3732 54.9894 99.2523 55.2024C99.0098 55.6744 98.9547 56.2207 99.098 56.7316C99.2412 57.2426 99.5723 57.6806 100.025 57.9578C100.457 58.202 100.968 58.2667 101.448 58.1381C101.928 58.0094 102.338 57.6977 102.59 57.2698Z"/><path fill="#CE7A58" d="M150.836 29.8623C149.564 31.3925 148.113 32.7644 146.514 33.9487C140.264 38.6047 133.764 42.9148 127.043 46.8598C118.595 51.96 110.428 56.2239 110.428 56.2239C110.428 56.2239 106.877 58.4028 105.254 59.6095C102.357 61.5233 100.304 64.4732 99.5139 67.8537C97.9496 72.6059 95.0964 76.8303 91.2722 80.0561C85.8114 84.0993 79.4467 86.7493 72.7302 87.7761C63.0303 89.139 53.2298 89.6515 43.4407 89.3076C30.0859 89.0794 16.8307 86.9617 4.06961 83.0174L5.25184 80.7562C7.56551 81.5454 16.8327 83.9004 18.8955 84.3179L19.1638 83.516C16.9321 82.9746 10.3845 81.1711 5.73626 79.801L6.75262 77.8696C10.4434 79.069 17.0043 81.0941 19.8268 81.685L20.0977 80.825C16.9111 80.055 10.8461 78.1218 7.28194 76.9513L8.25083 75.041C11.6066 76.1906 17.8722 78.3188 20.7213 79.097L20.9948 78.1789C17.9691 77.451 11.983 75.312 8.6984 74.1307L9.54089 72.4473C12.6963 73.6578 18.8458 75.7808 21.5894 76.5775L21.8497 75.6938C17.8468 74.368 13.8966 72.9903 9.99903 71.5608L11.318 68.8405C19.1079 71.9525 27.1125 74.4972 35.2694 76.4548C47.1436 79.6109 59.4457 80.8503 71.7108 80.1259C83.3116 78.9105 87.2252 75.6315 90.6926 71.6698C92.7599 68.8445 93.9676 65.4825 94.1707 61.9875C94.5371 58.7248 93.5879 52.8917 98.5596 50.1366C99.8542 49.4347 101.298 49.0541 102.771 49.0267C104.243 48.9992 105.7 49.3258 107.02 49.9789C122.66 45.619 137.41 38.5381 150.593 29.0607C150.712 29.3146 150.794 29.5847 150.836 29.8623ZM25.6183 81.4083C26.0652 79.7306 26.0699 79.1029 25.4051 78.8872C25.4051 78.8872 24.4683 78.2524 23.7108 80.6372C22.9533 83.0221 23.273 83.6759 23.8506 83.7598C24.4283 83.8437 24.9214 83.7377 25.6183 81.4083ZM28.7309 82.0122C29.0646 80.5271 29.0667 79.9574 28.4468 79.7786C28.4468 79.7786 27.5891 79.1938 26.9949 81.3069C26.4007 83.42 26.6438 83.9657 27.174 84.0707C27.7042 84.1758 28.2079 84.0935 28.7784 81.9911L28.7309 82.0122ZM31.8565 82.326C32.1744 80.9332 32.1871 80.3872 31.5909 80.1978C31.5909 80.1978 30.7544 79.6605 30.1865 81.705C29.6186 83.7495 29.8643 84.2372 30.4368 84.4371C31.0093 84.6371 31.3598 84.3387 31.9039 82.3048L31.8565 82.326ZM34.9797 82.9536C35.2713 81.6294 35.2471 81.1283 34.6958 80.9758C34.6958 80.9758 33.9279 80.4648 33.4126 82.3721C32.8973 84.2794 33.1562 84.7328 33.6284 84.8352C34.1006 84.9377 34.5594 84.8186 35.0509 82.9219L34.9797 82.9536ZM99.0422 62.2629C98.4872 62.0456 97.9469 61.7923 97.4248 61.5047C97.3509 61.3386 98.0992 78.7209 72.0611 82.6997C60.5979 83.8108 49.0376 83.3853 37.687 81.4347L36.8728 85.352C36.7939 85.5577 63.5829 86.9032 72.0922 85.1314C78.9881 84.0783 96.8317 80.0249 99.1134 62.2311L99.0422 62.2629ZM104.163 58.2469C104.638 57.319 104.742 56.245 104.455 55.2431C104.167 54.2412 103.508 53.3863 102.613 52.8522C102.19 52.6048 101.722 52.4447 101.237 52.3814C100.751 52.318 100.257 52.3528 99.7854 52.4835C99.3134 52.6143 98.8724 52.8384 98.4885 53.1425C98.1046 53.4467 97.7856 53.8248 97.5504 54.2544C97.0659 55.1785 96.9491 56.2516 97.2235 57.2583C97.4978 58.2649 98.1431 59.1304 99.0294 59.6809C99.4646 59.9378 99.9473 60.1039 100.448 60.1692C100.95 60.2344 101.459 60.1974 101.945 60.0604C102.432 59.9235 102.885 59.6893 103.279 59.3722C103.672 59.0551 103.997 58.6615 104.234 58.2152L104.163 58.2469ZM121.424 47.714C120.024 48.3376 109.253 52.311 108.354 52.6547C108.791 53.0705 109.045 53.6418 109.063 54.2444C113.355 52.3439 117.5 50.1267 121.463 47.6111L121.424 47.714Z"/><path fill="#CE7A58" d="M61.1798 62.2953C63.2527 62.2249 65.3151 62.1308 67.3775 62.0367L67.5132 63.4265C65.4034 63.5417 63.2935 63.657 61.1863 63.7142L61.2278 65.9138C63.3482 65.8222 65.4686 65.7307 67.6021 65.6049L67.7087 66.8655C65.5752 66.9913 63.4205 67.0697 61.2764 67.1718L61.3495 69.4425C63.528 69.3535 65.6826 69.2752 67.8742 69.1519L67.9279 70.2939C65.7707 70.4303 63.5817 70.4955 61.3796 70.595L61.4685 72.7734C63.6812 72.6976 65.8939 72.6218 68.0749 72.4749L68.1523 73.6063C65.937 73.7401 63.7243 73.8158 61.4985 73.9259L61.5691 76.2547C63.8055 76.1683 66.0657 76.0714 68.3681 76.0694L68.4376 77.119C66.1643 77.2502 63.9173 77.3128 61.6149 77.3148L61.6505 78.863C61.6505 78.863 68.3917 78.9309 71.5695 78.5959L70.0657 59.9007L65.565 52.3512L63.5713 52.4716C64.9783 54.9917 66.4126 57.5092 67.8741 60.024L66.545 60.1042C65.0527 57.5842 63.5709 55.0879 62.1261 52.5467L59.9371 52.6119C61.3819 55.1531 62.8717 57.7311 64.364 60.2512L63.0242 60.3078C61.6031 57.756 60.182 55.2043 58.8188 52.6551L56.5481 52.7283C58.0141 55.3169 59.4696 57.8818 60.983 60.4493L61.1798 62.2953Z"/><path fill="#CE7A58" d="M73.1016 78.3967C73.8245 78.3787 74.5429 78.2781 75.2429 78.0968C74.7865 71.902 74.2932 65.752 73.755 59.5652C72.2127 57.1243 70.7072 54.6386 69.2123 52.1765L66.9733 52.3209C68.455 54.8172 69.9843 57.2924 71.5135 59.7676C72.0859 65.9676 72.6346 72.1781 73.1016 78.3967Z"/><path fill="#CE7A58" d="M73.8728 88.7436C69.3648 89.4445 64.8223 89.9019 60.2651 90.1137L61.6567 92.0246C65.0533 91.7341 68.4184 91.3725 71.7965 90.9766L71.9529 91.9022C68.7382 92.2821 65.513 92.6384 62.2799 92.9128L63.5974 94.6576C66.5168 94.3808 69.4256 94.0802 72.2709 93.6373L72.4828 94.6235C69.7929 94.9687 67.0714 95.2427 64.3076 95.4218L65.794 97.2905C68.1305 97.0458 70.4776 96.8248 72.8273 96.5459L73.0234 97.6244C70.8847 97.8662 68.7354 98.0844 66.5861 98.3025L67.8957 99.9656C69.7242 99.8145 71.5385 99.6319 73.3388 99.4175L73.5878 100.615C71.9527 100.774 70.3177 100.934 68.6958 101.059L67.7828 103.542L69.1284 104.137L69.6889 102.778L70.8678 102.679L70.0887 104.505L71.4686 105.113L72.6189 102.525L73.7397 102.424L72.2971 105.569L74.2337 106.469L76.3137 102.329L73.8728 88.7436Z"/><path fill="#CE7A58" d="M78.1683 87.8542C77.1333 88.1539 76.0822 88.3944 75.0199 88.5744L77.5425 102.152C76.7738 103.746 76.0788 105.25 75.2046 106.862L77.1807 107.659C78.2314 105.741 79.2794 103.881 80.2666 101.82L78.1683 87.8542Z"/><path fill="#CE7A58" d="M76.3033 60.0509L76.3971 58.7295C76.3971 58.7295 91.6082 57.1285 92.7922 56.9139C92.6624 59.5235 92.3873 62.1238 91.9682 64.7028C91.4936 64.9142 75.7023 66.4893 75.6178 66.2995L75.7722 64.9226L78.5466 64.7672L78.5985 63.8626L75.8242 64.0179L75.9445 62.8838L78.7083 62.7047L78.7708 61.8237L76.0176 62.0266L76.1273 60.8687L78.8911 60.6895L78.9563 59.7506C78.2971 59.9305 77.3529 59.9814 76.3033 60.0509ZM86.8371 60.0787C86.5367 60.6361 86.4503 61.2841 86.5941 61.9008C86.7379 62.5175 87.102 63.0604 87.618 63.4274C87.8803 63.5946 88.174 63.7064 88.481 63.7561C88.788 63.8059 89.1019 63.7924 89.4035 63.7166C89.7052 63.6408 89.9882 63.5042 90.2352 63.3152C90.4822 63.1263 90.6881 62.8889 90.8402 62.6176C91.1243 62.0607 91.198 61.4199 91.0478 60.813C90.8976 60.2061 90.5335 59.6737 90.0224 59.3137C89.5118 59.0147 88.9043 58.9279 88.3304 59.0719C87.7566 59.2159 87.2621 59.5792 86.9531 60.0838L86.8371 60.0787ZM83.5771 59.9101C83.3832 61.3898 83.135 64.0881 83.135 64.0881C83.5467 64.1139 83.96 64.1011 84.3693 64.0501L84.7585 59.7534L83.5771 59.9101ZM80.8344 60.1366C80.6406 61.6164 80.3952 64.5124 80.3952 64.5124C80.3952 64.5124 81.0598 64.4723 81.6689 64.3715L82.0818 60.0643C82.0818 60.0643 81.9684 60.0011 81.0691 60.089L80.8344 60.1366Z"/></g></svg>