<svg xmlns="http://www.w3.org/2000/svg" xmlns:xlink="http://www.w3.org/1999/xlink" id="Layer_1" x="0" y="0" version="1.1" viewBox="0 0 315 123" style="enable-background:new 0 0 315 123" xml:space="preserve"><style type="text/css">.st0{opacity:.1}.st1{fill:#1e2f41}</style><g class="st0"><path d="M127.5,52.3c0.2,0.1,0.5,0.2,0.8,0.3c0.3,0,0.5,0,0.8,0c0.3-0.1,0.5-0.2,0.7-0.3s0.4-0.4,0.5-0.6 c0.3-0.5,0.4-1.1,0.2-1.6s-0.5-1-0.9-1.3c-0.2-0.1-0.5-0.3-0.8-0.3c-0.3,0-0.5,0-0.8,0c-0.3,0.1-0.5,0.2-0.7,0.3 c-0.2,0.2-0.4,0.4-0.5,0.6c-0.3,0.5-0.4,1.1-0.2,1.6C126.7,51.5,127,52,127.5,52.3L127.5,52.3z" class="st1"/><path d="M149.5,45.2c-0.3,0.5-0.6,0.9-1,1.3c-0.4,0.3-0.9,0.6-1.5,0.8c-0.5,0.1-1.1,0.2-1.6,0.1 c-0.5-0.1-1.1-0.3-1.5-0.6c-1-0.6-1.7-1.5-2-2.6c-0.3-1.1-0.2-2.3,0.3-3.3c0.3-0.5,0.6-0.9,1-1.3c0.4-0.3,0.9-0.6,1.4-0.7 s1.1-0.2,1.6-0.1c0.5,0.1,1.1,0.3,1.5,0.5c1,0.6,1.7,1.5,2,2.6S150,44.2,149.5,45.2L149.5,45.2z M148.3,44.6 c0.4-0.7,0.4-1.5,0.2-2.2s-0.7-1.4-1.4-1.8c-0.3-0.2-0.6-0.3-1-0.3c-0.4,0-0.7,0-1.1,0.1c-0.3,0.1-0.7,0.2-0.9,0.5 s-0.5,0.5-0.7,0.8c-0.4,0.7-0.4,1.5-0.2,2.2c0.2,0.7,0.7,1.4,1.3,1.8c0.6,0.4,1.4,0.4,2.1,0.3C147.4,45.6,147.9,45.2,148.3,44.6z" class="st1"/><path d="M218.1,5c-1.8,2.2-3.9,4.2-6.3,5.9c-9,6.7-18.4,12.9-28.2,18.6c-12.2,7.4-24,13.5-24,13.5s-5.1,3.1-7.5,4.9 c-4.2,2.8-7.2,7-8.3,11.9c-2.3,6.9-6.4,13-11.9,17.6c-7.9,5.8-17.1,9.7-26.8,11.1c-14,2-28.2,2.7-42.3,2.2 c-19.3-0.3-38.5-3.4-56.9-9.2l1.7-3.3c3.3,1.1,16.7,4.6,19.7,5.2l0.4-1.2C24.5,81.6,15,79,8.3,77l1.5-2.8 c5.3,1.7,14.8,4.7,18.9,5.5l0.4-1.2c-4.6-1.1-13.4-3.9-18.5-5.6l1.4-2.8c4.8,1.7,13.9,4.8,18,5.9l0.4-1.3c-4.4-1.1-13-4.2-17.8-5.9 l1.2-2.4c4.6,1.8,13.4,4.8,17.4,6l0.4-1.3c-5.8-1.9-11.5-3.9-17.1-6l1.9-3.9c11.3,4.5,22.8,8.2,34.6,11c17.2,4.6,34.9,6.4,52.7,5.4 c16.8-1.7,22.4-6.5,27.4-12.2c3-4.1,4.7-8.9,5-14c0.5-4.7-0.8-13.1,6.4-17.1c1.9-1,4-1.6,6.1-1.6c2.1,0,4.2,0.4,6.1,1.4 c22.6-6.3,43.9-16.5,63-30.2C217.9,4.2,218,4.6,218.1,5z M37,79.3c0.6-2.4,0.7-3.3-0.3-3.6c0,0-1.4-0.9-2.5,2.5 c-1.1,3.4-0.6,4.4,0.2,4.5C35.3,82.9,36,82.7,37,79.3L37,79.3z M41.5,80.2c0.5-2.1,0.5-3-0.4-3.2c0,0-1.2-0.8-2.1,2.2 c-0.9,3.1-0.5,3.8,0.3,4C40,83.3,40.8,83.2,41.5,80.2L41.5,80.2z M46,80.7c0.5-2,0.5-2.8-0.4-3.1c0,0-1.2-0.8-2,2.2 c-0.8,3-0.5,3.7,0.4,3.9C44.8,84,45.3,83.6,46,80.7L46,80.7z M50.5,81.6c0.4-1.9,0.4-2.6-0.4-2.9c0,0-1.1-0.7-1.9,2 c-0.7,2.8-0.4,3.4,0.3,3.6c0.7,0.1,1.3,0,2.1-2.8L50.5,81.6z M143.2,51.8c-0.8-0.3-1.6-0.7-2.3-1.1c-0.1-0.2,0.9,24.9-36.7,30.6 c-16.6,1.6-33.3,1-49.7-1.9l-1.2,5.7c-0.1,0.3,38.6,2.3,50.9-0.3c10-1.5,35.8-7.3,39.1-33.1L143.2,51.8z M150.6,46 c0.7-1.3,0.8-2.9,0.4-4.3c-0.4-1.4-1.4-2.7-2.7-3.5c-0.6-0.4-1.3-0.6-2-0.7c-0.7-0.1-1.4,0-2.1,0.1c-0.7,0.2-1.3,0.5-1.9,1 c-0.6,0.4-1,1-1.4,1.6c-0.7,1.3-0.9,2.9-0.5,4.3c0.4,1.5,1.3,2.7,2.6,3.5c0.6,0.4,1.3,0.6,2,0.7c0.7,0.1,1.5,0,2.2-0.2 c0.7-0.2,1.4-0.5,1.9-1c0.6-0.5,1-1,1.4-1.7L150.6,46z M175.5,30.8c-2,0.9-17.6,6.6-18.9,7.1c0.6,0.6,1,1.4,1,2.3 c6.2-2.7,12.2-5.9,17.9-9.6L175.5,30.8z" class="st1"/><path d="M88.4,51.8c3-0.1,6-0.2,9-0.4l0.2,2c-3,0.2-6.1,0.3-9.1,0.4l0.1,3.2c3.1-0.1,6.1-0.3,9.2-0.4l0.2,1.8 c-3.1,0.2-6.2,0.3-9.3,0.4l0.1,3.3c3.1-0.1,6.3-0.2,9.4-0.4l0.1,1.7c-3.1,0.2-6.3,0.3-9.5,0.4l0.1,3.1c3.2-0.1,6.4-0.2,9.5-0.4 l0.1,1.6c-3.2,0.2-6.4,0.3-9.6,0.5l0.1,3.4c3.2-0.1,6.5-0.3,9.8-0.3l0.1,1.5c-3.3,0.2-6.5,0.3-9.9,0.3l0,2.2c0,0,9.7,0.1,14.3-0.4 l-2.1-27l-6.5-10.9l-2.9,0.2c2,3.6,4.1,7.3,6.2,10.9l-1.9,0.1c-2.2-3.6-4.3-7.3-6.4-10.9l-3.2,0.1c2.1,3.7,4.2,7.4,6.4,11l-1.9,0.1 c-2.1-3.7-4.1-7.4-6.1-11.1l-3.3,0.1c2.1,3.7,4.2,7.5,6.4,11.2L88.4,51.8z" class="st1"/><path d="M105.7,75.1c1,0,2.1-0.2,3.1-0.4c-0.7-9-1.4-17.8-2.1-26.8c-2.2-3.5-4.4-7.1-6.6-10.7l-3.2,0.2 c2.1,3.6,4.3,7.2,6.6,10.8C104.2,57.1,105,66.1,105.7,75.1z" class="st1"/><path d="M106.8,90c-6.5,1-13.1,1.7-19.7,2l2,2.8c4.9-0.4,9.8-0.9,14.7-1.5l0.2,1.3c-4.6,0.5-9.3,1.1-14,1.4l1.9,2.5 c4.2-0.4,8.4-0.8,12.5-1.5l0.3,1.4c-3.9,0.5-7.8,0.9-11.8,1.1l2.1,2.7c3.4-0.3,6.8-0.7,10.2-1.1l0.3,1.6c-3.1,0.3-6.2,0.7-9.3,1 l1.9,2.4c2.6-0.2,5.3-0.5,7.9-0.8l0.4,1.7c-2.4,0.2-4.7,0.5-7.1,0.6l-1.3,3.6l1.9,0.9l0.8-2l1.7-0.1l-1.1,2.6l2,0.9l1.7-3.7 l1.6-0.1l-2.1,4.5l2.8,1.3l3-6L106.8,90z" class="st1"/><path d="M113,88.7c-1.5,0.4-3,0.8-4.6,1l3.6,19.6c-1.1,2.3-2.1,4.5-3.4,6.8l2.9,1.2c1.5-2.8,3-5.5,4.5-8.4L113,88.7z" class="st1"/><path d="M110.3,48.5l0.1-1.9c0,0,22-2.3,23.7-2.6c-0.2,3.8-0.6,7.5-1.2,11.3c-0.7,0.3-23.5,2.6-23.6,2.3l0.2-2l4-0.2 l0.1-1.3l-4,0.2l0.2-1.6l4-0.3l0.1-1.3l-4,0.3l0.2-1.7l4-0.3l0.1-1.4C113.2,48.4,111.8,48.5,110.3,48.5z M125.5,48.6 c-0.4,0.8-0.6,1.7-0.4,2.6c0.2,0.9,0.7,1.7,1.5,2.2c0.4,0.2,0.8,0.4,1.2,0.5c0.4,0.1,0.9,0.1,1.3-0.1c0.4-0.1,0.8-0.3,1.2-0.6 c0.4-0.3,0.7-0.6,0.9-1c0.4-0.8,0.5-1.7,0.3-2.6c-0.2-0.9-0.7-1.6-1.5-2.2c-0.7-0.4-1.6-0.6-2.4-0.4c-0.8,0.2-1.5,0.7-2,1.5 L125.5,48.6z M120.8,48.4c-0.3,2.1-0.6,6-0.6,6c0.6,0,1.2,0,1.8-0.1l0.6-6.2L120.8,48.4z M116.9,48.7c-0.3,2.1-0.6,6.3-0.6,6.3 s1-0.1,1.8-0.2l0.6-6.2c0,0-0.2-0.1-1.5,0L116.9,48.7z" class="st1"/><path d="M231.7,53c0.2,0.1,0.4,0.2,0.5,0.2c0.2,0,0.4,0,0.6,0c0.2,0,0.4-0.1,0.5-0.2c0.2-0.1,0.3-0.3,0.4-0.4 c0.2-0.3,0.3-0.8,0.2-1.2c-0.1-0.4-0.3-0.7-0.7-0.9c-0.2-0.1-0.3-0.2-0.5-0.2c-0.2,0-0.4,0-0.6,0c-0.2,0-0.4,0.1-0.5,0.2 c-0.2,0.1-0.3,0.3-0.4,0.4c-0.2,0.3-0.3,0.8-0.2,1.2C231.1,52.4,231.3,52.8,231.7,53L231.7,53z" class="st1"/><path d="M247.4,47.9c-0.2,0.4-0.4,0.7-0.7,0.9c-0.3,0.2-0.7,0.4-1,0.5c-0.4,0.1-0.8,0.1-1.2,0.1 c-0.4-0.1-0.8-0.2-1.1-0.4c-0.7-0.4-1.2-1.1-1.4-1.9c-0.2-0.8-0.1-1.6,0.3-2.3c0.2-0.3,0.4-0.7,0.7-0.9c0.3-0.2,0.7-0.4,1-0.5 c0.4-0.1,0.8-0.1,1.2-0.1c0.4,0.1,0.8,0.2,1.1,0.4c0.7,0.4,1.2,1.1,1.4,1.9C247.9,46.4,247.8,47.2,247.4,47.9L247.4,47.9z M246.6,47.4c0.3-0.5,0.3-1.1,0.2-1.6c-0.2-0.5-0.5-1-1-1.3c-0.2-0.1-0.5-0.2-0.7-0.2c-0.3,0-0.5,0-0.8,0c-0.2,0.1-0.5,0.2-0.7,0.3 c-0.2,0.2-0.4,0.3-0.5,0.6c-0.3,0.5-0.3,1.1-0.2,1.6c0.1,0.5,0.5,1,1,1.3c0.4,0.3,1,0.3,1.5,0.2C245.9,48.2,246.3,47.9,246.6,47.4z" class="st1"/><path d="M296.6,19.1c-1.3,1.6-2.8,3-4.5,4.2c-6.5,4.8-13.2,9.3-20.2,13.4c-8.8,5.3-17.2,9.7-17.2,9.7s-3.7,2.3-5.4,3.5 c-3,2-5.1,5-6,8.5c-1.6,4.9-4.6,9.3-8.6,12.6c-5.7,4.2-12.3,6.9-19.2,8c-10.1,1.4-20.2,1.9-30.4,1.6c-13.8-0.3-27.6-2.5-40.8-6.6 l1.2-2.3c2.4,0.8,12,3.3,14.1,3.7l0.3-0.8c-2.3-0.6-9.1-2.4-13.9-3.9l1.1-2c3.8,1.2,10.6,3.4,13.5,4l0.3-0.9 c-3.3-0.8-9.6-2.8-13.3-4l1-2c3.5,1.2,10,3.4,12.9,4.2l0.3-1c-3.1-0.8-9.3-3-12.7-4.2l0.9-1.7c3.3,1.3,9.6,3.5,12.5,4.3l0.3-0.9 c-4.1-1.4-8.2-2.8-12.3-4.3l1.4-2.8c8.1,3.2,16.4,5.9,24.8,7.9c12.3,3.3,25.1,4.6,37.8,3.8c12-1.2,16.1-4.6,19.7-8.7 c2.1-2.9,3.4-6.4,3.6-10c0.4-3.4-0.6-9.4,4.6-12.3c1.3-0.7,2.8-1.1,4.4-1.1c1.5,0,3,0.3,4.4,1c16.2-4.5,31.5-11.8,45.2-21.6 C296.5,18.5,296.6,18.8,296.6,19.1z M166.8,72.4c0.5-1.7,0.5-2.4-0.2-2.6c0,0-1-0.7-1.8,1.8c-0.8,2.5-0.5,3.1,0.1,3.2 C165.6,74.9,166.1,74.8,166.8,72.4L166.8,72.4z M170,73c0.3-1.5,0.4-2.1-0.3-2.3c0,0-0.9-0.6-1.5,1.6s-0.4,2.8,0.2,2.9 C169,75.2,169.5,75.2,170,73L170,73z M173.3,73.3c0.3-1.4,0.3-2-0.3-2.2c0,0-0.9-0.6-1.5,1.6c-0.6,2.1-0.3,2.6,0.3,2.8 C172.4,75.7,172.7,75.4,173.3,73.3L173.3,73.3z M176.5,74c0.3-1.4,0.3-1.9-0.3-2.1c0,0-0.8-0.5-1.3,1.4c-0.5,2-0.3,2.4,0.2,2.6 C175.6,76,176.1,75.9,176.5,74L176.5,74z M242.9,52.6c-0.6-0.2-1.1-0.5-1.7-0.8c-0.1-0.2,0.7,17.8-26.3,21.9 c-11.9,1.1-23.9,0.7-35.6-1.3l-0.8,4.1c-0.1,0.2,27.7,1.6,36.5-0.2C222.1,75.2,240.6,71,242.9,52.6L242.9,52.6z M248.2,48.4 c0.5-1,0.6-2.1,0.3-3.1c-0.3-1-1-1.9-1.9-2.5c-0.4-0.3-0.9-0.4-1.4-0.5c-0.5-0.1-1,0-1.5,0.1c-0.5,0.1-0.9,0.4-1.3,0.7 c-0.4,0.3-0.7,0.7-1,1.2c-0.5,1-0.6,2.1-0.3,3.1c0.3,1,1,1.9,1.9,2.5c0.5,0.3,1,0.4,1.5,0.5c0.5,0.1,1,0,1.6-0.1 c0.5-0.1,1-0.4,1.4-0.7C247.7,49.3,248.1,48.9,248.2,48.4L248.2,48.4z M266.1,37.5c-1.5,0.6-12.6,4.8-13.6,5.1 c0.5,0.4,0.7,1,0.7,1.6c4.5-2,8.7-4.3,12.9-6.9L266.1,37.5z" class="st1"/><path d="M203.7,52.6c2.1-0.1,4.3-0.2,6.4-0.3l0.1,1.4c-2.2,0.1-4.4,0.2-6.6,0.3l0,2.3c2.2-0.1,4.4-0.2,6.6-0.3l0.1,1.3 c-2.2,0.1-4.4,0.2-6.7,0.3l0.1,2.4c2.3-0.1,4.5-0.2,6.8-0.3l0.1,1.2c-2.2,0.1-4.5,0.2-6.8,0.3l0.1,2.3c2.3-0.1,4.6-0.2,6.8-0.3 l0.1,1.2c-2.3,0.1-4.6,0.2-6.9,0.3l0.1,2.4c2.3-0.1,4.7-0.2,7-0.2l0.1,1.1c-2.4,0.1-4.7,0.2-7.1,0.2l0,1.6c0,0,7,0.1,10.3-0.3 l-1.5-19.4l-4.7-7.8l-2.1,0.1c1.5,2.6,2.9,5.2,4.5,7.8l-1.4,0.1c-1.5-2.6-3.1-5.2-4.6-7.8l-2.3,0.1c1.5,2.6,3,5.3,4.6,7.9l-1.4,0.1 c-1.5-2.6-2.9-5.3-4.4-7.9l-2.4,0.1c1.5,2.7,3,5.3,4.6,8L203.7,52.6z" class="st1"/><path d="M216,69.3c0.7,0,1.5-0.1,2.2-0.3c-0.5-6.4-1-12.8-1.5-19.2c-1.6-2.5-3.2-5.1-4.7-7.7l-2.3,0.1 c1.5,2.6,3.1,5.2,4.7,7.7C215,56.4,215.5,62.9,216,69.3z" class="st1"/><path d="M216.8,80c-4.7,0.7-9.4,1.2-14.1,1.4l1.4,2c3.5-0.3,7-0.7,10.5-1.1l0.2,1c-3.3,0.4-6.7,0.8-10,1l1.4,1.8 c3-0.3,6-0.6,9-1l0.2,1c-2.8,0.4-5.6,0.6-8.5,0.8l1.5,1.9c2.4-0.3,4.9-0.5,7.3-0.8l0.2,1.1c-2.2,0.2-4.4,0.5-6.7,0.7l1.4,1.7 c1.9-0.2,3.8-0.3,5.6-0.6l0.3,1.2c-1.7,0.2-3.4,0.3-5.1,0.5l-0.9,2.6l1.4,0.6l0.6-1.4l1.2-0.1l-0.8,1.9l1.4,0.6l1.2-2.7l1.2-0.1 l-1.5,3.3l2,0.9l2.2-4.3L216.8,80z" class="st1"/><path d="M221.3,79.1c-1.1,0.3-2.2,0.6-3.3,0.7l2.6,14.1c-0.8,1.7-1.5,3.2-2.4,4.9l2,0.8c1.1-2,2.2-3.9,3.2-6 L221.3,79.1z" class="st1"/><path d="M219.4,50.3l0.1-1.4c0,0,15.8-1.6,17-1.9c-0.1,2.7-0.4,5.4-0.9,8.1c-0.5,0.2-16.9,1.8-16.9,1.6l0.2-1.4 l2.9-0.2l0.1-0.9l-2.9,0.2l0.1-1.2l2.9-0.2l0.1-0.9l-2.9,0.2l0.1-1.2L222,51l0.1-1C221.4,50.2,220.4,50.2,219.4,50.3z M230.3,50.3 c-0.3,0.6-0.4,1.2-0.3,1.9c0.1,0.6,0.5,1.2,1.1,1.6c0.3,0.2,0.6,0.3,0.9,0.3c0.3,0.1,0.6,0,1,0c0.3-0.1,0.6-0.2,0.9-0.4 c0.3-0.2,0.5-0.4,0.6-0.7c0.3-0.6,0.4-1.2,0.2-1.9c-0.2-0.6-0.5-1.2-1.1-1.6c-0.5-0.3-1.2-0.4-1.8-0.3c-0.6,0.1-1.1,0.5-1.4,1 L230.3,50.3z M226.9,50.1c-0.2,1.5-0.5,4.3-0.5,4.3c0.4,0,0.9,0,1.3,0l0.4-4.5L226.9,50.1z M224,50.4c-0.2,1.5-0.5,4.5-0.5,4.5 s0.7,0,1.3-0.1l0.4-4.5c0,0-0.1-0.1-1,0L224,50.4z" class="st1"/></g></svg>