<svg xmlns="http://www.w3.org/2000/svg" width="80" height="80" fill="none" viewBox="0 0 80 80"><path fill="#F2A634" d="M40 80C62.0914 80 80 62.0914 80 40C80 17.9086 62.0914 0 40 0C17.9086 0 0 17.9086 0 40C0 62.0914 17.9086 80 40 80Z" opacity=".2"/><path stroke="#CE7A58" stroke-miterlimit="10" stroke-width="2.5" d="M33.6025 35.6099L46.3965 28.9754"/><path stroke="#CE7A58" stroke-miterlimit="10" stroke-width="2.5" d="M33.6025 41.2681L46.3965 47.9026"/><path stroke="#CE7A58" stroke-linecap="square" stroke-miterlimit="10" stroke-width="2.5" d="M28.1463 44.5854C31.5409 44.5854 34.2927 41.8335 34.2927 38.439C34.2927 35.0445 31.5409 32.2927 28.1463 32.2927C24.7518 32.2927 22 35.0445 22 38.439C22 41.8335 24.7518 44.5854 28.1463 44.5854Z"/><path stroke="#CE7A58" stroke-linecap="square" stroke-miterlimit="10" stroke-width="2.5" d="M51.8536 32.2927C55.2481 32.2927 58 29.5409 58 26.1463C58 22.7518 55.2481 20 51.8536 20C48.4591 20 45.7073 22.7518 45.7073 26.1463C45.7073 29.5409 48.4591 32.2927 51.8536 32.2927Z"/><path stroke="#CE7A58" stroke-linecap="square" stroke-miterlimit="10" stroke-width="2.5" d="M51.8536 56.878C55.2481 56.878 58 54.1262 58 50.7317C58 47.3372 55.2481 44.5854 51.8536 44.5854C48.4591 44.5854 45.7073 47.3372 45.7073 50.7317C45.7073 54.1262 48.4591 56.878 51.8536 56.878Z"/></svg>