<svg xmlns="http://www.w3.org/2000/svg" width="80" height="80" fill="none" viewBox="0 0 80 80"><path fill="#F2A634" d="M40 80C62.0914 80 80 62.0914 80 40C80 17.9086 62.0914 0 40 0C17.9086 0 0 17.9086 0 40C0 62.0914 17.9086 80 40 80Z" opacity=".2"/><path stroke="#CE7A58" stroke-miterlimit="10" stroke-width="2.5" d="M27.3636 26.1818V22.5455C27.3636 21.0391 28.5846 19.8182 30.0909 19.8182C31.5973 19.8182 32.8182 21.0391 32.8182 22.5455V26.1818"/><path stroke="#CE7A58" stroke-miterlimit="10" stroke-width="2.5" d="M32.8181 26.1818V21.6364C32.8181 20.13 34.039 18.9091 35.5454 18.9091C37.0518 18.9091 38.2727 20.13 38.2727 21.6364V26.1818"/><path stroke="#CE7A58" stroke-miterlimit="10" stroke-width="2.5" d="M43.7272 26.1818V21.6364C43.7272 20.13 44.9481 18.9091 46.4545 18.9091C47.9609 18.9091 49.1818 20.13 49.1818 21.6364V26.1818"/><path stroke="#CE7A58" stroke-miterlimit="10" stroke-width="2.5" d="M38.2727 26.1818V20.7273C38.2727 19.2209 39.4936 18 41 18C42.5063 18 43.7273 19.2209 43.7273 20.7273V26.1818"/><path stroke="#CE7A58" stroke-miterlimit="10" stroke-width="2.5" d="M42.8918 44.3636H21V26.1818H59.1818V44.3636H54.6364"/><path stroke="#CE7A58" stroke-linecap="square" stroke-miterlimit="10" stroke-width="2.5" d="M39.1818 38.9091C41.1901 38.9091 42.8181 37.281 42.8181 35.2727C42.8181 33.2644 41.1901 31.6364 39.1818 31.6364C37.1735 31.6364 35.5454 33.2644 35.5454 35.2727C35.5454 37.281 37.1735 38.9091 39.1818 38.9091Z"/><path stroke="#CE7A58" stroke-linecap="square" stroke-miterlimit="10" stroke-width="2.5" d="M30.0908 31.6364H26.4545"/><path stroke="#CE7A58" stroke-miterlimit="10" stroke-width="2.5" d="M27.3636 44.3636C27.3636 51.8945 33.4691 58 41 58C48.5309 58 54.6364 51.8945 54.6364 44.3636V32.5454C51.4873 32.5454 49.1818 34.8509 49.1818 38V41.6364C44.8836 41.6364 41 44.96 41 48.9091"/></svg>