<svg xmlns="http://www.w3.org/2000/svg" width="80" height="80" fill="none" viewBox="0 0 80 80"><path fill="#F2A634" d="M40 80C62.0914 80 80 62.0914 80 40C80 17.9086 62.0914 0 40 0C17.9086 0 0 17.9086 0 40C0 62.0914 17.9086 80 40 80Z" opacity=".2"/><path stroke="#CE7A58" stroke-linecap="square" stroke-miterlimit="10" stroke-width="2.5" d="M44.25 36.7778H52"/><path stroke="#CE7A58" stroke-linecap="square" stroke-miterlimit="10" stroke-width="2.5" d="M44.25 43.6667H52"/><path stroke="#CE7A58" stroke-linecap="square" stroke-miterlimit="10" stroke-width="2.5" d="M39.0834 47.1111H27.0278C27.0278 44.2574 29.3408 41.9445 32.1945 41.9445H33.9167C36.7704 41.9445 39.0834 44.2574 39.0834 47.1111Z"/><path stroke="#CE7A58" stroke-linecap="square" stroke-miterlimit="10" stroke-width="2.5" d="M33.0557 39.3611C34.958 39.3611 36.5001 37.819 36.5001 35.9167C36.5001 34.0143 34.958 32.4722 33.0557 32.4722C31.1533 32.4722 29.6112 34.0143 29.6112 35.9167C29.6112 37.819 31.1533 39.3611 33.0557 39.3611Z"/><path stroke="#CE7A58" stroke-linecap="square" stroke-miterlimit="10" stroke-width="2.5" d="M52 23C52 24.9022 50.4577 26.4444 48.5556 26.4444C46.6534 26.4444 45.1111 24.9022 45.1111 23H34.7778C34.7778 24.9022 33.2355 26.4444 31.3333 26.4444C29.4311 26.4444 27.8889 24.9022 27.8889 23H21V54H58.8889V23H52Z"/></svg>