<svg xmlns="http://www.w3.org/2000/svg" width="36" height="36" fill="none" viewBox="0 0 36 36"><g clip-path="url(#clip0)"><path fill="#CE7A58" d="M27.2401 3.98998L18.2401 0.0503808C18.087 -0.0164071 17.9131 -0.0164071 17.7601 0.0503808L8.76006 3.98998C8.5415 4.08537 8.40018 4.30112 8.40005 4.53958V13.9596C8.40331 16.0766 9.4206 18.0639 11.1361 19.3044L17.3563 23.7906C17.7404 24.0686 18.2597 24.0686 18.6439 23.7906L24.8641 19.305C26.5795 18.0645 27.5968 16.0772 27.6001 13.9602V4.53958C27.5999 4.30112 27.4586 4.08537 27.2401 3.98998ZM26.4001 13.9602C26.3973 15.6917 25.5652 17.3172 24.1621 18.3318L18.0001 22.776L11.8381 18.3318C10.4349 17.3172 9.6028 15.6917 9.60006 13.9602V4.93198L18.0001 1.25518L26.4001 4.93198V13.9602Z"/><path fill="#CE7A58" d="M17.76 2.66999L11.16 5.55959C10.9415 5.65497 10.8001 5.87073 10.8 6.10919V13.9602C10.8019 15.3064 11.4489 16.5701 12.54 17.3586L17.649 21.0438C17.8586 21.195 18.1414 21.195 18.351 21.0438L23.46 17.3586C24.5511 16.5701 25.1982 15.3064 25.2 13.9602V6.10919C25.1999 5.87073 25.0586 5.65497 24.84 5.55959L18.24 2.66999C18.087 2.6032 17.9131 2.6032 17.76 2.66999ZM24 6.50099V13.9602C23.9982 14.9208 23.5364 15.8225 22.758 16.3854L18 19.8174L13.242 16.3854C12.4636 15.8225 12.0019 14.9208 12 13.9602V6.50099L18 3.87479L24 6.50099Z"/><path fill="#CE7A58" d="M4.97103 19.92L3.67323 16.8876C3.39724 16.2624 2.80869 15.832 2.12927 15.7584C1.44986 15.6848 0.782798 15.9793 0.379371 16.5309C-0.0240561 17.0825 -0.102562 17.8074 0.173426 18.4326L2.52483 23.6052C2.84205 24.3055 3.28336 24.9425 3.82743 25.4856L7.52523 29.184C7.31697 29.4047 7.20068 29.6966 7.20003 30V34.8C7.20003 35.4628 7.73729 36 8.40003 36H15C15.6628 36 16.2 35.4628 16.2 34.8V30C16.2 29.3373 15.6628 28.8 15 28.8V27.6834C15.0184 26.2624 14.5548 24.8771 13.6848 23.7534C13.1748 23.0826 12.4796 22.5755 11.685 22.2948C10.4213 21.7639 9.25915 21.018 8.25003 20.0904C7.31333 19.319 5.98264 19.2498 4.97103 19.92ZM15 34.8H8.40003V30H15V34.8ZM12.7482 24.5028C13.4476 25.414 13.8183 26.5349 13.8 27.6834V28.8H8.83863L4.67583 24.6372C4.23371 24.1957 3.87495 23.678 3.61683 23.109L1.26543 17.9364C1.16508 17.7156 1.18375 17.459 1.31501 17.2551C1.44626 17.0512 1.67212 16.9279 1.91463 16.9278C2.20001 16.9276 2.45793 17.0979 2.56983 17.3604L3.91203 20.4906C4.26844 21.3258 4.78217 22.0845 5.42523 22.7256L8.16603 25.467C8.31667 25.623 8.53975 25.6855 8.74953 25.6306C8.95931 25.5757 9.12314 25.4119 9.17805 25.2021C9.23295 24.9923 9.1704 24.7693 9.01443 24.6186L6.27363 21.8772C5.99802 21.6023 5.75022 21.3008 5.53383 20.9772C6.11003 20.5338 6.91612 20.5473 7.47723 21.0096C8.59883 22.0389 9.89516 22.8598 11.3052 23.4336C11.8797 23.6425 12.3811 24.014 12.7482 24.5028Z"/><path fill="#CE7A58" d="M13.2001 31.8H12.6001C12.2687 31.8 12.0001 32.0687 12.0001 32.4C12.0001 32.7314 12.2687 33 12.6001 33H13.2001C13.5314 33 13.8 32.7314 13.8 32.4C13.8 32.0687 13.5314 31.8 13.2001 31.8Z"/><path fill="#CE7A58" d="M33.4752 23.6052L35.8267 18.4326C36.1158 17.8053 36.0442 17.0709 35.6395 16.5112C35.2348 15.9514 34.5598 15.6534 33.8735 15.7314C33.1872 15.8094 32.5962 16.2513 32.3274 16.8876L31.0326 19.9086C30.0175 19.2417 28.6862 19.3147 27.75 20.0886C26.7409 21.0162 25.5787 21.7621 24.315 22.293C23.5204 22.5737 22.8253 23.0808 22.3152 23.7516C21.4449 24.8758 20.9812 26.2618 21 27.6834V28.8C20.3373 28.8 19.8 29.3373 19.8 30V34.8C19.8 35.4628 20.3373 36 21 36H27.6C28.2628 36 28.8 35.4628 28.8 34.8V30C28.7994 29.6966 28.6831 29.4048 28.4748 29.184L32.1726 25.4856C32.7167 24.9425 33.158 24.3055 33.4752 23.6052ZM27.6 34.8H21V30H27.6V34.8ZM27.1614 28.8H22.2V27.6834C22.1819 26.5351 22.5526 25.4144 23.2518 24.5034C23.6181 24.0149 24.1184 23.6433 24.6918 23.4336C26.1022 22.86 27.3987 22.0391 28.5204 21.0096C29.0809 20.5437 29.8893 20.5281 30.4674 20.9718C30.2504 21.2978 30.0014 21.6013 29.724 21.8778L26.9832 24.6192C26.7558 24.8546 26.7591 25.2289 26.9905 25.4603C27.222 25.6918 27.5962 25.695 27.8316 25.4676L30.5724 22.7262C31.2155 22.0851 31.7292 21.3264 32.0856 20.4912L33.4278 17.3604C33.5401 17.0982 33.7979 16.9282 34.083 16.9284C34.3256 16.9285 34.5514 17.0518 34.6827 17.2557C34.8139 17.4596 34.8326 17.7162 34.7322 17.937L32.3808 23.1096C32.1227 23.6786 31.764 24.1963 31.3218 24.6378L27.1614 28.8Z"/><path fill="#CE7A58" d="M23.4001 31.8H22.8001C22.4687 31.8 22.2001 32.0687 22.2001 32.4C22.2001 32.7314 22.4687 33 22.8001 33H23.4001C23.7314 33 24.0001 32.7314 24.0001 32.4C24.0001 32.0687 23.7314 31.8 23.4001 31.8Z"/><path fill="#CE7A58" d="M14.7601 12.72C14.495 12.5212 14.1189 12.5749 13.9201 12.84C13.7212 13.1051 13.775 13.4812 14.0401 13.68L16.4401 15.48C16.5439 15.5579 16.6702 15.6 16.8001 15.6C16.834 15.5999 16.8679 15.5971 16.9015 15.5916C17.064 15.5637 17.2078 15.4702 17.2993 15.333L22.0993 8.13301C22.2182 7.95466 22.233 7.72639 22.138 7.53419C22.0431 7.34198 21.8528 7.21504 21.6388 7.20119C21.4249 7.18733 21.2198 7.28866 21.1009 7.46701L16.6525 14.1396L14.7601 12.72Z"/></g><defs><clipPath id="clip0"><rect width="36" height="36" fill="#fff"/></clipPath></defs></svg>