<svg xmlns="http://www.w3.org/2000/svg" width="80" height="80" fill="none" viewBox="0 0 80 80"><path fill="#F2A634" d="M40 80C62.0914 80 80 62.0914 80 40C80 17.9086 62.0914 0 40 0C17.9086 0 0 17.9086 0 40C0 62.0914 17.9086 80 40 80Z" opacity=".2"/><path stroke="#CE7A58" stroke-linecap="square" stroke-miterlimit="10" stroke-width="2.5" d="M50.707 41.619C50.2814 44.151 48.9723 46.4502 47.0121 48.1085C45.0519 49.7667 42.5675 50.6765 40 50.6765C37.4326 50.6765 34.9481 49.7667 32.988 48.1085C31.0278 46.4502 29.7187 44.151 29.2931 41.619"/><path stroke="#CE7A58" stroke-linecap="square" stroke-miterlimit="10" stroke-width="2.5" d="M50.8572 35.2857C50.8572 34.3259 50.4759 33.4054 49.7972 32.7267C49.1185 32.0479 48.198 31.6667 47.2382 31.6667C46.2784 31.6667 45.3578 32.0479 44.6791 32.7267C44.0004 33.4054 43.6191 34.3259 43.6191 35.2857"/><path stroke="#CE7A58" stroke-linecap="square" stroke-miterlimit="10" stroke-width="2.5" d="M36.381 35.2857C36.381 34.3259 35.9997 33.4054 35.321 32.7267C34.6423 32.0479 33.7218 31.6667 32.762 31.6667C31.8022 31.6667 30.8816 32.0479 30.2029 32.7267C29.5242 33.4054 29.1429 34.3259 29.1429 35.2857"/><path stroke="#CE7A58" stroke-linecap="square" stroke-miterlimit="10" stroke-width="2.5" d="M40 57C50.4934 57 59 48.4934 59 38C59 27.5066 50.4934 19 40 19C29.5066 19 21 27.5066 21 38C21 48.4934 29.5066 57 40 57Z"/></svg>