<svg xmlns="http://www.w3.org/2000/svg" width="80" height="80" fill="none" viewBox="0 0 80 80"><path fill="#F2A634" d="M40 80C62.0914 80 80 62.0914 80 40C80 17.9086 62.0914 0 40 0C17.9086 0 0 17.9086 0 40C0 62.0914 17.9086 80 40 80Z" opacity=".2"/><path stroke="#CE7A58" stroke-linecap="square" stroke-miterlimit="10" stroke-width="2.5" d="M51.0682 25.8864H55.2728V57H25V25.8864H29.2046"/><path stroke="#CE7A58" stroke-linecap="square" stroke-miterlimit="10" stroke-width="2.5" d="M34.25 41.8636L38.4545 46.0682L46.0227 38.5"/><path stroke="#CE7A58" stroke-linecap="square" stroke-miterlimit="10" stroke-width="2.5" d="M44.3409 24.2045C44.3409 21.8828 42.4581 20 40.1364 20C37.8146 20 35.9318 21.8828 35.9318 24.2045H32.5682V29.25H47.7045V24.2045H44.3409Z"/></svg>