<svg xmlns="http://www.w3.org/2000/svg" width="36" height="36" fill="none" viewBox="0 0 36 36"><g clip-path="url(#clip0)"><path fill="#67A99F" d="M35.9399 21.9517L35.9453 21.9499L30.0347 9.05362L31.4681 8.34022L30.9317 7.26623L29.5343 7.96223L29.3453 7.55003C29.2072 7.24883 28.8511 7.11661 28.5499 7.25468C28.4193 7.31461 28.3145 7.41938 28.2546 7.55003L28.086 7.91843C27.069 7.44608 25.9613 7.20098 24.84 7.20023H19.8V6.00024H21V4.80025H19.9686L20.4 3.07407C20.7312 1.7486 19.9253 0.405589 18.5998 0.0743164C17.2743 -0.256881 15.9313 0.549062 15.6001 1.87453C15.5017 2.26827 15.5017 2.68024 15.6001 3.07399L16.0315 4.80018H15.0001V6.00017H16.2001V7.20016H11.1631C10.0407 7.20106 8.93187 7.44675 7.91413 7.92015L7.74553 7.55175C7.60745 7.25056 7.25128 7.11833 6.95008 7.25641C6.81943 7.31633 6.71466 7.4211 6.65474 7.55175L6.46574 7.96395L5.06835 7.26496L4.53195 8.34015L5.96534 9.05654L0.0547906 21.9499C0.0183409 22.0283 -0.000258916 22.1137 0.00019108 22.2001C0.00281606 24.5186 1.8817 26.3974 4.20016 26.4001H10.2001C12.5186 26.3974 14.3974 24.5186 14.4001 22.2001C14.3986 22.1139 14.3781 22.0291 14.3401 21.9517L8.41332 9.00682C9.27484 8.60692 10.2133 8.39992 11.1631 8.40022H16.2001V30.3516L14.1517 32.4H12.0001C10.3441 32.402 9.00207 33.744 9.00012 35.4C9.00012 35.7313 9.26876 36 9.60011 36H26.4C26.7313 36 27 35.7313 27 35.4C26.998 33.744 25.656 32.402 24 32.4H21.8484L19.8 30.3516V8.40022H24.84C25.7898 8.39992 26.7282 8.60692 27.5898 9.00682L21.6546 21.9499C21.6182 22.0283 21.5996 22.1137 21.6 22.2001C21.6026 24.5186 23.4815 26.3974 25.8 26.4001H31.7999C34.1184 26.3974 35.9973 24.5186 35.9999 22.2001C35.9985 22.1139 35.978 22.0291 35.9399 21.9517ZM10.2001 25.2001H4.20016C2.77502 25.1985 1.54705 24.1961 1.26018 22.8001H13.1401C12.8533 24.1961 11.6252 25.1985 10.2001 25.2001ZM12.8653 21.6001H1.53498L7.04653 9.57561C7.14718 9.60261 7.25308 9.60261 7.35373 9.57561L12.8653 21.6001ZM16.9963 1.68988C17.4635 1.13548 18.2917 1.06491 18.8461 1.53215C18.903 1.58015 18.9558 1.63295 19.0038 1.68988C19.2465 1.99858 19.3323 2.40237 19.236 2.78307L18.7314 4.80025H17.2686L16.7641 2.78307C16.6678 2.40237 16.7536 1.99858 16.9963 1.68988ZM17.4 7.20023V6.00024H18.6V7.20023H17.4ZM18.6 8.40022V30H17.4V8.40022H18.6ZM24 33.6C24.7626 33.6009 25.4422 34.0814 25.6974 34.8H10.3027C10.5579 34.0814 11.2375 33.6009 12.0001 33.6H24ZM20.1516 32.4H15.8485L17.0484 31.2H18.9516L20.1516 32.4ZM28.6452 9.57741C28.7442 9.61229 28.8529 9.60779 28.9487 9.56481L34.4651 21.6001H23.1348L28.6452 9.57741ZM31.7999 25.2001H25.8C24.3748 25.1985 23.1469 24.1961 22.86 22.8001H34.7399C34.4531 24.1961 33.2251 25.1985 31.7999 25.2001Z"/></g><defs><clipPath id="clip0"><rect width="36" height="36" fill="#fff"/></clipPath></defs></svg>