<svg xmlns="http://www.w3.org/2000/svg" width="28" height="28" fill="none" viewBox="0 0 28 28"><path stroke="#913938" stroke-linecap="square" stroke-miterlimit="10" stroke-width="2" d="M11.9652 6.06068V1"/><path stroke="#913938" stroke-linecap="square" stroke-miterlimit="10" stroke-width="2" d="M15.3386 6.06068V1"/><path stroke="#913938" stroke-linecap="square" stroke-miterlimit="10" stroke-width="2" d="M11.9652 2.6875H15.339"/><path fill="#913938" d="M21.2429 6.0625H22.2429V5.0625H21.2429V6.0625ZM6.06084 6.0625V5.0625H5.06084V6.0625H6.06084ZM21.2429 18.7143H20.2429V19.7143H21.2429V18.7143ZM26.3034 18.7143H27.3034V17.7143H26.3034V18.7143ZM26.3034 26.3053V27.3053H27.3034V26.3053H26.3034ZM1 26.3053H0V27.3053H1V26.3053ZM1 18.7143V17.7143H0V18.7143H1ZM6.06084 18.7143V19.7143H7.06084V18.7143H6.06084ZM21.2429 5.0625H6.06084V7.0625H21.2429V5.0625ZM22.2429 18.7143V6.0625H20.2429V18.7143H22.2429ZM26.3034 17.7143H21.2429V19.7143H26.3034V17.7143ZM27.3034 26.3053V18.7143H25.3034V26.3053H27.3034ZM1 27.3053H26.3034V25.3053H1V27.3053ZM0 18.7143V26.3053H2V18.7143H0ZM6.06084 17.7143H1V19.7143H6.06084V17.7143ZM5.06084 6.0625V18.7143H7.06084V6.0625H5.06084Z"/><path stroke="#913938" stroke-linecap="square" stroke-miterlimit="10" stroke-width="2" d="M9.43433 9.43359H11.1212"/><path stroke="#913938" stroke-linecap="square" stroke-miterlimit="10" stroke-width="2" d="M16.1824 9.43359H17.8693"/><path stroke="#913938" stroke-linecap="square" stroke-miterlimit="10" stroke-width="2" d="M9.43481 12.8086H11.1217"/><path stroke="#913938" stroke-linecap="square" stroke-miterlimit="10" stroke-width="2" d="M16.1824 12.8086H17.8693"/><path stroke="#913938" stroke-linecap="square" stroke-miterlimit="10" stroke-width="2" d="M9.43481 16.1797H11.1217"/><path stroke="#913938" stroke-linecap="square" stroke-miterlimit="10" stroke-width="2" d="M16.1824 16.1797H17.8693"/><path stroke="#913938" stroke-linecap="square" stroke-miterlimit="10" stroke-width="2" d="M9.43481 19.5547H11.1217"/><path stroke="#913938" stroke-linecap="square" stroke-miterlimit="10" stroke-width="2" d="M16.1824 19.5547H17.8693"/></svg>