<svg xmlns="http://www.w3.org/2000/svg" width="29" height="29" fill="none" viewBox="0 0 29 29"><path stroke="#913938" stroke-linecap="square" stroke-miterlimit="10" stroke-width="2" d="M13.0092 23.1604L6.14343 16.2946C6.14343 16.2946 11.7159 2.8136 27.3038 2C26.4224 17.521 13.0092 23.1604 13.0092 23.1604Z"/><path stroke="#913938" stroke-miterlimit="10" stroke-width="2" d="M19.7125 5.03516L24.2672 9.58983"/><path stroke="#913938" stroke-miterlimit="10" stroke-width="2" d="M15.8416 5.45744C11.9367 4.04309 7.86014 4.88844 4.42725 9.43015L8.00089 13.0124"/><path stroke="#913938" stroke-miterlimit="10" stroke-width="2" d="M16.293 21.3017L19.8752 24.8753C24.4169 21.4424 25.2623 17.3659 23.8479 13.4609"/><path stroke="#913938" stroke-linecap="square" stroke-miterlimit="10" stroke-width="2" d="M16.8714 14.5802C18.0563 14.5802 19.0169 13.6196 19.0169 12.4346C19.0169 11.2497 18.0563 10.2891 16.8714 10.2891C15.6864 10.2891 14.7258 11.2497 14.7258 12.4346C14.7258 13.6196 15.6864 14.5802 16.8714 14.5802Z"/><path stroke="#913938" stroke-linecap="square" stroke-miterlimit="10" stroke-width="2" d="M3.46499 22.1993C3.95058 21.7303 4.60094 21.4708 5.27601 21.4767C5.95108 21.4825 6.59684 21.7533 7.07421 22.2307C7.55157 22.708 7.82235 23.3538 7.82821 24.0289C7.83408 24.7039 7.57457 25.3543 7.10557 25.8399C6.10059 26.8457 2 27.3049 2 27.3049C2 27.3049 2.45915 23.2043 3.46499 22.1993Z"/></svg>