<svg xmlns="http://www.w3.org/2000/svg" width="30" height="28" fill="none" viewBox="0 0 30 28"><path stroke="#913938" stroke-miterlimit="10" stroke-width="2" d="M4.73206 14.0625H5.66497C7.78081 14.0625 10.1672 15.2258 11.2624 16.8612H14.9941C16.8664 16.8612 18.7257 18.7205 18.7257 20.5929H10.3295"/><path stroke="#913938" stroke-miterlimit="10" stroke-width="2" d="M18.1296 18.7266H24.3232C27.705 18.7266 28.0548 20.5924 28.0548 20.5924L14.6955 26.0182C13.633 26.4436 12.4388 26.3942 11.4145 25.882L4.73206 22.4881"/><path stroke="#913938" stroke-linecap="square" stroke-miterlimit="10" stroke-width="2" d="M22.457 14.0609C24.5179 14.0609 26.1886 12.3902 26.1886 10.3293C26.1886 8.26837 24.5179 6.59766 22.457 6.59766C20.3961 6.59766 18.7253 8.26837 18.7253 10.3293C18.7253 12.3902 20.3961 14.0609 22.457 14.0609Z"/><path stroke="#913938" stroke-linecap="square" stroke-miterlimit="10" stroke-width="2" d="M4.73164 12.1953H1V24.3232H4.73164V12.1953Z"/><path stroke="#913938" stroke-linecap="square" stroke-miterlimit="10" stroke-width="2" d="M11.2624 8.46329C13.3233 8.46329 14.994 6.79257 14.994 4.73164C14.994 2.67071 13.3233 1 11.2624 1C9.20148 1 7.53076 2.67071 7.53076 4.73164C7.53076 6.79257 9.20148 8.46329 11.2624 8.46329Z"/></svg>