<svg xmlns="http://www.w3.org/2000/svg" width="22" height="25" fill="none" viewBox="0 0 22 25"><path stroke="#913938" stroke-linecap="square" stroke-miterlimit="10" stroke-width="2" d="M1.0762 23.9996C1.59965 20.5891 4.76002 17.8828 8.70122 17.8828H13.0518C16.993 17.8828 20.1534 20.5891 20.6768 23.9996H1.0762Z"/><path stroke="#913938" stroke-linecap="square" stroke-miterlimit="10" stroke-width="2" d="M15.1909 13.7295C14.2154 15.0519 12.6464 15.9097 10.877 15.9097C7.91835 15.9097 5.5199 13.5113 5.5199 10.5526C5.5199 8.93359 6.23812 7.4823 7.37332 6.5"/><path fill="#913938" d="M15.0217 9.06574L14.5469 8.18566L14.0217 8.469V9.06574H15.0217ZM12.2535 9.06714H13.2535V8.46971L12.7274 8.18657L12.2535 9.06714ZM12.2535 10.3371H11.2535V11.3371H12.2535V10.3371ZM15.0217 10.3371V11.3371H16.0217V10.3371H15.0217ZM15.5583 6.49236C15.5583 7.22277 15.1513 7.8596 14.5469 8.18566L15.4965 9.94583C16.722 9.28469 17.5583 7.98695 17.5583 6.49236H15.5583ZM13.6363 4.57031C14.6978 4.57031 15.5583 5.43084 15.5583 6.49236H17.5583C17.5583 4.32627 15.8024 2.57031 13.6363 2.57031V4.57031ZM11.7142 6.49236C11.7142 5.43084 12.5748 4.57031 13.6363 4.57031V2.57031C11.4702 2.57031 9.71423 4.32627 9.71423 6.49236H11.7142ZM12.7274 8.18657C12.1221 7.8608 11.7142 7.22345 11.7142 6.49236H9.71423C9.71423 7.98836 10.5521 9.28714 11.7795 9.94771L12.7274 8.18657ZM13.2535 10.3371V9.06714H11.2535V10.3371H13.2535ZM15.0217 9.33713H12.2535V11.3371H15.0217V9.33713ZM14.0217 9.06574V10.3371H16.0217V9.06574H14.0217Z"/><path stroke="#913938" stroke-width="2" d="M13.6365 2.59738V0"/><path stroke="#913938" stroke-width="2" d="M16.1345 3.24481L17.8571 1.30078"/><path stroke="#913938" stroke-width="2" d="M11.1384 3.24481L9.41589 1.30078"/></svg>